/* XPM */
static char *result[] = {
/* columns rows colors chars-per-pixel */
"32 32 4 1 ",
"  c #C84C0C",
". c #FC9838",
"X c #80D010",
"o c #FCD8A8",
/* pixels */
"ooooooooooXXXXXXXXXXXXoooooooooo",
"ooooooooooXXXXXXXXXXXXoooooooooo",
"ooooooooXXXXXXXXXXXXXXXXoooooooo",
"ooooooooXXXXXXXXXXXXXXXXoooooooo",
"oooo..ooXX            XXoo..oooo",
"oooo..ooXX            XXoo..oooo",
"oooo..oo                oo..oooo",
"oooo..oo                oo..oooo",
"oooo....  ..XX....XX..  ....oooo",
"oooo....  ..XX....XX..  ....oooo",
"oooo....  ..  ....  ..  ....oooo",
"oooo....  ..  ....  ..  ....oooo",
"oooooo....................  oooo",
"oooooo....................  oooo",
"ooooooXXXX....    ....XXXX  oooo",
"ooooooXXXX....    ....XXXX  oooo",
"oo          ........XXXX      oo",
"oo          ........XXXX      oo",
"    ..        XXXXXXXXXX..    oo",
"    ..        XXXXXXXXXX..    oo",
"  ......    ..    XXXX......  oo",
"  ......    ..    XXXX......  oo",
"    ..      ..XX        ......oo",
"    ..      ..XX        ......oo",
"    ..      ..    XXXXXXXX..oooo",
"    ..      ..    XXXXXXXX..oooo",
"            ..XXXXXXXXXXoooooooo",
"            ..XXXXXXXXXXoooooooo",
"oo..........  oooo      oooooooo",
"oo..........  oooo      oooooooo",
"oooooooo      oooooooooooooooooo",
"oooooooo      oooooooooooooooooo"
};
