/* XPM */
static char *result[] = {
/* columns rows colors chars-per-pixel */
"32 32 4 1 ",
"  c #D82800",
". c #FC9838",
"X c #FCD8A8",
"o c gray99",
/* pixels */
"XXXXXXXXooXXXX    XXXXooXXXXXXXX",
"XXXXXXXXooXXXX    XXXXooXXXXXXXX",
"XXXXXXXXoo....  ....ooooXXXXXXXX",
"XXXXXXXXoo....  ....ooooXXXXXXXX",
"XXXXXXXXoo..........ooooXXXXXXXX",
"XXXXXXXXoo..........ooooXXXXXXXX",
"XXXXXXXXXX..        ....XXXXXXXX",
"XXXXXXXXXX..        ....XXXXXXXX",
"XXXXXXXXXX....  ........XXXXXXXX",
"XXXXXXXXXX....  ........XXXXXXXX",
"XXXXXXXXXX....  ....  ..XXXXXXXX",
"XXXXXXXXXX....  ....  ..XXXXXXXX",
"..........          ..ooooXXXXXX",
"..........          ..ooooXXXXXX",
"....  ....  ............ooooXXXX",
"....  ....  ............ooooXXXX",
"..      ..  ........  ......XXXX",
"..      ..  ........  ......XXXX",
"....  ....        ....        XX",
"....  ....        ....        XX",
"....  ....    ..      oooooo  XX",
"....  ....    ..      oooooo  XX",
"....  ....        ....ooooooXXXX",
"....  ....        ....ooooooXXXX",
"..........  ..........ooooooXXXX",
"..........  ..........ooooooXXXX",
"            ......    ooooooXXXX",
"            ......    ooooooXXXX",
"XXXXXXXX      XXXX    ooooooXXXX",
"XXXXXXXX      XXXX    ooooooXXXX",
"XXXXXXXX      XXXXXXXXXXooXXXXXX",
"XXXXXXXX      XXXXXXXXXXooXXXXXX"
};
