/* XPM */
static char *result[] = {
/* columns rows colors chars-per-pixel */
"32 32 4 1 ",
"  c #D82800",
". c #FC9838",
"X c #FCD8A8",
"o c gray99",
/* pixels */
"XXXXXXXXooXXXXXX  XXXXXXooXXXXXX",
"XXXXXXXXooXXXXXX  XXXXXXooXXXXXX",
"XXXXXXXXoooo....  ....ooooXXXXXX",
"XXXXXXXXoooo....  ....ooooXXXXXX",
"XXXXXXXXoo..............ooXXXXXX",
"XXXXXXXXoo..............ooXXXXXX",
"XXXXXXXXXX..............XXXXXXXX",
"XXXXXXXXXX..............XXXXXXXX",
"XXXXXXXXXX..............XXXXXXXX",
"XXXXXXXXXX..............XXXXXXXX",
"XXXXXXXXXXXX..........XXXXXXXXXX",
"XXXXXXXXXXXX..........XXXXXXXXXX",
"XXXXoooo                ooooXXXX",
"XXXXoooo                ooooXXXX",
"XXXXXX                    XXXXXX",
"XXXXXX                    XXXXXX",
"XXXX                      XXXXXX",
"XXXX                      XXXXXX",
"XXXX                        XXXX",
"XXXX                        XXXX",
"XX                          XXXX",
"XX                          XXXX",
"XX                            XX",
"XX                            XX",
"XX                            XX",
"XX                            XX",
"XXXXXX                          ",
"XXXXXX                          ",
"XXXXXXXX......XXXXXX......XXXXXX",
"XXXXXXXX......XXXXXX......XXXXXX",
"XXXXXXXXXXXXXXXXXXXX......XXXXXX",
"XXXXXXXXXXXXXXXXXXXX......XXXXXX"
};
