/* XPM */
static char *result[] = {
/* columns rows colors chars-per-pixel */
"32 32 4 1 ",
"  c #D82800",
". c #FC9838",
"X c #FCD8A8",
"o c gray99",
/* pixels */
"XXXXXXXXXXXXoo          XXXXXXXX",
"XXXXXXXXXXXXoo          XXXXXXXX",
"XXXXXXXXXX  oooo......  XXXXXXXX",
"XXXXXXXXXX  oooo......  XXXXXXXX",
"XXXXXXXXXX..oooo........XXXXXXXX",
"XXXXXXXXXX..oooo........XXXXXXXX",
"XXXXXXXXXX........      XXXXXXXX",
"XXXXXXXXXX........      XXXXXXXX",
"XXXXXXXX..............  XXXXXXXX",
"XXXXXXXX..............  XXXXXXXX",
"XXXXXXXX....oooo......  ..  XXXX",
"XXXXXXXX....oooo......  ..  XXXX",
"XXXXXXXX  oooooooo..    ..  XXXX",
"XXXXXXXX  oooooooo..    ..  XXXX",
"XXXXXX  ..    ..        ..  XXXX",
"XXXXXX  ..    ..        ..  XXXX",
"XXXXXX  ..  ....    ooooooooooXX",
"XXXXXX  ..  ....    ooooooooooXX",
"XXXX        ....    oooooooooooo",
"XXXX        ....    oooooooooooo",
"XXXX    ....        ooooooooooXX",
"XXXX    ....        ooooooooooXX",
"XX      ..........  ..XX..  XXXX",
"XX      ..........  ..XX..  XXXX",
"XX        ..........XXXX..  XXXX",
"XX        ..........XXXX..  XXXX",
"                    XXXX..  XXXX",
"                    XXXX..  XXXX",
"XXXXXXXXXXXX        XXXXXXXXXXXX",
"XXXXXXXXXXXX        XXXXXXXXXXXX",
"XXXXXXXXXXXX          XXXXXXXXXX",
"XXXXXXXXXXXX          XXXXXXXXXX"
};
