/* XPM */
static char *result[] = {
/* columns rows colors chars-per-pixel */
"32 32 4 1 ",
"  c #D82800",
". c #FC9838",
"X c #FCD8A8",
"o c gray99",
/* pixels */
"XXXXXXXX          ooXXXXXXXXXXXX",
"XXXXXXXX          ooXXXXXXXXXXXX",
"XXXXXXXX  ......oooo  XXXXXXXXXX",
"XXXXXXXX  ......oooo  XXXXXXXXXX",
"XXXXXXXX........oooo..XXXXXXXXXX",
"XXXXXXXX........oooo..XXXXXXXXXX",
"XXXXXXXX      ........XXXXXXXXXX",
"XXXXXXXX      ........XXXXXXXXXX",
"XXXXXXXX  ..............XXXXXXXX",
"XXXXXXXX  ..............XXXXXXXX",
"XXXX  ..  ......oooo....XXXXXXXX",
"XXXX  ..  ......oooo....XXXXXXXX",
"XXXX  ..    ..oooooooo  XXXXXXXX",
"XXXX  ..    ..oooooooo  XXXXXXXX",
"XXXX  ..        ..    ..  XXXXXX",
"XXXX  ..        ..    ..  XXXXXX",
"XXoooooooooo    ....  ..  XXXXXX",
"XXoooooooooo    ....  ..  XXXXXX",
"oooooooooooo    ....        XXXX",
"oooooooooooo    ....        XXXX",
"XXoooooooooo        ....    XXXX",
"XXoooooooooo        ....    XXXX",
"XXXX  ..XX..  ..........      XX",
"XXXX  ..XX..  ..........      XX",
"XXXX  ..XXXX..........        XX",
"XXXX  ..XXXX..........        XX",
"XXXX  ..XXXX                    ",
"XXXX  ..XXXX                    ",
"XXXXXXXXXXXX        XXXXXXXXXXXX",
"XXXXXXXXXXXX        XXXXXXXXXXXX",
"XXXXXXXXXX          XXXXXXXXXXXX",
"XXXXXXXXXX          XXXXXXXXXXXX"
};
