/* XPM */
static char *result[] = {
/* columns rows colors chars-per-pixel */
"32 32 4 1 ",
"  c #C84C0C",
". c #FC9838",
"X c #80D010",
"o c #FCD8A8",
/* pixels */
"ooooooooooXXXXXXXXoooooooooooooo",
"ooooooooooXXXXXXXXoooooooooooooo",
"ooooooXXXXXXXXXX        oooooooo",
"ooooooXXXXXXXXXX        oooooooo",
"ooXXXXXX..XXXX            oooooo",
"ooXXXXXX..XXXX            oooooo",
"XXXXXXXX....            oooooooo",
"XXXXXXXX....            oooooooo",
"XXooXXXX......  ....XX..oooo  oo",
"XXooXXXX......  ....XX..oooo  oo",
"ooooXX    ....  ....  ......  oo",
"ooooXX    ....  ....  ......  oo",
"oooooo      ............oooo  oo",
"oooooo      ............oooo  oo",
"ooooooooXXXXXXXX........oooo  oo",
"ooooooooXXXXXXXX........oooo  oo",
"oooo  XXXXXXXXXXXXXX      ..  oo",
"oooo  XXXXXXXXXXXXXX      ..  oo",
"oo      XX......XXXXXX    ..  oo",
"oo      XX......XXXXXX    ..  oo",
"oo        ......XXXXXX    oo  oo",
"oo        ......XXXXXX    oo  oo",
"oo        ....XXXXXX  oooooo  oo",
"oo        ....XXXXXX  oooooo  oo",
"ooooXX    XXXX        oooooo  oo",
"ooooXX    XXXX        oooooo  oo",
"ooXXXXXXXXXXXXXXXXXXXXoooooooooo",
"ooXXXXXXXXXXXXXXXXXXXXoooooooooo",
"oooooooo        oooooooooooooooo",
"oooooooo        oooooooooooooooo",
"oooooooo          oooooooooooooo",
"oooooooo          oooooooooooooo"
};
