/* XPM */
static char *result[] = {
/* columns rows colors chars-per-pixel */
"32 32 4 1 ",
"  c #C84C0C",
". c #FC9838",
"X c #80D010",
"o c #FCD8A8",
/* pixels */
"ooooooooooooooXXXXXXXXoooooooooo",
"ooooooooooooooXXXXXXXXoooooooooo",
"oooooooo        XXXXXXXXXXoooooo",
"oooooooo        XXXXXXXXXXoooooo",
"oooooo            XXXX..XXXXXXoo",
"oooooo            XXXX..XXXXXXoo",
"oooooooo            ....XXXXXXXX",
"oooooooo            ....XXXXXXXX",
"oo  oooo..XX....  ......XXXXooXX",
"oo  oooo..XX....  ......XXXXooXX",
"oo  ......  ....  ....    XXoooo",
"oo  ......  ....  ....    XXoooo",
"oo  oooo............      oooooo",
"oo  oooo............      oooooo",
"oo  oooo........XXXXXXXXoooooooo",
"oo  oooo........XXXXXXXXoooooooo",
"oo  ..      XXXXXXXXXXXXXX  oooo",
"oo  ..      XXXXXXXXXXXXXX  oooo",
"oo  ..    XXXXXX......XX      oo",
"oo  ..    XXXXXX......XX      oo",
"oo  oo    XXXXXX......        oo",
"oo  oo    XXXXXX......        oo",
"oo  oooooo  XXXXXX....        oo",
"oo  oooooo  XXXXXX....        oo",
"oo  oooooo        XXXX    XXoooo",
"oo  oooooo        XXXX    XXoooo",
"ooooooooooXXXXXXXXXXXXXXXXXXXXoo",
"ooooooooooXXXXXXXXXXXXXXXXXXXXoo",
"oooooooooooooooo        oooooooo",
"oooooooooooooooo        oooooooo",
"oooooooooooooo          oooooooo",
"oooooooooooooo          oooooooo"
};
