/* XPM */
static char *result[] = {
/* columns rows colors chars-per-pixel */
"32 32 4 1 ",
"  c #C84C0C",
". c #FC9838",
"X c #80D010",
"o c #FCD8A8",
/* pixels */
"ooooooooooXXXXXXXXXXXXoooooooooo",
"ooooooooooXXXXXXXXXXXXoooooooooo",
"ooooooooXXXXXXXXXXXXXXXXoooooooo",
"ooooooooXXXXXXXXXXXXXXXXoooooooo",
"oooo..ooXXXXXXXXXXXXXXXXoo..oooo",
"oooo..ooXXXXXXXXXXXXXXXXoo..oooo",
"oooo..XXXXXXXXXXXXXXXXXXXX..oooo",
"oooo..XXXXXXXXXXXXXXXXXXXX..oooo",
"oooo..  XXXXXXXXXXXXXXXX  ..oooo",
"oooo..  XXXXXXXXXXXXXXXX  ..oooo",
"oooo....    XXXXXXXX    ....oooo",
"oooo....    XXXXXXXX    ....oooo",
"oooooo..      XXXX      ..oooooo",
"oooooo..      XXXX      ..oooooo",
"oooooo  XX            XX  oooooo",
"oooooo  XX            XX  oooooo",
"oooo    XXXXXXXXXXXXXX    oooooo",
"oooo    XXXXXXXXXXXXXX    oooooo",
"oooo    XXXXXXXXXXXXXX    ..oooo",
"oooo    XXXXXXXXXXXXXX    ..oooo",
"oooooo    XXXXXXXXXXXX    ..oooo",
"oooooo    XXXXXXXXXXXX    ..oooo",
"ooooooXXXX            XX....oooo",
"ooooooXXXX            XX....oooo",
"ooooooXXXXXXXXXXXXXXXXXXXXoooooo",
"ooooooXXXXXXXXXXXXXXXXXXXXoooooo",
"oooooo      XXXXXXXXXX  oooooooo",
"oooooo      XXXXXXXXXX  oooooooo",
"oooooo        oooo    oooooooooo",
"oooooo        oooo    oooooooooo",
"oooooooo    oooooooooooooooooooo",
"oooooooo    oooooooooooooooooooo"
};
