/* XPM */
static char *result[] = {
/* columns rows colors chars-per-pixel */
"32 32 4 1 ",
"  c #D82800",
". c #FC9838",
"X c #FCD8A8",
"o c gray99",
/* pixels */
"XXXXXXXXXX..      ..XXXXXXXXXXXX",
"XXXXXXXXXX..      ..XXXXXXXXXXXX",
"XXXXXXXXXX  ..  ..  XXXXXXXXXXXX",
"XXXXXXXXXX  ..  ..  XXXXXXXXXXXX",
"XXXXXXXXoo            ooXXXXXXXX",
"XXXXXXXXoo            ooXXXXXXXX",
"XXXXXXXXoo  ......    ooXXXXXXXX",
"XXXXXXXXoo  ......    ooXXXXXXXX",
"XXXXXXXXoo  ......    ooXXXXXXXX",
"XXXXXXXXoo  ......    ooXXXXXXXX",
"XXXXXXXXXXoo  ..    ooXXXXXXXXXX",
"XXXXXXXXXXoo  ..    ooXXXXXXXXXX",
"XXXXXXXXXX  ......  ooXXXXXXXXXX",
"XXXXXXXXXX  ......  ooXXXXXXXXXX",
"XXXXXXXXXX..  ..  ..XXXXXXXXXXXX",
"XXXXXXXXXX..  ..  ..XXXXXXXXXXXX",
"XXXXXXXXXX..oo  oo..XXXXXXXXXXXX",
"XXXXXXXXXX..oo  oo..XXXXXXXXXXXX",
"XXXXXXXX..oo      oo..XXXXXXXXXX",
"XXXXXXXX..oo      oo..XXXXXXXXXX",
"XXXXXXXXXXXX..  ..XXooXXXXXXXXXX",
"XXXXXXXXXXXX..  ..XXooXXXXXXXXXX",
"XXXXXXXXXXXX......  XXXXXXXXXXXX",
"XXXXXXXXXXXX......  XXXXXXXXXXXX",
"XXXXXXXXXXXX....XXXXXXXXXXXXXXXX",
"XXXXXXXXXXXX....XXXXXXXXXXXXXXXX",
"XXXXXXXXXXXX..XXXXXXXXXXXXXXXXXX",
"XXXXXXXXXXXX..XXXXXXXXXXXXXXXXXX",
"XXXXXXXXXXXX..XXXXXXXXXXXXXXXXXX",
"XXXXXXXXXXXX..XXXXXXXXXXXXXXXXXX",
"XXXXXXXXXXXX  XXXXXXXXXXXXXXXXXX",
"XXXXXXXXXXXX  XXXXXXXXXXXXXXXXXX"
};
