/* XPM */
static char *result[] = {
/* columns rows colors chars-per-pixel */
"32 32 4 1 ",
"  c #D82800",
". c #FC9838",
"X c #FCD8A8",
"o c gray99",
/* pixels */
"XXXXXXXXXX..      ..XXXXXXXXXXXX",
"XXXXXXXXXX..      ..XXXXXXXXXXXX",
"XXXXXXXXXX  ..  ..  XXXXXXXXXXXX",
"XXXXXXXXXX  ..  ..  XXXXXXXXXXXX",
"XXXXXXXXXX            XXXXXXXXXX",
"XXXXXXXXXX            XXXXXXXXXX",
"XXXXXXXXXX  ......    XXXXXXXXXX",
"XXXXXXXXXX  ......    XXXXXXXXXX",
"XXXXXXXXXXoo......    ooXXXXXXXX",
"XXXXXXXXXXoo......    ooXXXXXXXX",
"XXXXXXXXoo    ..    XXooXXXXXXXX",
"XXXXXXXXoo    ..    XXooXXXXXXXX",
"XXXXXXXXoo  ......  ooooXXXXXXXX",
"XXXXXXXXoo  ......  ooooXXXXXXXX",
"XXXXXXXXoo..  ..  ooooXXXXXXXXXX",
"XXXXXXXXoo..  ..  ooooXXXXXXXXXX",
"XXXXXXXXXX..XX  XX..ooXXXXXXXXXX",
"XXXXXXXXXX..XX  XX..ooXXXXXXXXXX",
"XXXXXXXX..XX      XX..ooXXXXXXXX",
"XXXXXXXX..XX      XX..ooXXXXXXXX",
"XXXXXXXXXXXX..  ..XXXXXXXXXXXXXX",
"XXXXXXXXXXXX..  ..XXXXXXXXXXXXXX",
"XXXXXXXXXXXX......  XXXXXXXXXXXX",
"XXXXXXXXXXXX......  XXXXXXXXXXXX",
"XXXXXXXXXXXX....XXXXXXXXXXXXXXXX",
"XXXXXXXXXXXX....XXXXXXXXXXXXXXXX",
"XXXXXXXXXXXX..XXXXXXXXXXXXXXXXXX",
"XXXXXXXXXXXX..XXXXXXXXXXXXXXXXXX",
"XXXXXXXXXXXX..XXXXXXXXXXXXXXXXXX",
"XXXXXXXXXXXX..XXXXXXXXXXXXXXXXXX",
"XXXXXXXXXXXX  XXXXXXXXXXXXXXXXXX",
"XXXXXXXXXXXX  XXXXXXXXXXXXXXXXXX"
};
