/* XPM */
static char *result[] = {
/* columns rows colors chars-per-pixel */
"32 32 5 1 ",
"  c #D82800",
". c #C84C0C",
"X c #FC9838",
"o c #80D010",
"O c #FCD8A8",
/* pixels */
"OOOOOOOOOO............OOOOOOOOOO",
"OOOOOOOOOO............OOOOOOOOOO",
"OOOOOOOOXX....XXXX....XXOOOOOOOO",
"OOOOOOOOXX....XXXX....XXOOOOOOOO",
"OOOOOOOOXX............XXOOOOOOOO",
"OOOOOOOOXX............XXOOOOOOOO",
"OOOOOO......ooXXXXoo......OOOOOO",
"OOOOOO......ooXXXXoo......OOOOOO",
"OOOOOO....XX..XXXX..XX....OOOOOO",
"OOOOOO....XX..XXXX..XX....OOOOOO",
"OOOOOO....XXXXXXXXXXXX....OOOOOO",
"OOOOOO....XXXXXXXXXXXX....OOOOOO",
"OOOOOO......XX....XX......OOOOOO",
"OOOOOO......XX....XX......OOOOOO",
"OOOOOO....    XXXX    ....OOOOOO",
"OOOOOO....    XXXX    ....OOOOOO",
"OOOO....XX            XX....OOOO",
"OOOO....XX            XX....OOOO",
"OOOO....XXXX        XXXX....OOOO",
"OOOO....XXXX        XXXX....OOOO",
"OOOO....XX  ..XXXX..  XX....OOOO",
"OOOO....XX  ..XXXX..  XX....OOOO",
"OOOOXXXX                XXXXOOOO",
"OOOOXXXX                XXXXOOOO",
"OOOO....                ....OOOO",
"OOOO....                ....OOOO",
"OOOO..                    ..OOOO",
"OOOO..                    ..OOOO",
"OOOO..                    ..OOOO",
"OOOO..                    ..OOOO",
"OO                            OO",
"OO                            OO"
};
