/* XPM */
static char *result[] = {
/* columns rows colors chars-per-pixel */
"32 32 5 1 ",
"  c #D82800",
". c #C84C0C",
"X c #FC9838",
"o c #80D010",
"O c #FCD8A8",
/* pixels */
"OOXXXXOOOO............OOOOXXXXOO",
"OOXXXXOOOO............OOOOXXXXOO",
"OOXXXXOOXX....XXXX....XXOOXXXXOO",
"OOXXXXOOXX....XXXX....XXOOXXXXOO",
"OOOOXXOOXX............XXOOXXOOOO",
"OOOOXXOOXX............XXOOXXOOOO",
"OOOOXX......ooXXXXoo......XXOOOO",
"OOOOXX......ooXXXXoo......XXOOOO",
"OOOOXXXX..XX..XXXX..XX..XXXXOOOO",
"OOOOXXXX..XX..XXXX..XX..XXXXOOOO",
"OOOOXXXX..XXXX....XXXX..XXXXOOOO",
"OOOOXXXX..XXXX....XXXX..XXXXOOOO",
"OOOO..XX....XX....XX....XX..OOOO",
"OOOO..XX....XX....XX....XX..OOOO",
"OOOO..XXXX    XXXX    XXXX..OOOO",
"OOOO..XXXX    XXXX    XXXX..OOOO",
"OOOO....XX            XX....OOOO",
"OOOO....XX            XX....OOOO",
"OOOO......OO        OO......OOOO",
"OOOO......OO        OO......OOOO",
"OOOO......  ..XXXX..  ......OOOO",
"OOOO......  ..XXXX..  ......OOOO",
"OOOO....                ....OOOO",
"OOOO....                ....OOOO",
"OOOO....                ....OOOO",
"OOOO....                ....OOOO",
"OOOO..                    ..OOOO",
"OOOO..                    ..OOOO",
"OOOO..                    ..OOOO",
"OOOO..                    ..OOOO",
"OOOO                        OOOO",
"OOOO                        OOOO"
};
