/* XPM */
static char *result[] = {
/* columns rows colors chars-per-pixel */
"32 32 4 1 ",
"  c black",
". c #C84C0C",
"X c #00A800",
"o c #FCD8A8",
/* pixels */
"ooooooooooXXooXX      oooooooooo",
"ooooooooooXXooXX      oooooooooo",
"ooooooXXooXXXXXXXXXX        oooo",
"ooooooXXooXXXXXXXXXX        oooo",
"ooooooXXXX  XXXXXXXXXX    XX  oo",
"ooooooXXXX  XXXXXXXXXX    XX  oo",
"ooooXXXXXXXXXXXXXXXXXXXX      oo",
"ooooXXXXXXXXXXXXXXXXXXXX      oo",
"ooooXXXXXXXXXX  XXXXXX  XX      ",
"ooooXXXXXXXXXX  XXXXXX  XX      ",
"ooXXXXXXXXXXXXXXXXXXXX        oo",
"ooXXXXXXXXXXXXXXXXXXXX        oo",
"ooXXXX  XXXXXXXXXXXXXXXX        ",
"ooXXXX  XXXXXXXXXXXXXXXX        ",
"ooooXXXXXXXXXXXXXX  XXXX    XX  ",
"ooooXXXXXXXXXXXXXX  XXXX    XX  ",
"ooXXXXXXXX  XXXXXXXXXXXX        ",
"ooXXXXXXXX  XXXXXXXXXXXX        ",
"ooXXXXXXXXXXXXXXXXXX          oo",
"ooXXXXXXXXXXXXXXXXXX          oo",
"ooXXXX  XXXXXXXXXXXXXX  XX    oo",
"ooXXXX  XXXXXXXXXXXXXX  XX    oo",
"ooooXXXXXXXXXXXX            oooo",
"ooooXXXXXXXXXXXX            oooo",
"ooooooooXXXX..XX..    XXoooooooo",
"ooooooooXXXX..XX..    XXoooooooo",
"oooooooooo  ..........          ",
"oooooooooo  ..........          ",
"oooooooo                      oo",
"oooooooo                      oo",
"oooooooooooooooooooooooooooooooo",
"oooooooooooooooooooooooooooooooo"
};
