/* XPM */
static char *result[] = {
/* columns rows colors chars-per-pixel */
"23 248 200 2 ",
"   c #231E1A",
".  c #26211D",
"X  c #2D2521",
"o  c #332B26",
"O  c #3A322C",
"+  c #37302A",
"@  c #3E3530",
"#  c #423A32",
"$  c #443B34",
"%  c #4D433B",
"&  c #54483F",
"*  c #51473E",
"=  c #5B4E44",
"-  c #564A41",
";  c #5E5046",
":  c #65564B",
">  c #66584E",
",  c #66564A",
"<  c #735C4D",
"1  c #7B5F4A",
"2  c #6B5C52",
"3  c #715F52",
"4  c #7E624D",
"5  c #6F6156",
"6  c #6F6158",
"7  c #726256",
"8  c #73645A",
"9  c #7B6A5D",
"0  c #7A6658",
"q  c #6D6D6D",
"w  c #7A6D63",
"e  c #7B706A",
"r  c #9A5519",
"t  c #9E5A1A",
"y  c #995517",
"u  c #A15D1B",
"i  c #AD5F1F",
"p  c #AD621F",
"a  c #A3601C",
"s  c #AE6220",
"d  c #B46C24",
"f  c #B16723",
"g  c #B97628",
"h  c #FF4C10",
"j  c #D57E1C",
"k  c #C26E26",
"l  c #C37127",
"z  c #C47229",
"x  c #C77A2A",
"c  c #C97D2C",
"v  c #D57E2E",
"b  c #CC7E32",
"n  c #9F5E42",
"m  c #A15E45",
"M  c #8A6B56",
"N  c #8E725C",
"B  c #92735E",
"V  c #84644D",
"C  c #A26145",
"Z  c #BA7658",
"A  c #806E61",
"S  c #847365",
"D  c #897566",
"F  c #857469",
"G  c #8A7668",
"H  c #8D7B6D",
"J  c #917C6C",
"K  c #977A66",
"L  c #877A70",
"P  c #927F71",
"I  c #D6821E",
"U  c #D8861F",
"Y  c #D78420",
"T  c #D98A21",
"R  c #D5812F",
"E  c #DD8B2F",
"W  c #CE8133",
"Q  c #D38332",
"!  c #DA8632",
"~  c #D38B36",
"^  c #DC8B33",
"/  c #D4863A",
"(  c #D58B3B",
")  c #DB8F38",
"_  c #DE9235",
"`  c #DB913A",
"'  c #D79038",
"]  c #CF812F",
"[  c #E28733",
"{  c #E38B34",
"}  c #E38F38",
"|  c #E19435",
" . c #E49339",
".. c #9D826E",
"X. c #958275",
"o. c #9C8472",
"O. c #958478",
"+. c #9D8B7E",
"@. c #9B8777",
"#. c #8C827B",
"$. c #A48C7C",
"%. c #A98E7B",
"&. c #A38774",
"*. c #AB917E",
"=. c #DB8F43",
"-. c #D79340",
";. c #DA9244",
":. c #DE9749",
">. c #DD994B",
",. c #E39542",
"<. c #E49A45",
"1. c #E1974B",
"2. c #E39B4C",
"3. c #E49E51",
"4. c #E99F54",
"5. c #E6A04A",
"6. c #E4A153",
"7. c #E9A055",
"8. c #EBA75B",
"9. c #EBA95D",
"0. c #8C8C8C",
"q. c #9E8C80",
"w. c #958C87",
"e. c #959595",
"r. c #9D9D9D",
"t. c #A39182",
"y. c #AB9483",
"u. c #A49589",
"i. c #AC9B8E",
"p. c #AA978A",
"a. c #B39C8C",
"s. c #B19686",
"d. c #AB9D91",
"f. c #A79A92",
"g. c #B29F90",
"h. c #A28F80",
"j. c #ACA299",
"k. c #B5A293",
"l. c #BBA495",
"z. c #B2A59A",
"x. c #BAA799",
"c. c #BBAA9D",
"v. c #B3AA9E",
"b. c #A9A9A9",
"n. c #A8A5A2",
"m. c #B3ADA3",
"M. c #BBAEA3",
"N. c #B6AEA8",
"B. c #BDB1A5",
"V. c #B5B2A9",
"C. c #BDB4AB",
"Z. c #BDB9AD",
"A. c #B5B1A6",
"S. c #B3B3B3",
"D. c #BEBCB3",
"F. c #BAB6B1",
"G. c #C0AD9F",
"H. c #C2AFA2",
"J. c #C2B1A5",
"K. c #C4B5AB",
"L. c #C4B8AE",
"P. c #C9B9AE",
"I. c #C2BCB4",
"U. c #CABDB4",
"Y. c #C3BFBA",
"T. c #C5BCB6",
"R. c #EFAE93",
"E. c #C4C1BC",
"W. c #CBC4BB",
"Q. c #CAC0B7",
"!. c #D0C6BE",
"~. c #CAC7C0",
"^. c #CBC9C4",
"/. c #CACACA",
"(. c #D0C7C0",
"). c #D2CDC5",
"_. c #D3CFC9",
"`. c #D8CBC3",
"'. c #D4D0C7",
"]. c #D4D3CE",
"[. c #DAD4CE",
"{. c #D7D6D1",
"}. c #DBD6D2",
"|. c #DAD8D4",
" X c #DEDDD9",
".X c #D7D8D3",
"XX c #E2DCD6",
"oX c #E2DDD9",
"OX c #E6DCD9",
"+X c #DFE2DB",
"@X c #E3E1DD",
"#X c #E9E1DE",
"$X c #E4E3E1",
"%X c #E9E7E5",
"&X c #E9E8E7",
"*X c #EBE7E8",
"=X c #ECEBE9",
"-X c #F5F2F2",
";X c #F0ECED",
":X c #000000",
/* pixels */
":X:X:X:X:X:X:XU.O.+.H ; q.:X:X:X:X:X:X:X:X:X:X",
":X:X:X:X:X:X:X2 > F 2 q.2 H +.z.: :X:X:X:X:X:X",
":X:X:X:X:X:X@.9 H q.+.q.7 +.$.+.z.> 2 :X:X:X:X",
":X:X:X:X:X:X2 L H q.q.7 8 e 6 q.7 P 7 8 O.:X:X",
":X:X:X:X:X:XE.D q.q.q.q.q.7 6 q.q.H f.7 f.i.:X",
":X:X:X:X:X:XE.E.G 7 O.O.O.O.7 5 5 H f.f.i.d.:X",
":X:X:X:X:XY.I.E.E.E.O.7 O.q.+.X.+.z.3 u.H S :X",
":X:X:X:X:XI.E.I.E.E.E.E.Y.f.X.9 2 q.7 G H I.:X",
":X:X:X:X:XE.E.E.E.T.E.E.E.E.E.E.Y.E.Y.E.E.E.:X",
":X:X:X:X:XY.Y.E.E.E.E.I.E.E.E.E.E.E.E.E.E.E.:X",
":X:X:X:X:X2 E.Y.I.E.E.E.E.E.T.I.I.I.I.I.E.:X:X",
":X:X:X:XY.E.3 E.E.E.I.E.E.E.E.E.E.E.E.E.E.:X:X",
":X:X:X:XE.E.E.w Y.E.E.Y.Y.I.I.I.I.L.I.T.E.:X:X",
":X:X:X:XE.I.E.E.E.2 E.E.E.E.E.E.E.E.E.E.E.:X:X",
":X:X:X:XE.E.I.E.E.E.E.E.I.I.I.T.E.I.I.E.:X:X:X",
":X:X:X:XY.E.E.E.T.Y.E.E.E.E.E.E.E.E.E.7 :X:X:X",
":X:X:X:XE.I.E.E.E.E.Y.T.I.Y.E.E.E.I.I.E.:X:X:X",
":X:X:X#.E.E.E.T.E.E.E.E.Y.E.E.G 9 5 5 T.:X:X:X",
":X:X:XE.I.E.E.E.E.Y.I.E.Y.E.E.E.E.E.2 :X:X:X:X",
":X:X:XY.E.D.E.Y.Y.Y.E.E.E.Y.I.Y.E.E.E.:X:X:X:X",
":X:X:XE.Y.Y.E.I.Y.Y.E.E.E.E.E.E.E.E.I.:X:X:X:X",
":X:X:XE.Y.Y.E.E.Y.E.I.Y.I.Y.I.3 2 S E.:X:X:X:X",
":X:X:XE.Y.Y.I.~.G Y.Y.Y.E.E.E.G E.E.I.:X:X:X:X",
":X:X:XE.~.Y.Y.Y.I.I.E.6 3 G E.A E.I.E.:X:X:X:X",
":X:X:XE.V.E.E.E.f.E.E.E.E.E.E.E.w 3 2 b.:X:X:X",
":X:XE.Y.~.Y.S.E.3 E.E.E.E.E.E.E.2 F 2 f.:X:X:X",
":X:X; D.Y.E.E.E.F.F.S.E.E.E.E.S.3 L 8 m.:X:X:X",
":X:X7 L E.Y.E.E.E.E.E.Y.E.E.E.E.3 G e :X:X:X:X",
":X:XE.E.Y.E.I.I.N.E.E.Y.E.E.~.D.E.H w.:X:X:X:X",
":X:XE.T.E.D.E.Y.Y.Y.E.Y.Y.D.Y.~.E.E.:X:X:X:X:X",
":X:XE.G 8 I.u.F 8 L E.E.E.E.Y.Y.Y.~.:X:X:X:X:X",
":X:X8 E.G E.Y.I.D.Y.E.E.Y.Y.Y.D.Y.|.:X:X:X:X:X",
":X:XE.T.G E.E.E.E.E.E.E.E.E.E.E.E.:X:X:X:X:X:X",
":X:XE.E.G I.E.E.E.E.E.Y.E.E.E.T.E.:X:X:X:X:X:X",
":X:XI.E.H E.E.Y.I.I.I.I.I.I.E.E.E.:X:X:X:X:X:X",
":XN.E.I.w.E.E.E.E.E.E.E.E.E.E.E.T.:X:X:X:X:X:X",
":Xn.2 2 E.D.I.E.Y.E.E.E.E.E.I.Y.E.:X:X:X:X:X:X",
":Xm.F 7 E.E.E.E.E.E.E.E.E.E.E.E.I.:X:X:X:X:X:X",
":Xm.w 8 I.E.E.E.E.E.E.E.E.E.E.I.E.:X:X:X:X:X:X",
":XE.E.7 Y.E.I.I.T.Y.Y.I.I.I.E.E.Y.:X:X:X:X:X:X",
":XE.T.5 E.E.5 5 E.E.Y.G Y.Y.E.E.E.:X:X:X:X:X:X",
":XE.E.; I.E.E.E.E.E.E.E.~.Y.D.~.E.:X:X:X:X:X:X",
":XE.E.D E.E.E.I.I.I.I.I.Y.Y.Y.Y.E.:X:X:X:X:X:X",
":XE.E.E.E.E.E.E.E.E.E.E.E.Y.F.Y.E.:X:X:X:X:X:X",
":XE.8 E.I.I.E.E.E.E.E.E.Y.G G E.:X:X:X:X:X:X:X",
":XE.6 E.G E.E.E.E.E.E.E.2 5 F E.:X:X:X:X:X:X:X",
":XE.5 I.E.E.E.E.E.6 E.E.G 2 S 7 :X:X:X:X:X:X:X",
":XE.E.E.E.L.I.I.2 7 8 j.T.E.E.E.:X:X:X:X:X:X:X",
":XE.I.E.E.E.E.G K.Y.E.E.E.E.E.Y.:X:X:X:X:X:X:X",
":XE.E.D.I.Y.8 E.E.Y.E.E.Y.I.F K.:X:X:X:X:X:X:X",
":XT.E.E.D.~.~.D.I.I.I.G K E.E.Y.:X:X:X:X:X:X:X",
"R.E.T.E.x.Y.E.Y.E.E.Y.h Y.Y.I.E.:X:X:X:X:X:X:X",
"h ~.E.E.I.D.Z Z l.E.E.I.k.E.E.E.:X:X:X:X:X:X:X",
"D.Z E.E.Y.~.Y.Y.E.E.Y.Z E.E.E.T.:X:X:X:X:X:X:X",
"@ E.Y.D.~.Y.Y.E.E.E.C E.E.I.E.E.:X:X:X:X:X:X:X",
"%   E.m Y.Y.I.I.I.I.n E.E.E.E.. :X:X:X:X:X:X:X",
"= @ o   Y.Z m E.E.E.. E.. . T.# :X:X:X:X:X:X:X",
"> - $ # + X E.E.  O O   o O O = :X:X:X:X:X:X:X",
"2 > = - & # X + # % # O O % % , :X:X:X:X:X:X:X",
"0 8 2 2 < & $ % & = & % % , , < :X:X:X:X:X:X:X",
"M S A M w : - ; , < > 2 > 8 0 4 :X:X:X:X:X:X:X",
"D H P J D 3 < < < 0 M G H J M V :X:X:X:X:X:X:X",
"G @.$.y.K M V V V B K *.a.%.K M :X:X:X:X:X:X:X",
"O.+.y.a.y.K M M M K *.a.l.y.K N :X:X:X:X:X:X:X",
"@.t.i.a.*.....B B &.*.l.x.y.o.N :X:X:X:X:X:X:X",
"+.u.g.l.a.&...B B %.a.G.G.g.@...:X:X:X:X:X:X:X",
"t.f.g.c.l.*.o.....*.l.c.J.k.$...:X:X:X:X:X:X:X",
"+.j.x.c.l.*.&.o.&.*.a.x.J.l.t.@.:X:X:X:X:X:X:X",
"f.k.v.B.c.a.*.+.*.a.x.B.K.c.y.+.:X:X:X:X:X:X:X",
"d.z.B.H.B.g.y.*.*.k.c.K.J.l.i.$.:X:X:X:X:X:X:X",
"j.m.B.L.J.x.g.s.p.l.G.Q.Q.M.g.+.:X:X:X:X:X:X:X",
"z.A.J.U.L.c.k.i.i.x.J.K.Q.J.d.p.:X:X:X:X:X:X:X",
"j.B.L.U.P.x.g.g.a.x.J.P.Q.K.z.p.:X:X:X:X:X:X:X",
"m.M.U.!.U.K.M.z.z.M.K.Q.W.L.z.i.:X:X:X:X:X:X:X",
"M.Z.Y.U.U.K.M.c.v.K.U.Q.Q.J.v.j.:X:X:X:X:X:X:X",
"C.I.W.(.(.L.K.M.M.K.U.!.!.U.A.k.:X:X:X:X:X:X:X",
"L.Y.U.`.(.U.L.J.B.I.Q.!.!.I.m.z.:X:X:X:X:X:X:X",
"C.Y.).`.`.U.K.C.B.K.U.W.`.Y.C.v.:X:X:X:X:X:X:X",
"D.T.)._._.(.Y.I.L.U.W.`.).E.M.m.:X:X:X:X:X:X:X",
"Y.~._.`.`.(.U.U.I.W.W.!.!.W.Z.m.:X:X:X:X:X:X:X",
"Y.^._.}.[.`.(.E.T.~.(._._.!.L.z.:X:X:X:X:X:X:X",
"W.).`.}.}._.(.W.U.(._._._.Y.I.N.:X:X:X:X:X:X:X",
"~._.].}.|.[.`.U.Y.U.(._.].^.D.V.:X:X:X:X:X:X:X",
"^.^.}.oX X}._.^.).)._._.[.^.L.V.:X:X:X:X:X:X:X",
").].|.oX}.`._./.^.^.'.).`.^.T.V.:X:X:X:X:X:X:X",
"_._.|.@XOXoX}._.).).].].].^.E.A.:X:X:X:X:X:X:X",
"].}.}.oX%XoX|._.].].].].{.W.T.V.:X:X:X:X:X:X:X",
"{.|.@X%X$X@X}._.!.).].].{.^.E.V.:X:X:X:X:X:X:X",
"]. X X%X*XoX X.X].].].{.].^.Z.V.:X:X:X:X:X:X:X",
"]. X@X*X#XoX}.{.'.).).^.].^.D.V.:X:X:X:X:X:X:X",
"[.[.$X*X*X$X X|.].].].].{.^.D.V.:X:X:X:X:X:X:X",
"{. X@X#X=X$X X.X{.].].{._.W.D.V.:X:X:X:X:X:X:X",
"{. X@X*X=X$X X|.].].].].{.^.D.b.:X:X:X:X:X:X:X",
"{. XXX%X=X$X X|.].].].].].^.Z.A.:X:X:X:X:X:X:X",
"'. X$X&X#XoX}.].).).'.).].^.D.V.:X:X:X:X:X:X:X",
"{.[.$X*X=X@X+X.X].].].].].^.D.V.:X:X:X:X:X:X:X",
"{. X$X@X#X$XoX|.].].{.].).E.D.V.:X:X:X:X:X:X:X",
"{. X$X*X*X$X X|.].].].].].^.D.A.:X:X:X:X:X:X:X",
"{. X X&X=X$X X|.].].].].].E.D.V.:X:X:X:X:X:X:X",
"'. X@X%X=XOX}.].).).).^.].^.D.V.:X:X:X:X:X:X:X",
"{.[.$X*X=X$XoX|.].].].].{.^.Z.A.:X:X:X:X:X:X:X",
"{. X$X@X#X$X X|.{.].]._.^.^.D.V.:X:X:X:X:X:X:X",
"{. X$X*X=X$X X|.].].].].].^.Y.m.:X:X:X:X:X:X:X",
"{. XXX*X*X$X X|.].].].].{.W.D.V.:X:X:X:X:X:X:X",
"_. X$X*X=XOX}.].).).).].].^.D.V.:X:X:X:X:X:X:X",
"{.{.@X*X=X$XoX|.].].].].].^.Z.V.:X:X:X:X:X:X:X",
"_. X$X*X$XOX X|.].].'.).^.^.D.V.:X:X:X:X:X:X:X",
"[. X$X%X*X$X X|.].{.].].].^.Y.A.:X:X:X:X:X:X:X",
"{. XXX@X=X$XoX|.].].].].].W.D.V.:X:X:X:X:X:X:X",
"]. X$X*X=X$X{.[._.^.].].].^.D.V.:X:X:X:X:X:X:X",
"{. XoX*X=X#X X|.].].].].].^.Z.A.:X:X:X:X:X:X:X",
"_. X@X%X%XXX}.|.].].).).^.^.E.A.:X:X:X:X:X:X:X",
"{.{.$X=X*X$X X|.].].].].].^.D.V.:X:X:X:X:X:X:X",
"{. X@X@X=X%X X|.].].].]._.W.D.V.:X:X:X:X:X:X:X",
"{. X@X*X*X$X X|.].].].].].^.D.m.:X:X:X:X:X:X:X",
"{. XXX&X=X$X X|.].].].].].^.D.V.:X:X:X:X:X:X:X",
"_. X@X*X%XoX|.].'.)./.'.].^.D.V.:X:X:X:X:X:X:X",
"[.}.$X*X&X$X X|.].].].].].^.D.V.:X:X:X:X:X:X:X",
"{. X$X#X&X$X+X.X].].].].).E.D.V.:X:X:X:X:X:X:X",
"{. X$X%X&X$X+X.X].].].]..X^.D.m.:X:X:X:X:X:X:X",
"{. XXX*X*X$X X|.].].].].].^.Z.V.:X:X:X:X:X:X:X",
"). X$X*X*XoX}.].).).)._.].^.D.V.:X:X:X:X:X:X:X",
"{.[.$X*X=X$X X|.].].].].].^.Z.V.:X:X:X:X:X:X:X",
"{. X$X@X%X@X X|.].{.].).^.^.D.V.:X:X:X:X:X:X:X",
"{.|.$X*X&X@X@X|.].{.].].].^.D.m.:X:X:X:X:X:X:X",
"{. XoX*X=X@X X|.].].].].].W.D.V.:X:X:X:X:X:X:X",
"]. X$X%X*XoX|.].^.'.^.].].^.E.A.:X:X:X:X:X:X:X",
"{.[.$X&X=X$XoX|.].].{.].].^.Z.V.:X:X:X:X:X:X:X",
"]. X@X@X$XOX X|.{.].].^.).^.T.V.:X:X:X:X:X:X:X",
"|. X$X*X=X$X X|.{.].].].].^.D.m.:X:X:X:X:X:X:X",
"{. XXX#X=X$X X|._.].].].].W.D.V.:X:X:X:X:X:X:X",
"]. X$X%X=X$X}.]._.^.{.].].^.D.V.:X:X:X:X:X:X:X",
"{.}.@X*X=X$X X|.].].].].].^.Z.V.:X:X:X:X:X:X:X",
"]. X@X*X#XOX X|.].]._.)._.^.D.V.:X:X:X:X:X:X:X",
"].[.$X=X=X$XoX|.].].].].{.^.D.V.:X:X:X:X:X:X:X",
"{. X@XOX=X@X X|.].].].]._.E.D.V.:X:X:X:X:X:X:X",
"{. X$X*X*X%X X{./..X].].].^.D.V.:X:X:X:X:X:X:X",
"{. XoX*X*X$X X|.].].].].].^.F.V.:X:X:X:X:X:X:X",
"_. X$X%X@XoX{.[.).).).'.].^.D.V.:X:X:X:X:X:X:X",
"{.[.$X=X=X$X X|.].].].].].^.D.V.:X:X:X:X:X:X:X",
"{. X@XOX%X@X+X|.].].{.].).E.D.V.:X:X:X:X:X:X:X",
"{. X$X*X=X$X X|.].].].].].^.D.A.:X:X:X:X:X:X:X",
"{. XoX*X=X@X+X.X].].].].].^.Z.V.:X:X:X:X:X:X:X",
"). X$X*X%X@X{.'.'.'.^.).].^.D.V.:X:X:X:X:X:X:X",
"{.{.$X*X=X$XoX|.].].].].].^.D.V.:X:X:X:X:X:X:X",
"{.oX$XOX$X$X X|.].].]._.^.^.T.V.:X:X:X:X:X:X:X",
"{. X@X*X=X$X X|.].].].].{.^.D.m.:X:X:X:X:X:X:X",
"{. X X%X=X$X X|.{.].].].].E.D.V.:X:X:X:X:X:X:X",
"].oX$X*X*X@X}.[.).^.'.].{.^.D.V.:X:X:X:X:X:X:X",
"[.[.$X*X*X$X X|.].].].{.].^.D.V.:X:X:X:X:X:X:X",
"{. X$XOX$X$X X|.].].].^.^.^.D.V.:X:X:X:X:X:X:X",
"{. X$X*X=X$X X.X].{.].].{.^.D.m.:X:X:X:X:X:X:X",
"{. XXX@X=X$XoX{.].].].]./.W.D.V.:X:X:X:X:X:X:X",
"_. X@X=X=X$X}.]._.).].].{.^.D.V.:X:X:X:X:X:X:X",
"{.}.@X*X=X$X X|.].].].].].^.Z.V.:X:X:X:X:X:X:X",
"[. X$X*X#XXX X|.].].).)._.^.D.V.:X:X:X:X:X:X:X",
"{.[.$X*X*X$X X|.].].].{.].^.D.m.:X:X:X:X:X:X:X",
"{. XXX#X*X$X X|.].].].].].E.D.V.:X:X:X:X:X:X:X",
"@X X$X*X=X$X X].).].'.].].^.D.D.:X:X:X:X:X:X:X",
"+X@X=X;X&X$X X|.].].].].].].~.D.:X:X:X:X:X:X:X",
"@X@X=X-X-X=X&X@X X X X X+X].W.D.:X:X:X:X:X:X:X",
"@X&X=X-X-X=X&X@X X|. X X X].W.D.:X:X:X:X:X:X:X",
"+X$X=X-X-X-X&X@X X+X X X X].^.D.:X:X:X:X:X:X:X",
"@X$X=X-X-X=X&X@X X|. X X X].W.D.:X:X:X:X:X:X:X",
"@X%X=X-X-X=X=X@X+X X|.+X.X].^.Z.:X:X:X:X:X:X:X",
"@X+X=X-X-X=X&X@X+X X@X|.+X].^.D.:X:X:X:X:X:X:X",
"@X$X=X-X-X-X#X@X|.@X|.@X X].W.D.:X:X:X:X:X:X:X",
"@X%X=X-X-X=X&X@XXX|.@X|.+X].W.D.:X:X:X:X:X:X:X",
"@X+X=X-X-X-X&X+X X X X X X'.^.D.:X:X:X:X:X:X:X",
"w.%X=X-X-X=X&X+X X X X X X].W.D.:X:X:X:X:X:X:X",
"0.F.=X-X-X;X&X+X X X X|. X].e.q :X:X:X:X:X:X:X",
"0.F.+X-X].b.b.+X X].r.e.n.S.e.q :X:X:X:X:X:X:X",
"@XS.+X-X/.b.e.S./.S.e.e.n.S.e.D.:X:X:X:X:X:X:X",
"+X$X=X-X/.b.e.S.^.S.r.e.r.].W.D.:X:X:X:X:X:X:X",
"Y %X=X-X-X=X&X+X X+X X X X{.^.r :X:X:X:X:X:X:X",
"U E >.-X-X;X&X+X X X X X Xz s u :X:X:X:X:X:X:X",
"U _ :.9.3.;./ W Q ( ^ } ^ l d u :X:X:X:X:X:X:X",
"U E  .7.1.;./ b Q ! | } ^ c d t :X:X:X:X:X:X:X",
"T E 5.9.1.=./ b ~ ' ^  .~ c s t :X:X:X:X:X:X:X",
"T _ 5.9.3.=./ b v ( _  .R ] s u :X:X:X:X:X:X:X",
"U ^ <.8.6.=.-.Q Q ) | [ v k d u :X:X:X:X:X:X:X",
"I _ ,.9.6.>.-.~ ( ` ^  .v k d t :X:X:X:X:X:X:X",
"I E  .7.:.=./ b Q ~ _  .E x d t :X:X:X:X:X:X:X",
"I E ,.7.6.>./ b Q ! ^ } R c d y :X:X:X:X:X:X:X",
"U E 2.7.1.;.( W Q ( ^ } ^ k f u :X:X:X:X:X:X:X",
"I | ,.7.:.=.-.~ ~ ' ! { ! z s r :X:X:X:X:X:X:X",
"U _ 2.8.1.;.-.~ ( / !  .^ z p u :X:X:X:X:X:X:X",
"U _ <.8.4.;.-.~ Q _ |  .^ c p t :X:X:X:X:X:X:X",
"I E 2.7.6.;.-./ Q _ )  .~ x d y :X:X:X:X:X:X:X",
"I E  .7.1.>.-.~ W ! ! } ! x d u :X:X:X:X:X:X:X",
"U { <.4.>.>.-.~ Q / { { ^ c d r :X:X:X:X:X:X:X",
"U ^ ,.4.3.;.' W Q ! ^ { v c d y :X:X:X:X:X:X:X",
"U _ ,.7.6.=.-.W Q / | { v k d t :X:X:X:X:X:X:X",
"I E 5.9.3.1./ W ~ ) ! { Q x s r :X:X:X:X:X:X:X",
"I E ,.9.1.;./ ( Q ) ! { ^ k s a :X:X:X:X:X:X:X",
"I E  .7.2.;.-.~ Q ` ^ { ! k d t :X:X:X:X:X:X:X",
"j ^ 2.8.1.;.-.~ ~ ^ ^  .v k i y :X:X:X:X:X:X:X",
"U E <.4.6.>.( W ( ' _  .v k i y :X:X:X:X:X:X:X",
"j ^ ,.4.3.;.( W Q ( [ { v k d y :X:X:X:X:X:X:X",
"j E <.9.:.;.-.W Q ! ^ { v x i r :X:X:X:X:X:X:X",
"j | ,.9.:.=.=.~ W ! ` { R k d u :X:X:X:X:X:X:X",
"j E ,.7.6.;./ ~ W ) _ { R x s r :X:X:X:X:X:X:X",
"I | <.7.3.=./ ~ ( ` _  .v d p r :X:X:X:X:X:X:X",
"I ^ <.7.3.;.;.b ( ` ^  .^ l f r :X:X:X:X:X:X:X",
"U E <.7.2.;.~ b W ! ^ } ! k d t :X:X:X:X:X:X:X",
"I |  .9.>.>.-.~ ~ ! } { R x d t :X:X:X:X:X:X:X",
"U _ 5.9.6.;.-.~ ~ ) ^  .^ c p u :X:X:X:X:X:X:X",
"U _ 5.9.1.;./ W W ' `  .R x p r :X:X:X:X:X:X:X",
"I ^ ,.4.6.=./ W b ) )  .R c d u :X:X:X:X:X:X:X",
"I E <.4.6.;./ b Q ) | { v l d u :X:X:X:X:X:X:X",
"U E 2.8.3.=./ b Q ) | [ v g d t :X:X:X:X:X:X:X",
"I E <.4.1.=./ ~ ~ ) ^  .v k d r :X:X:X:X:X:X:X",
"U E 2.7.:.=./ W ( ( ^  .! l d u :X:X:X:X:X:X:X",
"T E <.9.4.:./ b Q ! ! { ! z d r :X:X:X:X:X:X:X",
"U E ,.9.1.=.-.W Q _ !  .! z d u :X:X:X:X:X:X:X",
"U { ,.7.3.;.-.Q ~ ) !  .v z s t :X:X:X:X:X:X:X",
"U E  .7.1.;./ ~ ~ _ | } v x s u :X:X:X:X:X:X:X",
"U | 5.7.1.>.( ~ ~ ! !  .v k f u :X:X:X:X:X:X:X",
"U E ,.7.1.>.;.W ~ ! {  .v x i u :X:X:X:X:X:X:X",
"T E ,.9.3.;.` W Q ( ^  .v z d r :X:X:X:X:X:X:X",
"T E ,.8.1.=.-.b ' ` ^  .Q z f u :X:X:X:X:X:X:X",
"j E ,.7.1.=./ b ' ' ^  .^ z s r :X:X:X:X:X:X:X",
"I _ ,.9.>.>.;.W ~ Q ! { R x s u :X:X:X:X:X:X:X",
"U _ 5.9.6.>.;.~ v ! ^ { ^ k s t :X:X:X:X:X:X:X",
"I E <.7.3.;.;.W ( ) ` [ R x d y :X:X:X:X:X:X:X",
"Y _ ,.7.1.;.~ b W ! !  .E z s u :X:X:X:X:X:X:X",
"U E 5.7.2.;.( W ~ ' } [ ^ k i r :X:X:X:X:X:X:X",
"U | 5.9.6.>./ W Q ' ` { v k d u :X:X:X:X:X:X:X",
"U | 5.9.5.>.-.~ Q ! ! { ! k p u :X:X:X:X:X:X:X",
"T E ,.7.6.>.-.~ W / } { v c d r :X:X:X:X:X:X:X",
"T | <.7.>.;.( ~ ~ ' _  .! k d r :X:X:X:X:X:X:X",
"Y E 5.7.1.;./ W ( _ }  .! z d u :X:X:X:X:X:X:X",
"U E ,.4.6.:./ b ) / ! [ v z d y :X:X:X:X:X:X:X",
"I { 5.8.6.>./ ~ ~ ' ! { v z i u :X:X:X:X:X:X:X",
"Y _ <.8.3.>.-.b ~ ! ! [ v x d y :X:X:X:X:X:X:X",
"U _ ,.7.1.=.-.~ ) ) !  .v k d y :X:X:X:X:X:X:X",
"U _ ,.7.1.;.;.~ ^ ` ! { v x d r :X:X:X:X:X:X:X",
"U E ,.9.1.>.-.b R R ! } ^ k f r :X:X:X:X:X:X:X",
"U _  .8.1.;.-.~ ~ ' ^ { ! z s r :X:X:X:X:X:X:X",
"T | ,.6.6.;.-.~ ~ ! `  .v z s r :X:X:X:X:X:X:X",
"U ^ ,.7.1.>.-.W W ~ |  .! z p u :X:X:X:X:X:X:X",
"j E  .9.6.2./ W Q ! ! } E k f u :X:X:X:X:X:X:X",
"I | 5.7.>.>./ ~ ~ '  .} ! x p t :X:X:X:X:X:X:X",
"I _ 2.9.6.>./ W Q ! |  .v x d r :X:X:X:X:X:X:X",
":X` ,.8.6.=./ b R ! ~ { v x s t :X:X:X:X:X:X:X",
":X:X .7.1.;.;.W ] / ^  .v k g :X:X:X:X:X:X:X:X",
":X:X:X:X:X;./ W Q ! ^ :X:X:X:X:X:X:X:X:X:X:X:X",
":X:X:X:X:X:X:X:X:X:X:X:X:X:X:X:X:X:X:X:X:X:X:X"
};
