/* XPM */
static char *result[] = {
/* columns rows colors chars-per-pixel */
"23 248 190 2 ",
"   c #1A140F",
".  c #241912",
"X  c #2B1D13",
"o  c #231610",
"O  c #362215",
"+  c #3A2415",
"@  c #3E2818",
"#  c #472D1B",
"$  c #4D321E",
"%  c #563824",
"&  c #5D402B",
"*  c #51443B",
"=  c #60412D",
"-  c #694B38",
";  c #6D513D",
":  c #5E5246",
">  c #5D5149",
",  c #555555",
"<  c #755845",
"1  c #775845",
"2  c #675951",
"3  c #695A51",
"4  c #615048",
"5  c #726359",
"6  c #77685C",
"7  c #7D6D60",
"8  c gray46",
"9  c #8C4D15",
"0  c #8E5016",
"q  c #935517",
"w  c #935618",
"e  c #9D561A",
"r  c #9E581B",
"t  c #955818",
"y  c #A25D1D",
"u  c #AC5E1E",
"i  c #A5611D",
"p  c #AC611E",
"a  c #9E5238",
"s  c #AC6320",
"d  c #B06521",
"f  c #BC6724",
"g  c #B36B23",
"h  c #BD6A25",
"j  c #B97328",
"k  c #FF4D0E",
"l  c #FE4E11",
"z  c #F55219",
"x  c #E65E2D",
"c  c #C27429",
"v  c #CC762A",
"b  c #C4782A",
"n  c #CD7A2C",
"m  c #C07227",
"M  c #D07F2E",
"N  c #CC7E31",
"B  c #D86137",
"V  c #EA6232",
"C  c #945D49",
"Z  c #836B5C",
"A  c #8E6853",
"S  c #976C59",
"D  c #906753",
"F  c #87614C",
"G  c #A2745E",
"H  c #B16B4F",
"J  c #847366",
"K  c #8E7C6E",
"L  c #887468",
"P  c #917C6D",
"I  c #9E7865",
"U  c #8F7B70",
"Y  c #957D71",
"T  c #A17661",
"R  c #A87965",
"E  c #B87C62",
"W  c #CE6D47",
"Q  c #CF812F",
"!  c #D78321",
"~  c #D98422",
"^  c #DB8D26",
"/  c #D1812F",
"(  c #DA822F",
")  c #DD8B2F",
"_  c #DC9028",
"`  c #CE8131",
"'  c #CF8A36",
"]  c #D28433",
"[  c #DB8532",
"{  c #D38A36",
"}  c #DC8C34",
"|  c #D28538",
" . c #D68C3D",
".. c #D98E3C",
"X. c #D79036",
"o. c #DE9235",
"O. c #D4903D",
"+. c #DC9139",
"@. c #E28633",
"#. c #E28B34",
"$. c #E19336",
"%. c #E2933B",
"&. c #E09836",
"*. c #938275",
"=. c #9A8375",
"-. c #968478",
";. c #9D8B7E",
":. c #AB846F",
">. c #A7816A",
",. c #B7917D",
"<. c #AE8C7B",
"1. c #D68D40",
"2. c #DA8D42",
"3. c #DC9345",
"4. c #DE9A4B",
"5. c #E39540",
"6. c #E59C45",
"7. c #E2964B",
"8. c #E49A4C",
"9. c #E89C4C",
"0. c #E69E52",
"q. c #E89F52",
"w. c #E6A052",
"e. c #E9A354",
"r. c #E9A65A",
"t. c #EAA85C",
"y. c #C68368",
"u. c #ED967A",
"i. c #9E8C80",
"p. c #949494",
"a. c #9D9D9D",
"s. c #8B8C87",
"d. c #AF8F82",
"f. c #A39285",
"g. c #A49489",
"h. c #AA9B8E",
"j. c #A5998D",
"k. c #BD9685",
"l. c #AA9B91",
"z. c #A69E93",
"x. c #ACA69B",
"c. c #ACA99E",
"v. c #A8A29B",
"b. c #B2A399",
"n. c #B2A59A",
"m. c #ADABA2",
"M. c #ABABAB",
"N. c #B4AEA4",
"B. c #B9ACA4",
"V. c #B4B0A5",
"C. c #B7B4AB",
"Z. c #B9B5AC",
"A. c #BCB8AD",
"S. c #B4B4B4",
"D. c #BDBDB5",
"F. c #B9B9B9",
"G. c #C2B7AE",
"H. c #C3BEB5",
"J. c #C9BCB3",
"K. c #C4C0B7",
"L. c #C7C5BE",
"P. c #C9C5BE",
"I. c #CCC8BF",
"U. c #C8C1B7",
"Y. c #C6C5C0",
"T. c #C9C5C0",
"R. c #CDC9C2",
"E. c #CFCEC9",
"W. c #D2CDC5",
"Q. c #D1CFC9",
"!. c #DACFC9",
"~. c #D4D3CE",
"^. c #DAD5CE",
"/. c #D7D6D2",
"(. c #D8D7D3",
"). c #D7D8D3",
"_. c #DCDBD6",
"`. c #DDDCD8",
"'. c #E1DAD5",
"]. c #E5DEDB",
"[. c #EEDBCA",
"{. c #E1E0DD",
"}. c #EAE1DE",
"|. c #E6E5E3",
" X c #E8E4E3",
".X c #ECE8E7",
"XX c #ECE9EA",
"oX c #F1EFED",
"OX c #F5F3F3",
"+X c #000000",
/* pixels */
"+X+X+X+X+X+X+X+X+X+X+X+X+X+X+X+X+X+X+X+X+X+X+X",
"+X+X+X+X+X> 4 ;.a 4 i.n.l W 3 3 > u.+X+X+X+X+X",
"+X+X+X;.: i.;.i.x i.i.i.b.i.5 ;.5 5 5 l.+X+X+X",
"+X+XK 3 l i.;.i.i.i.i.Y ;.g.i.l.l.5 z.l.*.+X+X",
"+X+Xl K x i.i.i.5 5 5 i.x ;.W 2 V b.l L y.+X+X",
"+X-.> P K ;.5 5 ;.5 C 5 5 N.N.B.l.l l P K +X+X",
"+X-.> i.i.;.i.-.f.R =.;.;.N.B.l l.k l H h.+X+X",
"+X-.-.h.h.b.4 3 *.-.;.E B ;.2 k ;.=.Y 2 P +X+X",
"+X5 l.l.b.G =.;.L L J L J K P 3 f.j.5 K 5 J +X",
"+X5 h.h.P b.1 z ;.;.Z K U i.I 3 6 5 6 K l.J +X",
"+X;.i.i.,.H 5 H ,.l ,.k.> T T > > :.K K d.L +X",
"+X. n.i.L G I z D D Y A k.I 5 > :.:.h.v.. O +X",
"+X$ X b.2 J I 6 3   S S S >.K F 3 x.b.h.# % +X",
"+XZ % O o X 7 J o O o 2 3 U U K > X * O ; L +X",
"+XB.P 1 < & # @ # $ # X   + X g.@ - % = ;.z.+X",
"+XR.H.B.h.<.1 & - < < % - < ; % Z f.g.l.c.N.+X",
"+X(./.!.W.U.b.P =.=.=.P =.f.g.g.n.A.D.C.C.m.+X",
"+X(._.{.].'.!.J.G.G.G.Z.A.J.J.K.I.E.L.H.C.x.+X",
"+X(.(.]. XXX.X|.'._.~.~.~.~.~.~.~.E.L.D.V.m.+X",
"+X(.`.].]. X.X X{._.).~.~.~.~.~.~.I.H.D.C.m.+X",
"+X~.`.].|.XX.X X{._.^.W.~.~.~.~.~.E.L.D.C.m.+X",
"+X(.`._.|.XX.X X{._.).~.~.~.~.~.~.E.L.A.C.m.+X",
"+X(.`.].|.XX}.]._.(.~.~.W.W.W.E.W.E.Y.D.C.x.+X",
"+X(.(.{.|.XX.X}.{._._.~.~.~.~.~.~.E.Y.D.N.m.+X",
"+X(.`.{.]. XXX X{._.).~.~.~.~.~.W.R.P.D.Z.m.+X",
"+X~._.{.|.XX.X X{._.).~.~.~.~.~./.E.Y.D.C.m.+X",
"+X(.`.'. XXX.X X]._./.~.~.~.~.~.~.E.K.A.C.m.+X",
"+X/.`.].|.XX}.]._.^.~.E.W.E.W.W.Q.E.Y.D.C.x.+X",
"+X(.(.{.|.XX.X X{._.).~.Q./.~./.~.E.T.D.V.m.+X",
"+X/.`.{.]. X X X{._./././.~.~.Q.W.R.L.D.C.m.+X",
"+X(.`.]. XXX.X X{._./.~.~.~.~.~./.E.Y.D.V.m.+X",
"+X(.`.'.].XXXX X]._./.Q./.~.~.~.~.W.H.D.C.m.+X",
"+X~.`.]. XXX X].'.^.~.W.W.W.W.W.~.E.Y.D.C.x.+X",
"+X(.(.|. XXXXX X{._././.~.~.~.~.~.E.Y.A.C.m.+X",
"+X/._.]. X X].|.{._.).~.~.~.~.!.W.R.Y.D.C.c.+X",
"+X/._.|. XoXXX X{._.).~.~.~.~.~./.E.Y.D.V.m.+X",
"+X/.`.`.].XXXX X{._.).~.~.~.~.~.~.E.K.D.C.m.+X",
"+X~._.{.|.XXXX].'.^.~.W.E.W.W.~.~.E.Y.D.C.m.+X",
"+X(.(.}.|.XX.X.X{._./.~.~.~.~.~.~.E.Y.Z.C.m.+X",
"+X(._.{.|. X].].{._./.~.~.~.~.W.W.R.T.D.C.x.+X",
"+X/.`.{.|.XX.X X{._.).~.~.~.~.~.~.E.Y.D.N.m.+X",
"+X)._.].].XX.X X{._.).~.~.~.~.~.~.R.H.D.C.m.+X",
"+X~.`.].|.XXXX|.'.^.~.W.W.W.~.~.~.E.Y.D.C.m.+X",
"+X(.(.'.|.XX.X X{._.^.~.~.~.~.~.~.E.T.A.C.m.+X",
"+X(.`.|. X}.}.].]._.).~.~.~.W.W.W.E.Y.D.C.x.+X",
"+X(.(.`. XXX.X X{._.(.~.~.~.~.~.~.E.Y.D.N.m.+X",
"+X(.`.{.]. X.X|.{._.(.~.~.~.~.~.~.R.H.D.C.m.+X",
"+X~.`.{.|.XX.X|.{.^.~.W.E.~.~.~.~.E.T.D.C.m.+X",
"+X(._._.|.XXXX X{._.^.~.~.~.~.~.~.E.L.A.C.m.+X",
"+X(._.|. X X X].'._.).~.~.~.W.W.W.E.Y.D.C.c.+X",
"+X(.^.`. XXX.X X{._.).~.~.~.~.~.~.E.L.D.N.m.+X",
"+X(.`.|.].}..X X{._.).~.~.~.~.~.~.R.K.D.C.m.+X",
"+XQ.`.]. XXXXX X{._.^.~.~.~.~.~.~.E.Y.D.C.m.+X",
"+X/.`.]. XXX X X{._.).~.~.~./.~.~.E.K.A.C.m.+X",
"+X_.`.{. XXX X]._.^.~.W.E.W.W.W.W.E.Y.D.C.x.+X",
"+X/.(.{.|.XX.X X{._.).~.~.~.~.~./.E.L.D.N.m.+X",
"+X(.`.].].}.XX X]._././.~.~.~.~.W.T.P.D.C.m.+X",
"+X~._.{.|.XX.X X]._./.~.~.~.~.~.~.E.Y.D.C.m.+X",
"+X/._.'. XXX.X X{._././.~.~.~.~.~.E.K.A.C.m.+X",
"+X/._.|.|.XX}.].'.~.!.E.E.W.W.W.~.E.Y.D.C.x.+X",
"+X(.(.|.|.XX.X X{._./.~.~.~.~.~.~.E.Y.H.V.m.+X",
"+X(._.{.].{. X X{._.).~.~.~.~.~.W.R.Y.D.C.c.+X",
"+X(.`.]. XXXXX X{._.).~.~.~.~.~.~.E.Y.D.N.m.+X",
"+X(.`.'.].XXXX X{._.).~.~.~.~.~.~.E.K.D.Z.m.+X",
"+XQ.`.{. XXXXX].'.^.~.W.W.W.W.~.~.E.Y.D.C.c.+X",
"+X(.(.{. XXXXX X]._.(.~.~.~.~./.~.E.L.A.C.m.+X",
"+X(.`.].|.}.]. X`.`./././.~.~.W.W.R.Y.D.C.c.+X",
"+X_.`.{. XXXXX X{.`.(.Q.~.~.~.~.~.E.Y.D.V.m.+X",
"+X(.`.'.].XXXX X{._.(.~.~.~.~.~.~.W.K.D.C.m.+X",
"+X~._.].|.XX X|._.^.~.W.W.W.W.~.~.E.Y.D.C.c.+X",
"+X/.(.].|.XXXX|.]._.(.~.~.~.~.~./.E.Y.A.C.M.+X",
"+X/._.|.|.}.}.].].`.(.~.~.~.~.W.W.R.Y.D.C.x.+X",
"+X(._.{.|.XXXX|.{._.).~.~.~.~.~.~.E.Y.D.V.m.+X",
"+X(._.].].XX.X|.{.`./.~.~.~.~.~.~.R.H.D.C.m.+X",
"+X~.`.]. XXX.X|.`.^.~.W.W.E.~.~.~.E.Y.D.C.m.+X",
"+X(._.'. XXXXX X]._.(.~.~./.~.~.~.E.Y.A.C.m.+X",
"+X/._.{.|. X}.'.]._.).~.~.~.W.W.W.E.Y.D.C.c.+X",
"+X/._.{.|.XXXX X{._./.~.~.~.~.~./.E.Y.D.N.m.+X",
"+X(.`.].].}..X X`._./.~.~.~.~.~.~.R.H.D.Z.m.+X",
"+X~.`.{.|.XX.X X]._.~.~.W.~.~.~.~.E.Y.D.C.m.+X",
"+X(.`._.|.XXXX X].`./.~.~.~.~.~./.E.L.Z.C.m.+X",
"+X(.`.].|.XX}.].'.(././.~.W.W.W.W.E.Y.D.Z.x.+X",
"+X(.(.{. XXXXX X]._./.~.~.~.~.~.~.W.Y.D.V.m.+X",
"+X(.`.{.].}..X X{._./.~.~.~.~.~.W.R.L.D.C.m.+X",
"+X~.`.{.|.XX.X X].`.(.~.~.~.~.~.~.E.Y.D.C.m.+X",
"+X(.`.'. XXX.X X`._.(.~.~.~.~.~.~.E.H.Z.C.m.+X",
"+X(._.{. XXX X]._.(.~.W.W.W.E.W.~.E.Y.D.C.x.+X",
"+X(.(.{. XXX.X X{._./.~.~.~.~.~./.W.Y.D.N.m.+X",
"+X).`.{.].}. X X{._.(.~.~.~.~.~.R.R.T.D.C.m.+X",
"+X~._.{.|.XX.X X{.`./.~.~.~.~.~.~.E.Y.D.C.m.+X",
"+X(._._.}.XX.X X{._./.~.~.~.~.~.~.E.H.D.C.m.+X",
"+X~._.].|.XXXX].'.^.~.W.W.W.W.~./.W.Y.D.C.x.+X",
"+X(.^.{.|.XX.X X{._.).~.~.~.~.~.~.E.L.A.C.m.+X",
"+X(.`.{. X}.}.|.{._./.~.~.~.~.~.W.R.Y.D.C.m.+X",
"+X(._.|.|.XXXX|.{._.).~.~.~.~.~.~.E.Y.D.N.m.+X",
"+X/._._.].XXXX|.{._.).~.~.~.~.~./.W.K.D.C.m.+X",
"+X~.`.{.|.XXXX}.'.^.Q.W.W.W.W.~.~.E.Y.D.C.c.+X",
"+X(.(.].|.XXXX|.{._.).~.~.~.~.~.~.E.L.A.C.m.+X",
"+X(.`.{. X].].}.{._./.~.~.~.~.W.W.R.Y.D.C.c.+X",
"+X(._.{. XXXXX|.{._./.~.~.~.^.~.~.E.Y.D.V.m.+X",
"+X(.`.`.].XXXX X{._.).~.~.~.~.~.~.R.K.D.C.m.+X",
"+XQ.`.|.|.XXXX|.].~.~.W.W.W.~.~./.E.Y.D.C.m.+X",
"+X(.(.'. XXXXX X{._.).~.~.~.~.~.~.E.L.A.C.m.+X",
"+X(.`.]. X X].].]._.).~.~.~.E.W.W.E.Y.D.C.x.+X",
"+X(.(.|. XXX.X X].`./.~.~.~.~.~./.W.Y.D.N.m.+X",
"+X(.`.`.]..X.X X{._./.~.~.~.~.~.~.R.K.D.Z.m.+X",
"+X!.`.{.|.XX.X|.}.(.~.W.W.~.~.~.~.E.Y.D.C.m.+X",
"+X(.`.`. XXX.X X`._.(.~.~.~./.~.~.E.T.A.C.m.+X",
"+X(.`.{.|. X}.].'._./.~.~.W.W.W.E.E.L.D.C.x.+X",
"+X(.(.`.|.XXXX X{._.(.~.~.~.~.~.~.E.Y.D.V.m.+X",
"+X(.`.|.]. XXX X{._.).~.~.~.~.~.~.R.H.D.C.m.+X",
"+X~._.]. XXX.X X{._.(.~.~./.~.~.~.E.Y.D.Z.m.+X",
"+X).`._.|.XX.X|.{._./.~.~.~.~.~.~.E.K.D.C.m.+X",
"+X)._.{.|..X}.{._.^.~.W.W.W.W.W.W.E.L.D.C.x.+X",
"+X).^.}.|.oXXX}.{._.)./.~.~.~.~.~.E.Y.D.B.m.+X",
"+X(._.{.].}.XX|.{._.).~.~.~.~./.W.R.L.D.C.m.+X",
"+X~._.].|.XXXX|.{._.).~.^.~.~.~.~.E.Y.D.C.m.+X",
"+X).`.'.}.XXXX}.{._.).~.~.~.~.~.~.E.J.Z.Z.m.+X",
"+X/.`.{.|.XX.X{._.^.~.W.R.W.W.W.~.E.L.F.C.x.+X",
"+X/.^.|.|.XX.X}.{._.).~.~./.~.~./.E.Y.D.C.m.+X",
"+X(.`.{.}. X}.|.{._.).~.~.~.~.~.W.R.Y.D.C.m.+X",
"+X~.`.{.|.XXXX X{._.).~.~.~.~.~.~.E.Y.D.N.m.+X",
"+X(._.'.].XX X X{._.).~.~.~.~.~.~.E.K.D.C.m.+X",
"+X~.`.{. XXXXX].'.~.!.E.W.W.W.~.~.E.L.D.C.x.+X",
"+X(.(.{.|.XX.X X{._.).~.~./.~.~.~.E.Y.A.C.m.+X",
"+X/.].{.|. X X].{._.).~.~.~.~.W.W.R.Y.D.C.m.+X",
"+X(.`.{. XXX.X X{._.).~.~.~.~.~.~.E.Y.D.V.m.+X",
"+X(.'.'.].XX.X X{._.).~.~.~.~.~.~.W.K.D.C.m.+X",
"+X~.`.].|.XX X X'.(.~.W.W.W.~.~.~.E.Y.D.C.c.+X",
"+X(.(.].|.XXXX X{._./.~.~.~.~.~.~.E.Y.A.C.m.+X",
"+X/.`.{.|.}.}.].}._./.~.~.~.W.W.W.E.Y.D.C.x.+X",
"+X/._.|. XXX.X X{._.).~.~.~.~.~./.W.Y.D.V.m.+X",
"+X(.`.].]..XXX X{._.).~.~.~.~.~.~.R.K.D.C.m.+X",
"+X~.`.{.|.XXXX X{.^.~.W.W.~.~.~.~.E.Y.D.C.m.+X",
"+X(.`._.|.XXXX X{._._.~.~.~.~.~.~.E.P.Z.C.m.+X",
"+X(.`.]. X X}.]._._.).~.~.W.W.W.W.E.Y.D.C.x.+X",
"+X/.(.{.|.XX.X X{._.).~.~.~.~.~.~.E.Y.D.N.m.+X",
"+X/._.{.].}.XX X{._.^.~.~.~.~.~.~.I.H.D.Z.m.+X",
"+X~.`.|.|.XX.X|.{._.~.~.~.~.~.~.~.E.Y.D.C.m.+X",
"+X(._.'. XXX.X X{._.).~.~.~.~.~./.E.P.Z.C.m.+X",
"+X(.`.].|.XX}.]._.^.~.~.W.W.W.W.W.E.Y.D.C.x.+X",
"+X(.(.{.|.XX.X X{._./.~.~.~.~.~.~.E.Y.D.V.m.+X",
"+X(.`.|.].}..X X{._.).~.~.~.~.~.W.R.L.D.C.m.+X",
"+X~.`.`.|.XX.X|.{._./.~./.~./.~.~.E.L.D.C.m.+X",
"+X(.`.'. XXX.X X{._.).~.~.~.~.~.~.W.L.A.C.c.+X",
"+X(.`.{.|.XX.X].'.^.!.W.W.W.W.W.~.E.Y.D.C.x.+X",
"+X(.(.{.|.XX.X X{._.).~.~.~.~.~.~.E.Y.D.V.m.+X",
"+X(.`.{.].}.}. X{._.(.~.~.~.~.~.W.R.Y.D.Z.m.+X",
"+X~._.]. XXX X|.{._.).~.~.~.~.~.~.W.Y.D.V.m.+X",
"+X/.`.'.].XXXX|.{._.).~.~.~.~.~.~.E.K.D.Z.m.+X",
"+X/._.{. XXXXX]._.^.~.W.W.W.W.~.~.E.Y.D.C.x.+X",
"+X(.(.|.|.XX X X{._.^.~.~.~.~.~.~.E.L.A.C.m.+X",
"+X(._.{.|.}.}. X]._.).~.~.~.~.E.W.R.Y.D.C.m.+X",
"+X/.`.{.|.XX.X X{._./.~.~.~.~.~.~.E.Y.D.V.m.+X",
"+X/.`.'.}.XXXX X]._././.~.~.~.~.~.E.K.D.C.m.+X",
"+X~.`.{.|.XX.X X_.^.~.W.W.E.W.~.~.E.Y.D.C.c.+X",
"+X(.).}.|.XX X X]._././.~.~.~.~.~.E.Y.A.C.m.+X",
"+X/.`.{.|.}.}.].]._./.~.~.~.~.E.W.R.Y.D.C.C.+X",
"+X{.|.{.|.XX.X X{._.).~.~.~./.~.~.W.L.L.D.Z.+X",
"+X{.|..XoXOXOX X{._.)././.E.~._.{.).E.Y.K.Z.+X",
"+X{.|.|.oXOXOXoXoX|.{.`.`.`.'.`.`.).E.L.D.Z.+X",
"+X{.|.oXoXOXOXoX.X|.{.'.`.`.`.`.{._.E.L.H.Z.+X",
"+X|.|..XoXOXOXoX.X|.{.'.{.`.`.`._.).E.L.D.C.+X",
"+X{.{..XoXOXOXoX.X|.{.`.`.`.{.`._.).~.L.H.Z.+X",
"+X{.|.oXoXOXOXoX.X|.{.`.`.{.`.`.{.).W.I.D.C.+X",
"+X}.|..XoXOXOXoX.X|.{.`.`.`.`.`._.).E.L.H.Z.+X",
"+X{.|..XoXOXoXoXoX|.{.`.`.`.`.`.`.).~.L.D.Z.+X",
"+X{.|..XoXOXoXoX.X|.{.`.`.`.`.`.{._.Q.L.H.Z.+X",
"+X|.|..XoXOXOXoXXX|.{._.`.`.`.`._.).Q.Y.D.Z.+X",
"+Xa.|.XXoXOXOXoXXX|.{.{.`.`._._.`.).W.L.s., +X",
"+Xp.F.).OXOXOXoXXX|.{._.`.`.`._.`._.S.p.8 , +X",
"+Xa.S.).OX|.E.M.p.a.S.E.F.M.a.p.a.M.S.p.8 A.+X",
"+X{.|.).OX|.E.S.p.a.S.Y.F.M.a.p.a.M.S.v.D.Z.+X",
"+X{.|..XOXOXXXM.p.a.S.E.F.M.p.p.`./.~.Y.K.0 +X",
"+X! } .XXXOXOXoXXX|.{._._._._._.`._.E.Y.r 9 +X",
"+X~ } +.w.r.[.oXXX|.{.{.`._._._.) n f s y t +X",
"+X_ &.%.9.e.w.3.1.| N ] [ } %.} ) Q f g i t +X",
"+X~ } %.e.e.4.2.1.| N M { } %.%.o.] b i e t +X",
"+X! &.6.w.e.7.7.1.| N  ...+.#.%.} Q b p e q +X",
"+X^ o.6.r.r.7.3.| | N M ] } #.$.( ] b d i t +X",
"+X! } %.e.r.7.4.3. .] N ] } #.%.( v f g i 0 +X",
"+X! ) %.9.w.7.7.3. .{ { } +.$.%.[ n f d r 0 +X",
"+X~ ) %.9.0.7.4. .` N ] | } %.$.} M f g r w +X",
"+X! #.%.9.w.0.4.1.| N ] } } [ %.[ Q c u r 9 +X",
"+X^ } %.e.0.7.2.1. .' ] { +.[ #.#.n f s y t +X",
"+X~ &.%.9.0.7.3.1. .' { [ [ } #.} v h s y 0 +X",
"+X~ $.6.q.q.7.4.3.O.' { [ %.+.$.} ] m p i 9 +X",
"+X~ $.%.9.0.w.3.1.O.' Q ..+.$.%.[ M c p s q +X",
"+X~ } 6.9.q.0.3. . .N ] X.X.} #.} ] m g e 9 +X",
"+X~ } %.9.0.7.7.3.O.] { [ [ } #.) / h g y 9 +X",
"+X~ ) %.8.9.4.3.3.O.' ' [ | } #.} / f g e q +X",
"+X^ } %.8.r.4.3.4.O.` ' [ [ %.#.[ / b g i t +X",
"+X^ $.6.w.0.w.4.1. .` { ..+.%.#.( M c g y t +X",
"+X^ } 6.e.e.8.3.2.{ N ` ..) [ #.[ v f p i w +X",
"+X~ ) %.e.q.7.3.O.O.' Q } ] } #.} ` f d i 0 +X",
"+X~ ) %.e.e.7.3.3.O.' Q [ [ } #.[ [ f g i 9 +X",
"+X~ ) 6.8.r.7.2.2.| ' ....} #.$.+.v f p i t +X",
"+X~ } %.q.0.0.7.2.| ` { } [ %.$.( v f p i t +X",
"+X! ) %.9.r.7.4.1.| n ' [ { #.#.( v c i r 0 +X",
"+X! @.%.9.r.7.2.3.O.` ` [ +.$.@.( / h u r 9 +X",
"+X^ $.%.9.r.7.2.3.O.' ` [ +.} #.[ n m i y 9 +X",
"+X^ } %.8.e.0.3.1.O.` ] | +.%.#.[ n c d r w +X",
"+X! &.5.6.e.7.3.1.` ' { X.+.$.%.M M f d y q +X",
"+X! #.5.9.w.7.3.1.' N ] +.[ #.$.#.M f g y 9 +X",
"+X! $.%.9.e.7.3.1. .N ` [ [ $.%.#.v c g r t +X",
"+X^ } %.e.0.0.4.3. .] { X...%.$.[ ] c u y t +X",
"+X_ o.6.8.r.w.3.3...{ { ] +.) %.} / c p r 0 +X",
"+X~ $.6.w.r.w.4.2.| N ] ..} } %.( n c g s w +X",
"+X^ } 5.8.w.0.3.3.| ` Q +.#.$.#.#.Q m g i 9 +X",
"+X_ ) %.9.0.7.4. .| Q Q [ | @.@.( v h g i q +X",
"+X~ } 5.q.e.7.3.1.` Q Q X.} [ @.( / h g r 9 +X",
"+X~ ) 5.9.0.7.3.1.1.' ..X.[ } %.( M h g i 9 +X",
"+X~ } 6.8.e.7.3. .| N  .[ [ } %.} v m g i 0 +X",
"+X~ } %.e.r.0.4.3.N N N ] { } } } n h g i 9 +X",
"+X^ ) %.e.r.4.4.3. .] ` [ [ #.$.[ v c d y 0 +X",
"+X^ } %.8.t.7.3. . .] { } +.#.%.[ n f p r q +X",
"+X^ +.%.8.8.7.7. .` ' { X.+.#.#.[ v f p y 0 +X",
"+X~ $.+.9.9.7.4.3.' {  .] [ $.$.( n h d y 9 +X",
"+X~ } 6.9.q.7.4.3. .n ..] [ #.%.[ v c p y 9 +X",
"+X~ ) %.8.r.7.2.1.O.` ' | [ #.%.#.v f d e q +X",
"+X^ [ %.e.q.7.2. .' ` { ..[ #.$.[ v h d e q +X",
"+X^ } %.8.q.7.2.3. .`  .+.) %.%.} v c p r q +X",
"+X~ &.6.e.0.7.7.3.O.` { } [ } #.[ Q c p y q +X",
"+X~ } 5.e.r.0.7.3.O.{ n ] [ [ %.} n f p y q +X",
"+X_ ) +.9.w.4.3.3. .` { ..+.) [ M M v u y 0 +X",
"+X^ $.%.8.9.7.3.1.] N ] [ X.@.$.#.v c u y 0 +X",
"+X! } %.r.w.4.3...| N { X.[ [ @.#.v f p e 9 +X",
"+X~ &.6.e.r.w.4. .| N ] | +.$.@.M v m d y 9 +X",
"+X^ &.6.e.r.w.4.3.O.` ] [ $.@.#.[ M f s i w +X",
"+X^ #.5.9.e.w.7.3. .' ] } | [ @.) ] c d e t +X",
"+X~ $.6.8.q.7.3.4.' ' { +.+.%.%.} ] f g i 9 +X",
"+X~ ) %.9.0.7.3. .' n { +.[ #.$.} v h g y 9 +X",
"+X_ } %.7.t.w.4.3.| n  .X.[ } @.[ v f g y 9 +X",
"+X~ o.5.r.t.w.7.3.| ' { X.+.[ #.( v b u y w +X",
"+X_ } %.e.w.7.3.3.{ N ..[ [ [ @.( v b g s 9 +X",
"+X~ } 5.6.w.7.2.3.O.{ { ..[ $.$.( v c g e w +X",
"+X~ $.%.9.w.7.3.3. .' { } [ [ #.[ / b d e 0 +X",
"+X^ [ %.r.r.7.4.3. .n ` ] [ } #.#.M f d y 9 +X",
"+X_ o.%.w.r.7.3. .O.{  .X.+.} #.#.M m p y 9 +X",
"+X_ %.%.e.0.e.3. .O.' { [ } $.%.M v m u e 9 +X",
"+X^ ) %.e.0.7.4.3.{ N ` [ | $.%.} M f u y t +X",
"+X_ o.%.9.r.e.4.3.` N ` [ [ } #.} / f g y t +X",
"+X_ $.6.w.r.7.4...| ' ..X.+.} #.} Q c p y 9 +X",
"+X~ &.6.e.r.0.0. .' n ] { [ %.%.[ / c i r 9 +X",
"+X~ } 5.e.r.w.3.1.] N ` [ [ $.#.[ v c p y +X+X",
"+X+X+X%.8.8.4.3.3. .` ` [ | } %.M n h j +X+X+X",
"+X+X+X+X+X+X+X3...| N ] [ [ } +X+X+X+X+X+X+X+X",
"+X+X+X+X+X+X+X+X+X+X+X+X+X+X+X+X+X+X+X+X+X+X+X"
};
