/* XPM */
static char *result[] = {
/* columns rows colors chars-per-pixel */
"23 248 200 2 ",
"   c #1D1916",
".  c #221D19",
"X  c #29221F",
"o  c #2D2824",
"O  c #312A24",
"+  c #352E28",
"@  c #3D352D",
"#  c #433A33",
"$  c #403730",
"%  c #4C433B",
"&  c #50463C",
"*  c #554B44",
"=  c #5B4D44",
"-  c #5D5047",
";  c #5D5148",
":  c gray36",
">  c #764F40",
",  c #61544B",
"<  c #685A4F",
"1  c #65594D",
"2  c #675951",
"3  c #6B5D53",
"4  c #7A5A4B",
"5  c #6E6258",
"6  c #736356",
"7  c #716459",
"8  c #75685D",
"9  c #79685B",
"0  c #6C6663",
"q  c #6D6966",
"w  c #756C65",
"e  c #7B736E",
"r  c #8E4D15",
"t  c #904F16",
"y  c #924F19",
"u  c #925216",
"i  c #965518",
"p  c #985619",
"a  c #995919",
"s  c #985717",
"d  c #A45C1C",
"f  c #AA641E",
"g  c #AA641F",
"h  c #AB6520",
"j  c #AC6821",
"k  c #B56522",
"l  c #B76923",
"z  c #BB6E25",
"x  c #BC7125",
"c  c #BE7328",
"v  c #FF4D0F",
"b  c #FB4D10",
"n  c #EE490F",
"m  c #C77429",
"M  c #C8752A",
"N  c #CB7D2D",
"B  c #C57226",
"V  c #D87F2F",
"C  c #CE7F31",
"Z  c #905B42",
"A  c #9A6754",
"S  c #8D6B5F",
"D  c #A46D5C",
"F  c #A46956",
"G  c #BE694C",
"H  c #847264",
"J  c #84746A",
"K  c #8E7C6D",
"L  c #8B7565",
"P  c #917B6C",
"I  c #8E7D71",
"U  c #827C77",
"Y  c #9A7C74",
"T  c #A07E74",
"R  c #CD812E",
"E  c #D98625",
"W  c #DA8825",
"Q  c #D8812F",
"!  c #DC8E29",
"~  c #D78329",
"^  c #DC912A",
"/  c #CE8131",
"(  c #D28434",
")  c #DA8632",
"_  c #D38B36",
"`  c #DD8C34",
"'  c #D28739",
"]  c #D58C3C",
"[  c #DB8D38",
"{  c #DF9034",
"}  c #D69039",
"|  c #DD9139",
" . c #E28B34",
".. c #E18732",
"X. c #E29137",
"o. c #E29439",
"O. c #E2993B",
"+. c #85817D",
"@. c #958375",
"#. c #968479",
"$. c #9C8B7D",
"%. c #988677",
"&. c #BC8673",
"*. c #A78D7E",
"=. c #DA8D42",
"-. c #D68D41",
";. c #DC9345",
":. c #DE9648",
">. c #DF9A4C",
",. c #E49744",
"<. c #E59945",
"1. c #E3974B",
"2. c #E39A4C",
"3. c #E99F53",
"4. c #E49C50",
"5. c #E6A14C",
"6. c #E8A14C",
"7. c #E5A254",
"8. c #EAA155",
"9. c #EBA75B",
"0. c #ECA95D",
"q. c #E6A35D",
"w. c #E0A362",
"e. c #8A8683",
"r. c #858382",
"t. c #9E8C80",
"y. c #9B928A",
"u. c #919191",
"i. c #9C9C9C",
"p. c #A18F80",
"a. c #A59184",
"s. c #AB9A8C",
"d. c #A7978A",
"f. c #AA9C90",
"g. c #AA9992",
"h. c #B19E90",
"j. c #ADA49C",
"k. c #AEA99D",
"l. c #AEA296",
"z. c #B8A697",
"x. c #B2A49A",
"c. c #B6A99F",
"v. c #B4A294",
"b. c #A3A3A3",
"n. c #AFACA3",
"m. c #AEAEAE",
"M. c #AFA5A4",
"N. c #B1ACA4",
"B. c #BAADA3",
"V. c #B4ADAA",
"C. c #B6B2A7",
"Z. c #BAB1A7",
"A. c #B7B3AB",
"S. c #BAB5AD",
"D. c #BAB8AF",
"F. c #B3B2B2",
"G. c #BAB7B1",
"H. c #BDB9B5",
"J. c #BCBCBC",
"K. c #C6B8AC",
"L. c #C2BBB4",
"P. c #C2BDBA",
"I. c #C8BEB5",
"U. c #EEC492",
"Y. c #C4C1BB",
"T. c #CAC5BD",
"R. c #C9C0B7",
"E. c #D2C2B3",
"W. c #D5C9BD",
"Q. c #E3D1BD",
"!. c #C0C0C0",
"~. c #CAC5C2",
"^. c #CCCAC6",
"/. c #CECCC9",
"(. c #D2CDC5",
"). c #D2CECA",
"_. c #D4D0C7",
"`. c #D4D3CE",
"'. c #DAD4CE",
"]. c #DDD1C4",
"[. c #D6D5D0",
"{. c #DAD6D3",
"}. c #DBD9D5",
"|. c #DEDDD9",
" X c #D7D8D3",
".X c #E2D2C5",
"XX c #E1DAD5",
"oX c #E1DEDC",
"OX c #E9DFDD",
"+X c #E4E2DE",
"@X c #E9E1DE",
"#X c #E5E3E1",
"$X c #E8E5E3",
"%X c #EAE9E5",
"&X c #E9E7E8",
"*X c #EDE9E8",
"=X c #F2EEED",
"-X c #F5F2F1",
";X c white",
":X c #000000",
/* pixels */
":X:X:X:X:X:X:X:X; ; ; ; ; :X:X:X:X:X:X:X:X:X:X",
":X:X:X:X; - ; , t.I p.g.h.3 2 7 #.g.:X:X:X:X:X",
":X:X:Xt.t.t.$.t.t.2 t.t.p.; g.7 7 f.f.:X:X:X:X",
":X:XK < $.p.$.t.t.t.6 6 t.I g.g.7 f.f.g.:X:X:X",
":X:X; K #.I p.$.6 9 5 p.; w T g.x.J J 7 :X:X:X",
":X:X; K I t.7 7 p.5 5 7 *.V.V.g.- - K oX:X:X:X",
":X:XXXoXt.$.$.w e.3 t.I = M.M.e - ; |.oX:X:X:X",
":X:X/.}.|.oXXXXXoXY t.p.Y *.oX{.|.}.|.|.:X:X:X",
":X:X}.).{.{.{.{.{.{.oX{.{.{.{.oX}.^.|.{.:X:X:X",
"V.;X^.}.{.{./././.{.{.{.{.~./.~.{.}.}.{.:X:X:X",
"M.U w w {.{.{.{.{.{.{.{.{.{.{.{.{.{.^.{.:X:X:X",
"G.7 2 2 {.~.`.{.{.{.{.{.{.{.{.{.~.{.{.~.:X:X:X",
";X3 , '.`.'.'.'.{.!.!.~./.{.{.).{.{.).{.:X:X:X",
":Xe * [.!.P.`.'./.{.).{.{.).).{.).* [.).:X:X:X",
":Xy.% `.`.).!.!.* q q q 0 U !.).).).).).:X:X:X",
":X:X).P.).).).)././././././.).).).).!.).:X:X:X",
":X:X).).).P.).)././.).).).).).P.!./.).P.:X:X:X",
":X:Xu.).).).~.)././.~.~./.~./.).)./.~./.:X:X:X",
":X:X~.; P.~.~.~.~./.~.~.~.).~.~.~.P./.~.:X:X:X",
":X:XJ.~.~.J r.r.L.P.L.H.P.P.L.~.~.~./.~.:X:X:X",
":X:X/.P.~.~.~.~.!.~.~.~.~.~.!.~.~.~.P.= :X:X:X",
":X:X~.~.P.L.H.!.~.~.~.~.~.~.~.L.P.~.r.L.3 Y :X",
":X:XP.~.P.~.P.~.P.~.P.~.!.~.~.~.~.w P.~.4 Y :X",
":X:X~.P.L.P.~.P.~.P.~.e.0 w e.e.P.V.!.; Z g.:X",
":X:XS.P.P.Y.Y.G.V.F.V.F.S.S.F.P.P.P.P.> Z :X:X",
":X:XP.G.P.P.P.P.P.P.P.P.P.P.P.P.P.P.P.S D :X:X",
":X:XA !.P.V.V.+.P.P.P.J.P.P.0 M.P.P.P.A :X:X:X",
":X:XP.G H.L.P.L.L.P.L.L.P.L.P.L.L.L.F.D :X:X:X",
":X:XH.H.A D v H.P.L.H.L.H.L.L.L.V.M.H.H.:X:X:X",
":X:XM.L.F.L.H.V.M.M.M.V.M.M.H.L.G.H.H.o :X:X:X",
":X:XH.T L.F.H.F.J.H.H.K.H.F.T K.G.a.* * :X:X:X",
":X:X$ . F.v . n D D h.K.T H.M.M.  G.# , :X:X:X",
":X:X3 % + O # G.F.S.S.A.. G.F.X @ + 1 6 :X:X:X",
":X:XH 9 < , 8 @ o +   O @ # $ * ; - 9 @.:X:X:X",
":X:XI P P K H 6 , < % = 1 9 J *.s.*.@.%.:X:X:X",
":X:X$.$.$.*.$.P L Y *.P L a.K.Q.E.v.y.y.:X:X:X",
":X:Xf.d.s.f.s.%.%.p.h.$.@.v.E.Q.E.z.s.f.:X:X:X",
":X:Xl.l.c.B.x.d.a.s.h.a.*.z.E.].W.Z.j.l.:X:X:X",
":X:XZ.c.S.K.B.x.l.c.B.l.v.Z.W.'.W.K.x.k.:X:X:X",
":X:XL.L.I.I.K.K.B.K.S.B.B.I.W.].(.L.C.N.:X:X:X",
":X:XI.T.T.(.(.I.L.L.L.L.K.R.'.'._.Y.C.C.:X:X:X",
":X:X~./.~.(.`.(.I.T.T.I.L.~.'.{.W.R.H.C.:X:X:X",
":X:X~.`.XXXX}.).~.W.T.I.I.(.'.'.`.Y.G.n.:X:X:X",
":X:X'.).XXXXoX}.{.).).^./._.'.{.(.Y.D.C.:X:X:X",
":X:X}.|.|.+XoXXX}.'.`.).).).(.'./.T.D.n.:X:X:X",
":X:X}.|.+X&X$X@X|.}.`.`.`.[.`.`.^.Y.A.n.:X:X:X",
":X:X}.|.XX@X*X$X|.}.{.`.`.`.`.`.T.Y.D.C.:X:X:X",
":X:X).|.#X&X*X$X+X'.).(.).`.`.`.^.Y.D.k.:X:X:X",
":X:X}.}.oX&X*X$XoX}. X`.`.`.`.`.^.H.D.n.:X:X:X",
":X:X}.|.$X&X@XoX}.|.[.`.)._._.^.^.Y.D.n.:X:X:X",
":X:X}.|.+X&X*X$XoX}.`.`.`.`.`.`.^.Y.C.n.:X:X:X",
":X:X}.|.oXOX*X$X|.}. X`.`.`.`.`.T.Y.D.n.:X:X:X",
":X:X_.|.$X&X*X$XoX}.`.`.`.`.`.`.^.Y.D.n.:X:X:X",
":X:X}.|.XX&X*X$X+X}. X`.`.`.`.`.^.L.G.n.:X:X:X",
":X:X}.|.$X*X@XoX}.[.`.(.(.(._._.^.Y.G.k.:X:X:X",
":X:X}.{.oX&X*X$XoX}.[.`.`.`.`.`.^.Y.C.n.:X:X:X",
":X:X}.|.+XoX*X$XoX}.`.`.`.`.`._.T.Y.D.n.:X:X:X",
":X:X'.|.$X&X*X$XoX}.[.[.`.`.`.`.^.Y.D.n.:X:X:X",
":X:X{.|.XX*X*X$X+X}.[.`.`.`.`.`.^.L.D.n.:X:X:X",
":X:X X|.+X*X$XoX}.'._.(.^._.^.[.^.Y.D.k.:X:X:X",
":X:X{.{.+X&X%X$XoX}.[.`.`.`.`.`.^.Y.C.n.:X:X:X",
":X:X}.|.$X@X@X$X+X}.[.`.`.`.`.^.T.Y.G.n.:X:X:X",
":X:X`.|.+X&X*X$X|.|.[.`.`.`.[.`.^.Y.D.n.:X:X:X",
":X:X}.|.oX&X*X$XoX|.[.`.`.`.`.`.^.D.D.n.:X:X:X",
":X:X{.|.#X&X%X+XXX'./.(.(./.`.`.^.Y.G.k.:X:X:X",
":X:X}.}.+X&X*X$X+X X X`.[.`.`.`.^.Y.Z.n.:X:X:X",
":X:X{.|.+XoX@X$X|.}.[.`.`.`./.(.^.Y.G.n.:X:X:X",
":X:X`.|.$X&X*X$X+X}.[.`.`.`.`.`.^.Y.D.n.:X:X:X",
":X:X}.|.+X$X%X$X+X}. X`.`.`.`.`.T.D.D.C.:X:X:X",
":X:X`.|.#X&X*X$X X'._._.(.).`.`.^.Y.D.k.:X:X:X",
":X:X}.{.#X%X%X+X+X}.`.`.`.`.`.`.^.Y.C.n.:X:X:X",
":X:X}.oX+X$X@X+X+X}.[.`.`.`.(.(.^.Y.D.n.:X:X:X",
":X:X{.|.$X&X*X$XoX}.[.`.`.`.`.`.^.Y.A.n.:X:X:X",
":X:X}.|.XX+X*X$X+X}.[.`.`.`.[.`.T.L.D.n.:X:X:X",
":X:X_.oX+X&X*X$X|.`._.(.(.`.`.`.^.Y.D.k.:X:X:X",
":X:X}.{.$X&X*X$XoX}. X`.`.`.`.`.^.L.A.n.:X:X:X",
":X:X{.}.#X&X$XoX|.}. X`.`.(.(.(.^.Y.G.n.:X:X:X",
":X:X}.oX#X$X*X$XoX}.[.`.`.`.`.`.^.Y.C.n.:X:X:X",
":X:X{.oXoXOX*X#X+X}.[.`.`.`.[.`.Y.Y.D.n.:X:X:X",
":X:X).oX#X&X*X$XoX X_.(.`.`.`.`.^.Y.D.n.:X:X:X",
":X:X}.}.oX&X*X$XoX}.[.`.`.`.`.`.^.L.D.n.:X:X:X",
":X:X}.|.+X&X@XOXXX{.[.`.(.(.(.^.^.Y.D.k.:X:X:X",
":X:X}.}.+X*X*X$XoX}.[.`.[.`.`.`.^.Y.C.n.:X:X:X",
":X:X}.|.oXOX*X$XoX}.[.`.`.`.`.(.T.Y.G.N.:X:X:X",
":X:X_.|.$X&X*X$X+X}.`.`.[.`.`.`.^.Y.D.n.:X:X:X",
":X:X}.|.XX&X*X$XoX}.`.`.`.`.`.`.^.L.D.n.:X:X:X",
":X:X}.|.#X&X$XoX}.'.`.(.(._.^.`.^.Y.G.k.:X:X:X",
":X:X{.}.#X&X*X$X|.|.[.`.`.`.`.`.^.Y.C.n.:X:X:X",
":X:X X|.+X@X@X$X+X}.[.`.`.`.`.(.T.Y.D.n.:X:X:X",
":X:X`.|.$X&X*X+X+X}.[.`.[.`.`.`.^.Y.D.n.:X:X:X",
":X:X}.|.XX&X*X$X|.}.[.`.`.`.`.`.^.L.G.n.:X:X:X",
":X:X X|.$X&X*XoXXX`._.(.^.(.).[.(.Y.G.k.:X:X:X",
":X:X}.{.$X&X%X$X+X}.[.`.`.`.`.`.^.Y.C.n.:X:X:X",
":X:X}.|.+X+X@X&XoX}.[.`.`.`.`._.T.Y.D.n.:X:X:X",
":X:X_.oX#X&X%X&XoX}.[.`.`.`.`.`.^.Y.D.n.:X:X:X",
":X:X}.|.+X&X%X#XoX}.[.`.`.`.`.`.T.H.D.C.:X:X:X",
":X:X{.|.$X&X*X+X}.}._._.^._.`.`.^.Y.D.k.:X:X:X",
":X:X}.}.+X&X*X&XoX}.`.`.`.`.`.`.^.Y.C.n.:X:X:X",
":X:X}.|.+XOX@XoXoX}.[.`.`.`._.^.^.Y.D.n.:X:X:X",
":X:X_.|.$X&X*X$XoX}.[.`.`.`.`.`.^.Y.D.n.:X:X:X",
":X:X}.|.XX+X*X&XoX}.[.`.`.`.`.`.T.H.D.n.:X:X:X",
":X:X_.|.#X&X*X$X|.'._._.^.`.`.`.^.Y.D.k.:X:X:X",
":X:X}.{.+X&X*X$X+X}. X`.`.`.`.`.^.Y.C.n.:X:X:X",
":X:X{.|.$X$XOXoX|.}.[.`.`._._.^.^.Y.D.n.:X:X:X",
":X:X}.|.$X&X*X$XoX|.[.`.`.`.`.`.^.Y.A.n.:X:X:X",
":X:X}.|.oX@X&X$X|.}.[.`.`.`.`.`.T.Y.D.n.:X:X:X",
":X:X_.|.@X&X*X$XoX{.).(._.`.`.`.^.Y.G.k.:X:X:X",
":X:X}.}.oX&X*X$X+X}.[.`.`.`.`.`.(.D.G.n.:X:X:X",
":X:X}.|.#X&XOXoX}.}.[.`.`.(.(.(.^.Y.D.n.:X:X:X",
":X:X}.oX#X&X*X$XoX}.[.`.`.`.`.`.^.Y.C.n.:X:X:X",
":X:X}.|.oX+X*X$XoX}.[.`.`.`.`.`.Y.Y.D.n.:X:X:X",
":X:X_.|.#X&X*X$X+X}.`.`.`.`.`.`.^.Y.D.n.:X:X:X",
":X:X{.oXXX&X*X$X+X}. X`.`.[.[./.^.H.D.n.:X:X:X",
":X:X}.|.+X*X@XoX}.[.(.(.(.(.(.`.^.Y.G.k.:X:X:X",
":X:X{.}.$X&X*X$X|.}.[.`.`.`.`.`.^.Y.A.n.:X:X:X",
":X:X}.|.@X+X$X$X+X}.[.`.`.`.`.(.Y.Y.D.C.:X:X:X",
":X:X_.|.$X&X%X$X+X X[.[.`.`.`.`.^.Y.D.n.:X:X:X",
":X:X}.|.XX%X%X&X+X X[.[.`.`.`.`.^.L.D.n.:X:X:X",
":X:X}.|.$X&X%X+X}.[._.(.(._.^.`.^.Y.A.k.:X:X:X",
":X:X}.}.+X*X%X$X+X X[.`.`.`.`.`.^.Y.C.n.:X:X:X",
":X:X}.|.#X+X@X$X+X X X`.`.`.`.(.T.Y.D.n.:X:X:X",
":X:X`.|.#X&X*X$X|.|.[.`.`.`.`.`.^.Y.D.n.:X:X:X",
":X:X}.|.oX&X*X$X|.}.[.`.`.`.`.`.^.D.G.C.:X:X:X",
":X:X{.|.+X&X*XoX}.[.`.(._._.`.`.^.Y.D.k.:X:X:X",
":X:X{.{.$X&X*X$XoX}.[.`.`.`.`.`.^.Y.C.k.:X:X:X",
":X:X}.|.+XOX@X+X+X}.[.[.`.`.^._.^.Y.D.N.:X:X:X",
":X:X).oX$X&X*X$X|.}.[.`.`.`.`.`.^.Y.D.n.:X:X:X",
":X:X}.oXXX$X*X$X+X}.[.`.`.`.`.`.T.L.D.n.:X:X:X",
":X:X{.|.#X&X&X$X{.'._.(.(.).`.`.^.Y.D.k.:X:X:X",
":X:X}.{.$X&X*X$XoX}.[.`.[.`.`.`.^.Y.C.n.:X:X:X",
":X:X}.|.#X+X@XoXoX}.[.`.`.`.(.(.^.Y.G.n.:X:X:X",
":X:X`.|.$X*X*X$XoX}.[.`.`.`.`.`.^.Y.D.n.:X:X:X",
":X:X}.oXoX@X*X$X+X}.`.`.`.`.`.`.T.P.D.n.:X:X:X",
":X:X_.|.+X&X&X$XoX`.`._.^.`.`.`.(.Y.D.k.:X:X:X",
":X:X}.}.+X&X%X$X|.}.[.`.`.`.`.`.^.H.G.n.:X:X:X",
":X:X}.|.$X&XOXOX|.}.`.`.`._.(.(.^.Y.G.N.:X:X:X",
":X:X}.|.+X&X*X$X+X}.[.`.`.`.`.`.^.Y.C.n.:X:X:X",
":X:X}.|.XXOX*X$XoX}.[.`.`.`.`.`.T.Y.D.n.:X:X:X",
":X:X_.|.$X&X*X$XoX}.`.`.`.`.`.`.^.Y.D.k.:X:X:X",
":X:X{.{.oX&X*X$XoX|.[.[.`.`.`.`.^.L.G.n.:X:X:X",
":X:X}.|.#X&X@XoX}.[.[./.^.(.(.).^.Y.D.n.:X:X:X",
":X:X}.|.$X%X*X$X+X}.[.`.`.`.`.`.^.Y.C.n.:X:X:X",
":X:X}.}.+X+X%X+X+X X[.`.`.`.`.(.T.Y.D.n.:X:X:X",
":X:X`.|.$X&X%X$X+X}.[.`.`.`.`.[.^.Y.G.n.:X:X:X",
":X:X}.|.XX&X%X$X+X}.[.`.`.`.`.`.^.H.D.n.:X:X:X",
":X:X}.|.$X&X*XoX}.'._.(._.(._.`.^.Y.D.k.:X:X:X",
":X:X}.{.+X&X*X$X|.}.[.`.`.`.`.`.^.Y.C.n.:X:X:X",
":X:X}.|.$X+X@X$X+X}. X`.`.`.`.^.T.Y.D.n.:X:X:X",
":X:X_.|.#X&X*X$X+X}.`.`.`.`.`.`.^.Y.G.n.:X:X:X",
":X:X}.|.XX&X*X$X+X X`.`.`.`.`.`.^.L.D.N.:X:X:X",
":X:X}.|.$X&X&XoX}.'._.^._._.`.`.^.Y.G.k.:X:X:X",
":X:X{.{.+X*X*X$X+X}.[.`.`.`.`.`.^.Y.Z.n.:X:X:X",
":X:X}.|.$XoX@X$XoX}.{.`.`.`.).^.T.Y.D.n.:X:X:X",
":X:X`.|.+X&X*X$XoX}.[.`.`.`.`.`.^.Y.D.n.:X:X:X",
":X:X{.|.oX*X*X$X+X}.[.`.`.`.`.`.T.H.D.n.:X:X:X",
":X:X}.|.+X&X*X$X}.'._.(._.^.[.`.^.Y.D.k.:X:X:X",
":X:X X}.+X&X*X$XoX}.[.`.`.`.`.`.^.Y.C.n.:X:X:X",
":X:X}.|.$X@X@XoX+X}.[.[.`.`.(.^.^.Y.D.D.:X:X:X",
":X:X+X$X+X&X%X&X|. X[.`.`.`.[.`.^.Y.Y.D.:X:X:X",
":X:X+X$X%X-X-X&X+X|.[.[.`.`. X|.[.^.Y.C.:X:X:X",
":X:X+X+X=X-X-X=X%X%X|.|.|.|.|.|.[.^.Y.A.:X:X:X",
":X:X+X%X%X-X-X=X%X%X|.|.|.|.|.|.[.^.Y.D.:X:X:X",
":X:X+X%X=X-X-X=X%X+X|.|.|.|.|.|.[.^.Y.S.:X:X:X",
":X:X+X%X%X-X-X=X%X+X|.|.|.|.|.|. XT.Y.S.:X:X:X",
":X:X+X%X%X-X-X=X%X+X|.|.|.|.|.|. X^.Y.D.:X:X:X",
":X:X+X%X=X-X-X-X%X%X+X|.|.|.|.|.[.T.Y.D.:X:X:X",
":X:X+X%X%X-X-X=X%X+X|.|.|.|.|.|. X^.Y.D.:X:X:X",
":X:X+X%X%X-X-X=X%X+X+X|.|.|.|.|. XT.Y.D.:X:X:X",
":X:X+X+X=X-X-X-X%X+X+X|.|.|.|. X XT.J.D.:X:X:X",
":X:Xi.%X*X-X-X=X%X#X+X|.|.|.|.|. XT.J.: :X:X:X",
":X:Xb.!.#X-X-X=X%X#X|.|.|.|.|.|./.b.r.: :X:X:X",
":X:Xi.!.#X-X`.F.u.b.J.!.m.i.u.b.m.b.r.D.:X:X:X",
":X:X+X$X&X-X`.m.u.b.J.!.m.i.u.b.F.b.Y.D.:X:X:X",
":X:X+X$X%X-X-Xm.u.n.J.!.m.i.u.XX XT.Y.k.:X:X:X",
":X:XW w.%X-X-X-X%X+X|.|.|.|.|.|.[.T.g u :X:X:X",
":X:X^ ^ >.q.w.-X%X+X+X|.}.|. X_ R c j a :X:X:X",
":X:X^ O.<.8.7.;.] ( / ( ` |  .[ M l g i :X:X:X",
":X:X! { 6.9.1.:.-.( N ( [ X.o.` R l d s :X:X:X",
":X:XE O.5.9.1.>.] C C ] [ X.o.` R k d r :X:X:X",
":X:X! O.6.q.3.=.' -.C C ( X. .) R c g i :X:X:X",
":X:XE X.<.9.3.>.-.] _ ( ` | o.) m l h a :X:X:X",
":X:XE | ,.3.1.>.;.' _ ] |  .o.V m x d u :X:X:X",
":X:XE ` ,.3.2.1.] / C ( ` | o. .N z j i :X:X:X",
":X:XE ` ,.8.2.>.] ' C ( `  .o.Q N z d t :X:X:X",
":X:XW ` 2.8.2.=.-.] _ ( [ `  .` m k d s :X:X:X",
":X:XW O.,.3.1.;.;.] _ ( | )  .` m k d s :X:X:X",
":X:XW O.6.8.2.>.;.} / } | | X.` m k d i :X:X:X",
":X:XW X.,.8.7.>.] ] ' / | X.o.Q N k j i :X:X:X",
":X:XE ` 5.3.1.:.-.} R / | `  .` N z g i :X:X:X",
":X:XE X.,.3.1.2.;.} _ } ) `  .) N k g r :X:X:X",
":X:XW { ,.8.4.;.;.} ( ( ) ` X.` N k d a :X:X:X",
":X:XW { ;.3.4.;.;.' / ( ) `  .Q R x j a :X:X:X",
":X:X! O.,.8.7.>.] ] / _ | |  .Q B x g s :X:X:X",
":X:X!  .5.9.2.:.-.' / ] | ) X.Q M l g r :X:X:X",
":X:XE ` 6.0.2.:.] } _ ( | ` ..` M l g r :X:X:X",
":X:XE ` ,.8.2.;.:.} _ ( ) `  .Q N k g y :X:X:X",
":X:XE ` ,.0.4.=.] ' ] _ ` ` o. .m k g a :X:X:X",
":X:XW ` <.3.7.1.=.' R ] [  .o.V m k g a :X:X:X",
":X:XE ` ,.3.4.;.] ' / ( (  . .V M z d p :X:X:X",
":X:XE X.,.0.2.=.;.] / ( ) O. .V N z d y :X:X:X",
":X:X! ` ,.9.1.=.;.] R ( ) )  .V M z g t :X:X:X",
":X:X^  .<.8.7.:.] ] C ` | O. .Q N k g t :X:X:X",
":X:XE O.<.8.4.;.-.( _ ] | | X.) M k g p :X:X:X",
":X:XE O.1.3.1.;.] / N _ ) ) o.` B z j r :X:X:X",
":X:XE X.<.8.2.;.' ( R ( ) X.o.) m c j s :X:X:X",
":X:X! X.<.0.2.1.;.] _ _ ( X.o.) N z d p :X:X:X",
":X:X! O.2.0.7.;.;.' ' ( ` ` X.) N c d i :X:X:X",
":X:XW O.5.0.2.>.-.' R ( | X.o.) M c f u :X:X:X",
":X:X^ ` ,.3.7.;.;.( / _ [ X. .V N c f s :X:X:X",
":X:X! { ,.8.2.:.] ( R ( [ .. .V M c g u :X:X:X",
":X:XW  .2.9.2.;.] C / } |  ...V m l d u :X:X:X",
":X:XE X.,.3.1.;.;.] _ } | ` o.) M z g t :X:X:X",
":X:XE  .6.8.2.;.' C ] ( ) ..X.) M z g a :X:X:X",
":X:XE { 6.q.7.1.-.( N ( ) `  .` M z g u :X:X:X",
":X:X^ X.,.9.2.>.;.] C ) | ` X.Q M x g r :X:X:X",
":X:XW { ,.8.7.;.] ] / ] `  .o.) M k d s :X:X:X",
":X:X! { ,.3.1.:.-.] _ _ | O. .Q N k d i :X:X:X",
":X:XW o.<.8.1.>.;./ ] _ ) ` o.Q N k h s :X:X:X",
":X:XE  .O.8.1.>.;.' / _ ( ` o.Q m z g a :X:X:X",
":X:XE O.,.9.2.;.] ] / _ ) ` o.) m z g p :X:X:X",
":X:XW ` ,.8.2.=.-./ } } X.` o.Q N c d i :X:X:X",
":X:XE { ,.3.2.=.;./ } } |  .o.` m z d s :X:X:X",
":X:XE | ,.0.2.2.;.} / _ (  . .) N k g i :X:X:X",
":X:XW | 6.0.1.2.:.} _ ( ) )  .` m k d i :X:X:X",
":X:X! X.,.8.2.;.;.' / _ | X. .) M c d t :X:X:X",
":X:X! O.,.3.1.;.-.( / ( | ) X.` B k d t :X:X:X",
":X:XE ` 6.9.4.;.-.( C ] | )  .) m k d u :X:X:X",
":X:XW O.6.q.7.>.] ( C ( | {  .) B k g r :X:X:X",
":X:XE O.6.9.3.2.;.} ( ( ` ` ..) B k g r :X:X:X",
":X:X! ` ,.8.7.1.;.] / ( ` | ..) R z f r :X:X:X",
":X:XE O.<.8.2.;.;.} _ _ |  .o.` R k h u :X:X:X",
":X:XE ` 2.8.2.,.] ' / ] ` ) X.` m z g i :X:X:X",
":X:X! { ,.q.3.2.;.' _ _ ( Q  .Q m k h r :X:X:X",
":X:X! { 6.q.3.2.;.' _ } | `  .Q m k h i :X:X:X",
":X:X! X.6.9.2.;.;.' R } ) ` ..V N z h r :X:X:X",
":X:X^ ` ,.7.2.=.;._ _ ' ` X.X.V m z d r :X:X:X",
":X:X!  .,.8.2.=.;.] _ _ | )  .Q N z d r :X:X:X",
":X:XE { <.9.4.>.} ] / ( ) )  .` R l h r :X:X:X",
":X:X! ` 2.7.3.;.;.} _ _ | `  .` M l d r :X:X:X",
":X:X! O.,.3.7.;.-.} ] _ ` X.o.Q M l d r :X:X:X",
":X:XW ` ,.8.1.>.;.' / ( ) { X.` N k d i :X:X:X",
":X:X^ ` ,.0.7.2.-.( C / ) `  .) N k d i :X:X:X",
":X:X^ O.5.7.2.5.-.C / } | O. .` N k d t :X:X:X",
":X:XE O.2.0.7.>.-.( / ( ` | o.) N z j t :X:X:X",
":X:XW X.,.9.7.;.-.( C ( ) X. .V N c d :X:X:X:X",
":X:X:X:X,.8.1.;.;.( C / ` X.X.Q m l :X:X:X:X:X",
":X:X:X:X:X:X:X;.] ( / ( ( [ U.:X:X:X:X:X:X:X:X",
":X:X:X:X:X:X:X:X:X:X:X:X:X:X:X:X:X:X:X:X:X:X:X"
};
