/* XPM */
static char *result[] = {
/* columns rows colors chars-per-pixel */
"23 248 210 2 ",
"   c #221C1A",
".  c #29211F",
"X  c #2B2521",
"o  c #2F2822",
"O  c #322B25",
"+  c #372F2A",
"@  c #3B332C",
"#  c #37302A",
"$  c #1E1A17",
"%  c #443A33",
"&  c #443A33",
"*  c #4C423A",
"=  c #4A4037",
"-  c #52493F",
";  c #51473E",
":  c #7B513B",
">  c #584C44",
",  c #5D5147",
"<  c #5E5148",
"1  c #5B5B5B",
"2  c #62544C",
"3  c #665A4F",
"4  c #625046",
"5  c #6A5C52",
"6  c #675950",
"7  c #745143",
"8  c #6F6256",
"9  c #736459",
"0  c #756659",
"q  c #7B6D64",
"w  c #7C7B79",
"e  c #7A726F",
"r  c #FF3109",
"t  c #FF3708",
"y  c #D73818",
"u  c #8F4E16",
"i  c #904F15",
"p  c #924F18",
"a  c #935216",
"s  c #965518",
"d  c #985619",
"f  c #9C591A",
"g  c #985717",
"h  c #A15B1C",
"j  c #AE5E1F",
"k  c #A6621E",
"l  c #AA631E",
"z  c #B0621F",
"x  c #AD5838",
"c  c #AC6321",
"v  c #B16321",
"b  c #B66C24",
"n  c #BE6B26",
"m  c #AF692C",
"M  c #8F613A",
"N  c #FE4C0F",
"B  c #FE470E",
"V  c #FE4E11",
"C  c #FB4811",
"Z  c #FF5D13",
"A  c #FD5314",
"S  c #F35917",
"D  c #FF6214",
"F  c #FF6C19",
"G  c #FF7E1A",
"H  c #FE741C",
"J  c #C7572C",
"K  c #C06D26",
"L  c #C16E28",
"P  c #C3752A",
"I  c #C5792B",
"U  c #CE792B",
"Y  c #CB7529",
"T  c #D07A2D",
"R  c #CC7E32",
"E  c #D47134",
"W  c #F46E29",
"Q  c #DE6E26",
"!  c #9B6954",
"~  c #827266",
"^  c #8D7B6D",
"/  c #86756A",
"(  c #937A6A",
")  c #8C7D72",
"_  c #855C46",
"`  c #CE7553",
"'  c #D6821F",
"]  c #D8831F",
"[  c #FF811B",
"{  c #FE9C1F",
"}  c #D78320",
"|  c #D88321",
" . c #DA8B23",
".. c #D1822F",
"X. c #DC8B2E",
"o. c #D98627",
"O. c #CE8132",
"+. c #CA8638",
"@. c #D38432",
"#. c #DC8632",
"$. c #D38B36",
"%. c #DC8B34",
"&. c #D28639",
"*. c #D48C3A",
"=. c #D98D3B",
"-. c #DE9234",
";. c #D6913D",
":. c #DD9139",
">. c #D7892F",
",. c #FF9C22",
"<. c #E18731",
"1. c #E28C34",
"2. c #E18F39",
"3. c #E29137",
"4. c #E2933A",
"5. c #E2983F",
"6. c #F59124",
"7. c #FFA825",
"8. c #FEB126",
"9. c #958478",
"0. c #9C8B7D",
"q. c #968578",
"w. c #8E8075",
"e. c #A2897C",
"r. c #D98D41",
"t. c #D79340",
"y. c #DD9346",
"u. c #DC9847",
"i. c #DF9A4C",
"p. c #DE9648",
"a. c #E59A44",
"s. c #E3974B",
"d. c #E39A4C",
"f. c #E69A49",
"g. c #E69E52",
"h. c #E89F52",
"j. c #E8A14F",
"k. c #E6A14E",
"l. c #E6A153",
"z. c #E8A253",
"x. c #EAA65B",
"c. c #EAA85C",
"v. c #E7A865",
"b. c #9E8C80",
"n. c #919191",
"m. c #9B9B9B",
"M. c #A28F80",
"N. c #A39589",
"B. c #AA9A8D",
"V. c #A59588",
"C. c #AA9C91",
"Z. c #A49A90",
"A. c #B79889",
"S. c #ADA49B",
"D. c #AEA99D",
"F. c #AEA196",
"G. c #B2A59A",
"H. c #B3A99E",
"J. c #B9AA9F",
"K. c #B2A396",
"L. c #AFACA2",
"P. c #ACACAC",
"I. c #B1ADA4",
"U. c #B9ADA3",
"Y. c #B5B1A6",
"T. c #B6B5AC",
"R. c #BAB5AE",
"E. c #BEBAAF",
"W. c #BBB1A7",
"Q. c #B3B4B4",
"!. c #BFBEB6",
"~. c #BCBBB9",
"^. c #C3B7AC",
"/. c #C4BCB3",
"(. c #CCBEB3",
"). c #C2BBB5",
"_. c #C0C0B6",
"`. c #C5C2BA",
"'. c #CBC3BC",
"]. c #CCC1B6",
"[. c #D4C9BD",
"{. c #C6C6C2",
"}. c #C9C7C2",
"|. c #CCC9C2",
" X c #CFCECD",
".X c #D2CDC5",
"XX c #D2CEC9",
"oX c #D9CCC2",
"OX c #DED1C5",
"+X c #D4D2CD",
"@X c #DAD4CD",
"#X c #D4D0C7",
"$X c #D6D6D2",
"%X c #DBD6D1",
"&X c #DBDAD5",
"*X c #DEDDD8",
"=X c #E0DAD5",
"-X c #E2DFDB",
";X c #DEE0DB",
":X c #E2E1DE",
">X c #EAE1DE",
",X c #E6E5E2",
"<X c #E9E5E4",
"1X c #EAE9E7",
"2X c #ECEAE9",
"3X c #EAE7E8",
"4X c #F3EFEE",
"5X c #F5F2F2",
"6X c #F1F0EE",
"7X c #000000",
/* pixels */
"7X7X7X7X7X7X7X7X, , , < q 4 7X7X7X7X7X7X7X7X7X",
"7X7X7X7X7X_ < b.x < 0.K.K.0.V 5 2 : 7X7X7X7X7X",
"7X7X7XN 0.V ! , M.b.b.b.b.K.6 C 8 9 9 C.7X7X7X",
"7X7X0.0.b.0.0.0.b.b.b.b.A.b.C C.9 8 8 C.C.7X7X",
"7X^ 6 w.0.b.b.b.9.0.M.8 b.b.N.C C.9 9 C.C.C.7X",
"7XJ V b.M.b.M.b.0.8 b.b.b.M.e.b.6 V Z.W C.C.7X",
"7X/ x ) ^ 0.b.9 9 / 9 9 b.b.q.M.` C.S.^ ! G.7X",
"7XV 0.^ ^ 0.0.0.0.b.e.q.9 e.J.U.w.C.` ) ) 5 7X",
"7X4 < b.0.0.M.E e.` S b.b.V I.I.< C.V ^ w.H 7X",
"7X< 2 x 2 0.q.5 ) q.b.9.0.b.b.b.b.+.8 ^ V H 7X",
"7X2 , Z ( J 9.B.S.9.) b.9.q.q S Z A ! ,.7.V 7X",
"7Xx 4 , V < < Z Z A ,.,.,.D D ,.,.,.,.,.,.7 7X",
"7XV Z < < Z Z < Z Z ,.,.,.Z ,.F V { ,.,.,.,.7X",
"7XV ,.Z Z Z Z < < A Z ,.,.D ,.,.V Z V ,.,.,.7X",
"7XV D Z ,.< < < < Z ,.,.Z ,.,.,.Z ,.,.,.A ,.7X",
"7XV e ,.,.,.< V < Z ,.,.D Z Z Z ,.Z { G ,.,.7X",
"7XV Z ,.,.Z Z V V V V ,.,.,.F Z { ,.,.,.,.,.7X",
"7XV D D ,.,.Z ,.V ,.,.C ,.,.,.Z D ,.r ,.,.,.7X",
"7XV D [ [ ,.A Z ,.,.,.,.,.,.{ ,.Z Z r t ,.,.7X",
"7XV ,.,.[ [ Z ,.C ,.,.,.,.V ,.D Z ,.7.r r ,.7X",
"7XV ,.,.G [ Z < 4 V ,.,.,.,.r r Z Z { { ,.r 7X",
"7XV ,.V A [ Z Z ,.6.,.8.D Z r V Z < , Z A S 7X",
"7XV [ [ [ [ ,.[ ,.< ,.Z V Z r V x Z A Z < < 7X",
"7XG [ [ H S ,.,.,.< G Z Z D t ,.{ Z Z Z Z < 7X",
"7XV e G w y ,.,.7., G [ Z Z Z r { ,.> 7 < V 7X",
"7XV r V , , > ,.[ G G F r r r r 6.{ , , < 4 7X",
"7Xr V r , <   V G G H V Z t r r r r _ , <   7X",
"7XO V , < C X , N A x < ,.V r r r Z Z Z , @ 7X",
"7X& X t t V O M V C C < ,.,.Z C t $ X < X = 7X",
"7X- & e.r ,.@ . ,.V C ,.Z Z Z A $ # # $ @ > 7X",
"7X2 * . # O @ o 8..   ,.,.,.,.,.# @ % # * 2 7X",
"7X9 2 @ = @ @ @ X @ # X   8.o o = > > * < 8 7X",
"7X0 9 - > & * % @ * * % @   % % - 3 3 , 5 0 7X",
"7X/ 0 3 6 , > > > < > - = % - > 8 8 9 8 0 q 7X",
"7Xq./ 0 9 5 2 6 2 5 5 2 , > 3 5 / w./ / / w.7X",
"7X0.9.) / q q 9 5 0 0 0 5 2 0 ~ q.0.q.q.q.q.7X",
"7XB.0.b.b.q.^ / ~ / / / q 0 ) q.B.K.K.e.0.b.7X",
"7XC.N.V.B.F.N.0.9.q.0.0.9.) b.S.^.].^.K.N.N.7X",
"7XC.C.C.G.J.K.V.M.V.B.B.0.e.K.^.[.OX].J.Z.N.7X",
"7XG.C.G.J.U.J.F.B.C.J.J.C.B.J.].OXOX].J.V.Z.7X",
"7XU.G.G.J.U.^.G.K.G.U.U.F.C.W.(.OXOX].J.F.F.7X",
"7XU.J.P.^.^.^.G.K.U.W.W.G.G.W.(.[.OX[.W.S.F.7X",
"7XR.J.W.^.).).^.U.W.^.R.U.U.^.[.@XOX'.E.D.S.7X",
"7XR.^.^.).'.'.).R.W.^.^.U.U./.|.@XOX[.W.I.S.7X",
"7X).).).'.(.(.).^./.).).W.W.).oXOX[.[./.Y.H.7X",
"7X).).'.}..X|.'.)././.).W.).(.XX=X@X.X/.Y.S.7X",
"7X)./.'.XXoXoX|.'.(.(.(.).).|.XX@X@X|./.U.I.7X",
"7X'.}.|.'.oX+XXX}.{.}.}.'.(.|.XX@XoX'.`.T.Y.7X",
"7X'.|..X+X%X@XXX'.'.(.(.).).(.XX%X%X.X).!.I.7X",
"7X|.}.XX%X%X=X+XXX.XXX}.|.|.XXXX%X%X X).W.I.7X",
"7X XXX+X+X=X=X%XXXXXXX|.|.XX.X%X%X%X'.{.~.I.7X",
"7X.X+X%X=X=X=X@X.XoX.X|.|.(.|.oX%X+X|.(.R.I.7X",
"7X XXX&X&X:X:X=X%X%XXXXX.X XXX+X$X@X|.`.W.Y.7X",
"7X X&X$X=X>X<X-X&X&X$XXXXXXX+X$X$X@X}.).E.L.7X",
"7X%X&X:X:X>X-X=X&X%X$X+X+X#X|.XX#X@X|._.~.I.7X",
"7X&X&X*X<X3X3X>X*X&X$X+X X$X+X$X$X X}._.T.I.7X",
"7X&X&X&X,X1X1X<X-X&X$X%X+X+X+X$X+X#X{.!.R.L.7X",
"7X$X&X-X,X>X-X<X,X*X&X+X$X+X+XXX|..X{.!.~.L.7X",
"7X$X*X*X,X3X1X3X,X&X%X.XXX+X+X+X+X X}.!.R.D.7X",
"7X&X%X*X<X2X1X<X:X*X$X$X$X+X+X$X+X#X}.E.T.I.7X",
"7X$X&X:X-X>X2X<X:X&X&X+X+X$X+X+X@X|._._.~.L.7X",
"7X#X&X-X,X3X1X<X=X%X+X.X.X.X.X+X+X X}.!.R.D.7X",
"7X$X$X:X,X3X1X<X:X*X&X+X+X+X$X+X@XXX{.!.Y.Y.7X",
"7X$X*X-X-X<X1X<X:X*X$X$X+X+X+X+X+X X`._.T.L.7X",
"7X.X&X-X<X2X2X-X*X%X+X#X.X#X.X.X+XXX{.!.T.D.7X",
"7X&X$X-X-X2X2X<X:X*X&X+X+X+X+X+X$X#X}.!.Y.Y.7X",
"7X$X%X=X-X2X2X<X:X*X&X+X+X+X+X+X+XXX'.!.E.L.7X",
"7X$X=X-X<X3X>X-X*X%X&X+X+X#X.X X XXX}.!.T.L.7X",
"7X$X*X-X,X3X2X<X:X*X+X+X$X+X+X+X+X X'._.E.P.7X",
"7X$X&X&X<X2X2X<X:X*X&X+X+X+X+X+X+X+X{.E.R.I.7X",
"7X$X&X:X,X-X<X:X:X;X&X+X+X+X$X|.#X|.`._.R.I.7X",
"7X$X&X-X,X3X1X,X:X&X&X@X+X+X+X+X+X+X{._.E.L.7X",
"7X$X*X&X,X2X4X<X:X*X&X+X+X+X+X+X+X X}.!.T.I.7X",
"7X$X&X:X-X-X<X<X:X*X&X+X+X$X+X+X#X|._._.T.I.7X",
"7X@X&X*X,X3X3X<X*X@X+X#X.X.X#X+X+X X{._.T.D.7X",
"7X$X@X-X,X1X1X<X:X*X&X+X+X+X+X$X+X+X{._.T.Y.7X",
"7X&X&X-X-X>X1X<X:X*X&X+X+X+X+X$X+X|.`.!.E.L.7X",
"7X#X&X-X,X3X2X-X=X%X+X.X.X.X X|.+X+X}.!.T.D.7X",
"7X$X@X-X<X3X2X<X:X*X&X+X+X+X@X+X@X X}.!.Y.L.7X",
"7X$X&X=X-X3X3X<X:X*X&X+X+X+X+X+X+X X`.!.R.I.7X",
"7X$X*X-X<X3X>X-X=X@X$XXXXX.X.X.X X X'._.T.L.7X",
"7X$X&X-X<X3X1X3X,X=X$X$X$X+X+X+X+X+X}._.T.I.7X",
"7X$X&X=X<X3X2X<X:X*X&X+X+X+X+X+X+XXX'.!.T.I.7X",
"7X$X&X-X<X-X>X-X-X*X&X+X+X+X+X.X#X|.}.!.T.L.7X",
"7X$X*X-X,X3X1X<X:X*X$X+X$X+X+X+X+X X}.!.T.L.7X",
"7X$X&X&X,X3X1X<X:X*X&X+X+X+X+X+X+X+X{.E.T.Y.7X",
"7X$X&X*X:X<X>X<X:X*X&X@X+X$X+X+X|.|.}.!.E.L.7X",
"7X#X*X:X,X3X1X1X:X$X+X.X.X|.+X$X$X#X}.!.T.D.7X",
"7X$X%X-X<X2X2X<X:X*X&X+X+X+X+X+X+X+X{.!.Y.L.7X",
"7X$X&X-X-X-X2X<X:X*X$X$X$X+X$X+X+X|.`.!.E.L.7X",
"7X#X*X-X<X2X3X-X&X%X@X.X|..X.X.X+X+X{.!.T.D.7X",
"7X$X%X-X>X1X2X<X:X*X&X+X$X$XXX+X+X+X{.!.Y.I.7X",
"7X$X*X&X-X1X2X1X:X*X&X+X+X+X+X@X+X+X`.!.T.Y.7X",
"7X$X*X-X,X3X>X-X*X@X+XXX.X.X#X|.|.+X'._.E.L.7X",
"7X$X%X-X,X3X1X<X:X*X$X$X+X+X+X+X+X+X{.!.Y.L.7X",
"7X$X&X=X>X1X1X3X:X*X$X$X+X+X+X$X+X+X'.!.T.I.7X",
"7X$X*X*X,X<X>X-X-X*X&X$X X$XXX|..X|.{.!.R.L.7X",
"7X$X*X*X,X3X1X3X:X*X$X$X+X+X+X+X$XXX{.!.T.L.7X",
"7X$X*X=X<X3X1X<X*X*X&X+X$X+X+X$X+XXX{.E.E.L.7X",
"7X$X&X-X>X>X>X<X,X*X$X$X+X+X+X+X#X.X|._.Q.Y.7X",
"7XXX*X-X,X3X2X,X:X&X#X.X.X+X+X+X+XXX}.!.R.L.7X",
"7X$X$X-X,X3X2X3X:X*X&X+X+X+X+X$X+XXX}.!.Y.L.7X",
"7X$X=X-X-X-X1X3X:X*X$X$X+X+X$X+X+X|._._.R.L.7X",
"7X#X=X-X<X1X1X:X=X$X@X.X.X.X|.#X$XXX}._.R.D.7X",
"7X$X%X-X<X3X2X<X-X*X&XXX+X+X+X+X$X#X}._.Y.L.7X",
"7X$X&X-X=X1X2X<X,X*X&X$X+X+X$X+X+X#X`._.T.Y.7X",
"7X#X&X:X<X1X<X-X%X%XXX.X.X.X.X.X|.+X{.!.~.D.7X",
"7X$X@X:X>X2X2X<X:X*X&X$X+X+X$X$X+X X{.!.Y.L.7X",
"7X&X*X=X:X3X2X<X:X*X&X+X+X+X$XXX+X X`.E.~.L.7X",
"7X$X&X-X,X<X>X-X=X*X$X$X$X+XXX|..X#X}._.T.P.7X",
"7X$X&X-X,X3X1X<X:X*X&X+X+X+X+X+X$X#X}.!.R.L.7X",
"7X$X*X&X,X1X2X<X:X*X$X$X+X+X+X$X+X#X{.!.R.I.7X",
"7X%X*X-X<X-X-X<X:X*X$X+X$X+X+X+X|.|.{.!.R.I.7X",
"7XXX*X-X<X1X4X<X:X*X@XXX|.+X+X+X$XXX}.!.T.D.7X",
"7X$X%X-X<X<X2X<X:X*X$X$X$X+X@X$X@X#X}._.Y.L.7X",
"7X$X=X-X-X-X2X<X:X*X$X$X+X+X+X+X$X|.`.!.~.I.7X",
"7XXX&X-X,X3X1X<X*X$X+X.X#X|.#X+X XXX}._.R.L.7X",
"7X&X$X-X<X1X3X<X,X&X&X+X+X+X+X+X+X X}.!.Y.L.7X",
"7X$X&X:X-X1X1X3X:X-X&X+X+X+X$X+X+XXX_._.R.L.7X",
"7X+X&X-X<X3X<X-X=X$X#X.X#X#X|.#X@X+X{.!.R.L.7X",
"7X&X@X:X,X3X1X3X*X*X$X$X+X+X+X+X+XXX{.!.Y.I.7X",
"7X$X&X=X-X1X1X<X,X*X&X$X+X+X+X+X+X+X`.!.R.L.7X",
"7X$X&X*X<X2X>X-X*X*X$X+X+XXX|..X.XXX}.!.R.I.7X",
"7X$X*X:X:X3X2X<X:X*X&X+X$X+X$X+X$X X}.!.R.L.7X",
"7X$X&X=X<X2X4X<X,X*X$X$X+X+X+X+X+X X'.E.~.L.7X",
"7X$X&X-X,X-X-X-X:X;X$X$X+X+X+X#X.X.X{.!.R.L.7X",
"7X$X&X-X>X2X2X<X;X*X&X$X+X$X+X+X+XXX{.!.T.L.7X",
"7X$X$X=X<X2X2X<X;X;X$X+X+X+X+X+X+X+X'.!.R.I.7X",
"7X$X=X-X:X>X>X<X:X*X$X+X+X@X+X$X.X[.`._.Q.L.7X",
"7X:X*X-X,X3X1X1X:X@X@X.X.X.X+X+X+X X}._.T.E.7X",
"7X*X,X1X,X3X1X1X:X*X&X+X+X$X+X+X+X X}.}._.E.7X",
"7X:X,X1X6X5X5X4X,X&X&X+X+X+X+X&X;X;X+X|._.T.7X",
"7X:X>X1X6X5X5X4X2X>X:X*X*X*X*X*X*X&X+X'._.E.7X",
"7X:X,X1X6X5X5X6X2X>X:X;X*X*X*X*X*X&X+X'._.!.7X",
"7X:X:X1X2X5X5X6X6X:X:X*X*X*X*X*X*X&X+X'._.T.7X",
"7X:X,X1X6X5X5X6X6X,X:X;X;X*X*X*X*X*X+X|._.T.7X",
"7X;X,X1X4X5X5X4X2X:X:X;X*X*X*X*X*X&X+X'._.E.7X",
"7X;X,X1X6X5X5X4X6X1X:X*X*X*X*X*X*X&X+X'._.T.7X",
"7X:X,X1X6X4X5X4X1X1X:X;X*X*X*X*X*X&X+X|._.T.7X",
"7X:X>X1X6X5X5X4X1X:X:X;X*X*X*X*X*X&X+X|._.E.7X",
"7X:X1X1X6X6X5X4X1X,X:X*X=X*X*X*X*X&X+X'.!.E.7X",
"7X:X:X1X6X5X5X4X1X,X:X=X;X*X;X=X*X&X+X}.!.E.7X",
"7X:X1X1X6X5X5X6X6X,X:X;X*X*X*X*X*X&X+X|.!.E.7X",
"7X:X:X1X6X5X5X6X1X,X:X;X=X*X*X;X*X&X#X}.!.T.7X",
"7Xn.,X1X2X5X5X6X2X1X:X;X*X*X*X*X*X&X+X}._.1 7X",
"7Xn.Q.+X6X5X5X6X2X,X:X;X*X;X*X*X;X&X Xm.w 1 7X",
"7Xn.Q. X6X2X X5X2X,X:X;X*X&X*X*Xm.L.Q.m.w 1 7X",
"7X:XT. X6X2X XQ.m.m.P.{.!.P.m.n.m.P.Q.m.w E.7X",
"7X;X,X+X6X2X XQ.m.m.P.}.~.P.m.n.m.L.Q.m.!.~.7X",
"7X;X,X1X6X6X XQ.m.m.P.{.~.P.m.n.m. X+X}.!.R.7X",
"7X} ,X1X6X5X5X5X2X1X:X*X*X*X*X*X*X&X X}.!.a 7X",
"7X} >.;.6X5X5X6X2X,X:X*X*X:X*X-X*X&X$Xv f i 7X",
"7X .-.4.f.z.v.5X2X,X,X*X*X=X*X*X#.U n v h d 7X",
"7X .-.4.z.c.z.u.r.&.O.O.$.%.%.1.#.@.n b l d 7X",
"7X] %.4.z.z.s.p.r.&.$.O.@.%.4.1.3...K b h d 7X",
"7X} X.5.d.x.s.y.=.&.R O.$.:.4.3.3.$.I v h a 7X",
"7X .X.k.k.z.s.i.r.&.O.$.$.%.%.3.3.@.I z h a 7X",
"7X .X.a.a.c.g.y.r.&.R O.@.=.4.3.#.@.I b l g 7X",
"7X] X.:.z.c.l.y.&.*.+.O.@.:.4.1.#.U K b k g 7X",
"7X} -.5.a.c.z.i.p.t.$.$.@.%.3.3.3.Y n z h a 7X",
"7XU #.4.s.x.s.i.y.t.+.$.$.:.3.3.<.T K b f a 7X",
"7X' X.4.f.g.s.r.r.@.O.@.$.%.4.3.1...P b h s 7X",
"7X] X.2.z.z.g.g.r.+.O.O.@.%.3.3.#.T P b f i 7X",
"7X| X.2.f.z.s.y.r.&.O.@.@.%.#.4.3.@.K l k s 7X",
"7X| X.4.j.h.s.y.=.;.+.$.@.:.%.1.3.U n v k s 7X",
"7X| %.4.g.g.s.y.r.r.$.$.#.=.#.<.3.U L v k d 7X",
"7X] -.5.a.g.p.i.r.t.$.$.@.:.X.3.:.@.L v h s 7X",
"7X] -.5.f.z.s.i.r.=.$.@.@.-.4.4.3.@.n v f s 7X",
"7X] 3.4.a.h.l.u.r.;.$.O.@.:.4.4.#.T P l l s 7X",
"7X| X.4.a.h.l.s.r.;.$.O.@.:.#.<.1.@.P b h s 7X",
"7X| X.4.f.g.s.d.u.;.+.@.@.#.#.1.#...P b k u 7X",
"7X| %.4.f.g.i.g.u.;.$.$.$.#.%.1.1.$.I v h i 7X",
"7X} -.4.f.l.d.y.y.;.+.@.$.%.#.1.4.@.I v f s 7X",
"7X .X.4.f.g.s.y.u.t.+...@.#.%.3.#.@.I b l d 7X",
"7X .X.5.f.g.x.y.p.t.O.O.@.#.3.<.#.@.n b k f 7X",
"7X] X.a.l.x.s.g.r.$.O.$.:.:.3.<.#.@.I b l d 7X",
"7X] -.3.l.z.d.p.r.&.O.O.:.@.#.<.#...K z l i 7X",
"7X} X.4.z.c.d.p.r.$.$.O.=.:.#.1.1.@.K v c u 7X",
"7X' X.=.z.h.s.y.r.t.$.$.@.%.1.<.1.@.K v k i 7X",
"7X' X.5.l.z.s.y.p.t.+.$.%.%.#.1.#.@.K b k i 7X",
"7X| X.4.f.x.l.i.y.&.$.$.:.$.#.3.1.U n v l d 7X",
"7X .#.2.a.h.g.i.r.&.O.$.*.%.3.3.<.Y K z k d 7X",
"7X| X.2.f.h.g.y.r.&.O.O.@.%.#.1.#.U P b f f 7X",
"7X' X.4.f.x.s.y.p.t.O.@.@.%.%.<.<...P l f a 7X",
"7X| -.4.s.x.s.y.u.;.$.O.@.#.:.5.1.T K z h i 7X",
"7X .-.4.f.x.s.y.u.;.$.R @.:.#.<.1.U K v l i 7X",
"7Xo.X.4.f.h.z.i.r.t.+.O.$.:.4.1.<.U P z k i 7X",
"7X' X.4.a.h.g.y.r.&.$.$.:.-.4.3.#...K j k i 7X",
"7X| X.4.f.h.g.y.r.t.O.$.=.:.3.3.3...n b k a 7X",
"7X' X.a.f.z.s.y.r.=.R O...$.X.3.:...n b l a 7X",
"7X .X.4.g.z.s.y.r.O.O.O.@.#.:.3.%.U n b h g 7X",
"7X .X.4.d.x.p.y.p.t.$.$.:.@.3.3.%.@.I b f g 7X",
"7X} -.5.a.x.a.d.u.;.+.$.:.%.:.3.<...I l k s 7X",
"7X .-.5.k.c.l.u.r.;.$.*.@.:.<.3.1.@.P z h u 7X",
"7X] 3.k.d.c.d.i.r.&.O.O.$.%.:.3.#...P z l s 7X",
"7X .X.5.f.z.s.y.y.&.O.@.$.:.:.3.%.U I n h s 7X",
"7X] X.5.f.z.z.y.r.+.R R $.%.-.<.3...K b c i 7X",
"7X] 4.2.f.l.d.y.r.&.R R $.:.#.<.o.U K b h i 7X",
"7X .X.a.g.x.d.y.r.&.O...:.%.4.<.<.Y L v h u 7X",
"7X] X.4.s.h.s.y.t.;.$.$.=.:.#.3.#.T L b l a 7X",
"7X .X.5.f.z.s.y.r.&.R &.*.%.#.3.1.R n b c d 7X",
"7X .X.4.h.z.d.r.r.&.O.*.@.#.1.<.=.U I b k f 7X",
"7X] X.4.l.x.g.p.y.&.R @.@.#.<.1.3...n b c i 7X",
"7X .X.4.z.x.s.g.r.;.O.U @.:.#.1.%.T n b k a 7X",
"7X .#.4.a.c.g.r.u.$.$.@.=.:.X.1.<.T P l h i 7X",
"7X .X.4.f.z.s.y.r.*.$.@.$.:.%.4.#.T n v h s 7X",
"7X .-.:.a.h.s.y.r.&.+.$.%.:.:.3.1.T K j f s 7X",
"7X] -.4.a.h.s.d.p.$.*.*.:.@.#.4.1.T K b k g 7X",
"7X .X.:.f.g.s.s.p.$.$.:.@.@.%.4.#.T L j k i 7X",
"7X| X.a.f.h.d.y.r.+.O.$.@.%.<.3.2.T P b l d 7X",
"7X .X.4.f.x.d.y.r.t.O.O.@.#.1.4.:.U L b h f 7X",
"7X .X.4.h.h.s.y.r.*.O.:.:.@.#.3.4.U n b f s 7X",
"7X| X.4.d.z.d.y.r.&.O.$.:.:.%.4.2.U P j h s 7X",
"7X| -.4.f.z.d.d.p.&.O.$.*.%.X.3.#.U P b h s 7X",
"7X] -.5.z.c.s.i.u.t.+.*.%.%.%.<.#...n z k g 7X",
"7X] %.4.z.c.d.i.y.t.$.@.@.@.1.3.3.@.n v h s 7X",
"7X .X.4.k.z.d.r.r.r.O.O.*.:.#.3.<.@.P b h a 7X",
"7X] X.4.f.l.d.p.r.$.O.O.@.%.4.<.2.Y P v h i 7X",
"7X .-.5.d.g.s.y.r.&.O.$.@.:.%.3.1.@.P v h a 7X",
"7X] -.3.f.h.s.y.r.$.O.$.:.:.#.#.4.Y K z f a 7X",
"7X] X.3.l.x.d.d.r.&.O.O.@.:.4.<.#.U K z k a 7X",
"7X] -.k.z.x.l.i.r.=.$.O.#.:.#.1.<.Y K b k u 7X",
"7X .3.5.z.g.l.i.u.t.+.@.@.:.#.<.<.T n j l u 7X",
"7X .:.4.d.z.l.i.u.;.$.O.@.%.:.1.<.@.P b l u 7X",
"7X .X.:.f.h.d.g.p.;.$.O.@.$.%.3.%.@.n b c i 7X",
"7X .X.a.f.h.s.y.r.&.O.$.:.:.3.3.3.@.L b k g 7X",
"7X] X.4.l.h.s.y.r.&.O.$.*.%.#.3.1...K n k s 7X",
"7X .X.:.d.x.z.i.p.&.O.$.%.#.#.<.<.T K b k u 7X",
"7X .X.4.j.c.l.i.p.$.$.$.@.#.%.#.<.U K j k s 7X",
"7X] -.5.l.c.l.d.u.$.O.$.:.@.#.<.#.U P z k a 7X",
"7X .-.4.z.z.d.y.u.=.O.$...%.#.<.<.Y I b l i 7X",
"7X] -.4.a.z.d.y.u.r.$.$.@.:.#.4.#.T P b f p 7X",
"7X .:.4.d.h.s.y.&.t.$.$.*.:.#.<.#.@.I b f g 7X",
"7X] 1.2.h.c.s.d.u.r.O.$.=.#.#.<.<...P b h u 7X",
"7X| X.4.a.x.s.i.t.r.+.O.@.#.%.1.3.@.K v h p 7X",
"7X .-.4.l.c.g.y.r.t.$.$.:.:.%.1.3...K v h p 7X",
"7X .-.4.j.g.l.y.r.t.$.$.*.#.%.4.#.T K v h u 7X",
"7X .X.4.z.l.z.y.p.$.O.$.@.@.4.3.#.U K z f a 7X",
"7X| X.4.l.l.d.i.u.&.O.O.@.@.-.4.1.@.n v k g 7X",
"7X| -.4.f.c.l.i.u.&.R ..#.%.#.1.%.@.n v k a 7X",
"7X .3.k.k.j.f.y.y.+.R @.*.:.5.1.<...I v f i 7X",
"7X} -.a.k.j.l.d.r.&.U O.:.:.3.5.3...I b f a 7X",
"7X .X.:.z.x.l.u.r.&.O.U @.$.3.3.<...P n f a 7X",
"7X7XX.4.z.x.z.y.r.&.O.@.@.%.%.4.<.T n z h 7X7X",
"7X7X7X4.a.h.s.y.u.;.O.O.@.#.4.1.1.T n b 7X7X7X",
"7X7X7X7X7Xh.s.s.r.&.O.O.@.%.#.<.#.T 7X7X7X7X7X",
"7X7X7X7X7X7X7X7X7X7X7X7X7X7X7X7X7X7X7X7X7X7X7X",
"7X7X7X7X7X7X7X7X7X7X7X7X7X7X7X7X7X7X7X7X7X7X7X"
};
