/* XPM */
static char *result[] = {
/* columns rows colors chars-per-pixel */
"23 248 200 2 ",
"   c #1C1715",
".  c #231E1B",
"X  c #25201C",
"o  c #2D2622",
"O  c #312925",
"+  c #352E28",
"@  c #3C332E",
"#  c #3A3531",
"$  c #443A34",
"%  c #4A3F39",
"&  c #443A33",
"*  c #4D433B",
"=  c #4A4037",
"-  c #51463D",
";  c #53483F",
":  c #574A41",
">  c #5B4D45",
",  c #5D5047",
"<  c #5E5148",
"1  c #5E5E5E",
"2  c #474340",
"3  c #63554B",
"4  c #65574D",
"5  c #655950",
"6  c #6B5D53",
"7  c #715E52",
"8  c #6D6159",
"9  c #6F6156",
"0  c #73655B",
"q  c #77675B",
"w  c #7C6D64",
"e  c #746961",
"r  c #7B7168",
"t  c #7A7067",
"y  c #7C7C7C",
"u  c #8E4D14",
"i  c #904F16",
"p  c #925116",
"a  c #965619",
"s  c #995919",
"d  c #985619",
"f  c #A45C1D",
"g  c #AA641F",
"h  c #AA6420",
"j  c #B66622",
"k  c #B66823",
"l  c #B96B24",
"z  c #BD7126",
"x  c #BF7328",
"c  c #D37B17",
"v  c #D47C19",
"b  c #C77329",
"n  c #C87529",
"m  c #CB7E2C",
"M  c #C67227",
"N  c #D67F2F",
"B  c #CE7F30",
"V  c #D67F30",
"C  c #816F64",
"Z  c #877569",
"A  c #8A7F79",
"S  c #877B72",
"D  c #917F71",
"F  c #B47D66",
"G  c #AF7F4F",
"H  c #CD812E",
"J  c #DA8626",
"K  c #DA8926",
"L  c #D7822F",
"P  c #D8822E",
"I  c #DC8C29",
"U  c #DD922C",
"Y  c #CE8132",
"T  c #D28434",
"R  c #D98633",
"E  c #D38A36",
"W  c #DC8C34",
"Q  c #D68C3C",
"!  c #DB8E39",
"~  c #D28638",
"^  c #DE9136",
"/  c #D6903A",
"(  c #DD9139",
")  c #E28A34",
"_  c #E18632",
"`  c #E29137",
"'  c #E39439",
"]  c #E19A3B",
"[  c #8B817A",
"{  c #938375",
"}  c #97877A",
"|  c #95897D",
" . c #9B8B7C",
".. c #B2856E",
"X. c #DA8D41",
"o. c #DB9345",
"O. c #DE9A4C",
"+. c #D79040",
"@. c #E49745",
"#. c #E59846",
"$. c #E3974B",
"%. c #E3994C",
"&. c #E69E52",
"*. c #E89E53",
"=. c #E6A14D",
"-. c #E8A24D",
";. c #E5A153",
":. c #E8A054",
">. c #EAA65B",
",. c #EAA85D",
"<. c #CC9075",
"1. c #ECAA60",
"2. c #898887",
"3. c #928C85",
"4. c #998E85",
"5. c #96928C",
"6. c #9A938D",
"7. c #9D9185",
"8. c #9F9994",
"9. c #989795",
"0. c #A39385",
"q. c #A3958A",
"w. c #A6998E",
"e. c #AA9A8C",
"r. c #A9978B",
"t. c #A49C94",
"y. c #AC9E92",
"u. c #A69F9A",
"i. c #B09F93",
"p. c #ABA195",
"a. c #A7A19B",
"s. c #AAA29B",
"d. c #AEA99E",
"f. c #A7A195",
"g. c #B2A196",
"h. c #B3A59B",
"j. c #B3A99E",
"k. c #BAAA9F",
"l. c #A3A3A2",
"z. c #ACA7A1",
"x. c #AEA9A2",
"c. c #AEAEAE",
"v. c #B2ACA4",
"b. c #BAADA4",
"n. c #B3AEAA",
"m. c #BAB0A7",
"M. c #B6B2AB",
"N. c #BCB5AC",
"B. c #B8B5AB",
"V. c #BAB6B0",
"C. c #BDB9B3",
"Z. c gray74",
"A. c #CA9B85",
"S. c #C1B5AC",
"D. c #C2B8AF",
"F. c #CBBAAC",
"G. c #C4BCB4",
"H. c #C3BEBA",
"J. c #C7BBB3",
"K. c #D1BFB4",
"L. c #C0AEA0",
"P. c #DEC3AD",
"I. c #C4C2BB",
"U. c #CAC4BD",
"Y. c #CBC0B5",
"T. c #D3C5BB",
"R. c #D6C6B7",
"E. c #C2C2C2",
"W. c #CBC6C1",
"Q. c #CDCBC4",
"!. c #CECECD",
"~. c #D1CBC4",
"^. c #D3CFCB",
"/. c #D9CEC6",
"(. c #D4D1CD",
"). c #DAD3CC",
"_. c #D4D0C7",
"`. c #D6D5D0",
"'. c #DBD6D2",
"]. c #DBD9D5",
"[. c #DEDDD9",
"{. c #D5CFD1",
"}. c #E6D7CB",
"|. c #E6D8CD",
" X c #E3D3C5",
".X c #E4DBD4",
"XX c #E1DEDA",
"oX c #E8DFDB",
"OX c #E8DDD6",
"+X c #E4E2DE",
"@X c #EAE2DD",
"#X c #E5E4E1",
"$X c #E9E6E3",
"%X c #EAE9E6",
"&X c #EDEBEA",
"*X c #F2EEED",
"=X c #F2F1EF",
"-X c #F6F3F2",
";X c #FEFFFE",
":X c #000000",
/* pixels */
":X:X:X:X:X:X:X:X:X:X:X:X:X:X:X:X:X:X:X:X:X:X:X",
":X:X:X:X:X:X:X:X:X:X:X:X, < < < < :X:X:X:X:X:X",
":X:X:X:X:X:X:X:X:X:X:X, < < 5.< < 3 :X:X:X:X:X",
":X:X:X:X:X:X:X:X:X:X:X, , < 7 < < < :X< :X:X:X",
":X:X:X:X:X:X:X:X:X:X:Xu.< < 6 e < < M.< :X:X:X",
":X:X:X:X:X:X:X:X:X:X5 3 < < 8 5.8 6 < < :X:X:X",
":X:X:X:X:X:X:X:X:Xa.u.< < l.u.7 8 8 6., t :X:X",
":X:X:X:X:X:X:X:Xu.< 5.< < < z.8 8 8 8 < 5.:X:X",
":X:X:X:X:X:X:X:XM.n.3 , < u.a.7 6 s.l.8 6.:X:X",
":X:X:X:X:X:X:Xr r M.8.r a.a.0 u.8 s.u.8 0 :X:X",
":X:X:X:X:X:X:Xr r r w r r a.z.a.3 s.8 8 6 :X:X",
":X:X:X:X:X:X:X^.r w 5.a.r u.u.< < u.6 S M.].:X",
":X:X:X:X:X:X:X(.r r r u.t.t a.< < 8 8 8.n.M.:X",
":X:X:X:X:X:X:X^.(.^.^.z.a.r < < < 6 6.u.m.5.:X",
":X:X:X:X:X:XQ.~.(.(.~.(.A A r r A u.5.6.5.^.:X",
":X:X:X:X:X:Xu.^.~.(.(.(.A A r r u.5.5.5.5.^.:X",
":X:X:X:X:X:X).u.(.~.(.(.A ^.8.A r u.u.6.^.^.:X",
":X:X:X:X:X:X{.~.^.{.< < A A ^.`.A r ^.{.^.Q.:X",
":X:X:X:X:X:X^.(.w (.< ^.A 8 8 A A A {./.~.*X:X",
":X:X:X:X:X:X^.^.(.A D.{.{.8 8 6 A A {.^.V.:X:X",
":X:X:X:X:X~.(.~.^.^.(.C.~.^.a.7 7 [ ^.^.6.:X:X",
":X:X:X:X:X(.^.(.(.^.^.(.(.^.s.0 8 A A ~.V.:X:X",
":X:X:X:X:X(.~.^.{.^.~.Q.).^.^.a.6 8 `.{.6.:X:X",
":X:X:X:X:X(.^.~.(.^.^.`.{.~.~.a.z.!.!.~.6.:X:X",
":X:X:X:X:X^.^.^.~.^.{.^.(.(.^.a.n.V.6.6.8.:X:X",
":X:X:X:X:X(.(.(.^.^.~.^.).^.{.!.H.^.^.^.4.:X:X",
":X:X:X:X~.(.~.^.^.`.(.{.^.~.~.~.^.~.~.^.[ :X:X",
":X:X:X:X^.(.(.^.~.(.^.^.^.`.^.^.{.^.^.^.t.:X:X",
":X:X:X:X{.~.(.(.^.~.~.^.(.^.^.{.^.M.{.^.6.:X:X",
":X:X:X:X(.(.~.^.V.z.{.^.~.~.~.~.~.6.n.t.< :X:X",
":X:X:X:X^.`.(.~.^.t.H.^.^.`.!.{.!.t.n.M.> :X:X",
":X:X:X:XU.^.^.`.^.x.^.n.H.^.8.^.t.M.n.M.< :X:X",
":X:X:X:X(.I.^.(.(.(.(.~.~.~.8.^.(.8.4.6.< z.:X",
":X:X:X^.{.^.E.{.^.(.^.(.`.^.{.^.^.^.6.8.< 6.{.",
":X:X:X^.).(.(.E.^.(.(.(.^.(.(.(.!.`.n.n.3 4.E.",
":X:X:Xe ~.^.^.^.^.U.t.^.`.(.(.^.^.`.n.n.5 3.H.",
":X:X:X< ^.~.^.^.(.^.6.(.U.I.E.E.I.W.n.n.5 4.Q.",
":X:X:X^.`.^.~.^.^.`.6.^.^.{./.{.(.^.6.n.6 t.:X",
":X:X:X(.^.{.^.(.^.~.(.(.(.^.^.(.{.(.x.6.e :X:X",
":X:X:X^.~.^.^.(.^.^.^.~.~.~.~.~.Q.^.z.r :X:X:X",
":X:X:X`.^.^.(.^.^.E.V.^.!.^.{.^.(.(.6.9.:X:X:X",
":X:X:X^.^.t.^.~.6.v.6.t.6.`.(.(.(.^.6.5.:X:X:X",
":X:X(.~.^.x.(.^.^.~.~.~.^.`.^.^.~.~.6.r :X:X:X",
":X:X:X^.~.x.(.(.^.`.^.{.^.^.^.^.^.`.v.< :X:X:X",
":X:X~.(.^.a.(.^.{.^.^.(.`.^.{.(.^.^.^.> :X:X:X",
":X:X^.^.{.x.^.~.~.^.`.^.^.{.(.(.^.~.(., :X:X:X",
":XH.^.^.^.6.(.(.^.(.~.~.~.~.~.~.^.Z.5.(.:X:X:X",
":XV.M.^.~.v.^.(.(.(.(.(.^.(./.^.(.^.^.(.:X:X:X",
":XV.u.5.^.v.~.^.^.{.).^.(.^.^.(.(.(.~.`.:X:X:X",
":XV.u.v.6.(.(.~.^.~.^.(.(.(.^.^.~.(.^.{.:X:X:X",
":XC.t.e v.`.(.^.^.^.{.^.(.(.(.^.^.`.^.^.:X:X:X",
":X:X8.8 d.^.^.`.(.(.^.^.(.(.^.(.(.^.~.M.:X:X:X",
":X:X6.n.x.{.~.{.^.{.^.`.{.^.^.`.^.~.^.5 :X:X:X",
":X:X~.^.u.Q.^.^.~.~.~.~.~.~.~.~.(.(.(.:X:X:X:X",
":X:X{.~.v.{.Q.6.`.^.^.`.^.^.v.!.(.(.(.:X:X:X:X",
":X:X^.^.d.^.^.`.!.6.H.^.W.n.(.(.^.~.(.:X:X:X:X",
":X-X^.`.v.^.~.^.^.^.^.`.^.{.(.~.~.(.(.:X:X:X:X",
":X^.Q.^.a.(.^.^.^.~.~.~.~.~.^.^.^.(.^.:X:X:X:X",
":X^.^.v.^.(.(.{.^.`.^.^.(.(.^.^.^.`.^.:X:X:X:X",
":X^.V.3.~.~.(.^.^.^.^.{.^.(.{.5.6.V.).:X:X:X:X",
":X^.^.5.V.^.~.~.^.^.^.^.^.~.~.3.5.H.^.:X:X:X:X",
":X(.~.^.^.5.(.(.^.^.^.^.(.(.^.5.5.3.~.:X:X:X:X",
":X(.^.~.^.^.{.(.^.^.).!.(.(.x.5.3.| ^.:X:X:X:X",
":X~.`.z.^.~.^.^.^.{.5.a.^.(.5.4.Q.3.^.:X:X:X:X",
":X^.(.(.(.(.^.~.~.y.u.u.~.~.(.^.(.(.~.:X:X:X:X",
":X(.~.^.^.{.^.`.3.3.^.(.).^.(.a.(.^.[ :X:X:X:X",
":X^.(.^.~.^.^.(.M.^.^.(.{.^.3.(.~.(...:X:X:X:X",
":X~.(.^.(.~.~.~.^.(.(.(.^.~.~./.u.(.(.:X:X:X:X",
":X(.(.(.`.^.^.(.(.(.^.(.^...A.i.(.^.^.:X:X:X:X",
":X(.(.~.^.{.K.^.^.(.(.^.)...!.!.(.^.(.:X:X:X:X",
":X!.^.(.~.~./.A.A.^.(.(.^.^.^.~.^.^.(.:X:X:X:X",
":XK.(.(.{.^.).~.~.W.<.<.~.^.^.{.(.(.(.:X:X:X:X",
":X`.~.^.^.^.{.^.^.^.{.(.(.F ^.^.(.  (.:X:X:X:X",
":X^.F ~.~.^.).(.`.^.^.(.<.).^.^.~.+ (.:X:X:X:X",
"Z ^.^.(.K.^.~.~.~.^.^.~.F Q.^.^.(.& # :X:X:X:X",
"6.n.. {.^.F F ^.^.^.^.^.`.^.^.^.^.% o :X:X:X:X",
"8.O @ ~.{.^.(.(.^.^.`.^.^.<.^.^.~.* @ :X:X:X:X",
"q.@ & ^.^.o ~.(.% o c.^.^.Q.. . (.> % :X:X:X:X",
"a.% * . ^.& .   O & O ^.^.^.@ @ O : * :X:X:X:X",
"a.- ; @ P.$ @ + & $ & O .   $ % @ 3 ; :X:X:X:X",
"s.: < % P.- % & % * = & @ + % * % 4 , :X:X:X:X",
"M.3 6 * R.> * = * : * % % & - : - 7 4 :X:X:X:X",
"N.6 C 3 & 6 : : : 3 : - * * > < ; q 6 :X:X:X:X",
"C.C  .q - w 5 , < 5 4 > : : 5 6 3 C q :X:X:X:X",
"I.{ 0.7.3 { 7 4 6 q 6 3 > > 7 q 6 D C :X:X:X:X",
"^.7.r.L.0 h.Z 7 9 C q 6 5 5 w Z 9 { D :X:X:X:X",
"/.q.r.F.S R.} Z C { S q 9 9 Z } w { { :X:X:X:X",
"[.w.i.F.r. Xe.D { 0.0.Z q q } e.{ } } :X:X:X:X",
"XXr.h.J.S.|.F.e.0.e.g.} S Z i.e.0.} } :X:X:X:X",
"|.y.h.F. X|.K.i.q.g.h.e.7.} g.y.0. .| :X:X:X:X",
"[.u.b.K. X XF.b.w.g.k.e.0.0.i.g.w.7. .:X:X:X:X",
"XXi.b.R.|.|.R.b.y.h.k.u.y.e.h.g.w.7.4.:X:X:X:X",
"].x.b.K.|.|.T.b.p.h.k.g.t.p.h.h.e.7.7.:X:X:X:X",
"XXv.S.T.}.}.R.m.g.b.b.h.e.g.h.j.p.q.7.:X:X:X:X",
"XXk.S.~..XOX~.S.k.v.m.j.s.h.b.j.p.q.7.:X:X:X:X",
"'.b.S.~.|.|./.S.b.b.S.j.h.h.m.b.p.w.q.:X:X:X:X",
"XXN.J./.|.|.T.J.b.N.S.b.h.h.k.b.h.t.q.:X:X:X:X",
"XXb.J./..XOX/.G.b.N.S.b.b.v.N.b.j.u.w.:X:X:X:X",
"'.G.J.).OXoX).G.N.S.S.m.v.m.D.N.h.f.w.:X:X:X:X",
"XXG.Y.).|.|./.U.D.D.J.N.m.b.N.m.v.p.f.:X:X:X:X",
"[.D.W.).@X@X).U.G.G.G.N.N.N.G.D.v.p.w.:X:X:X:X",
"'.Y.U.).OX@X).T.G.J.G.G.N.N.G.N.j.d.f.:X:X:X:X",
"XXI.Q.).OXOX).T.I.J.G.G.D.N.D.C.m.d.p.:X:X:X:X",
"[.Y./.).@X@X'.~.G.J.I.G.G.J.Y.G.N.j.t.:X:X:X:X",
"[.U.W..XoX$X|.~.H.K.U.H.J.G.I.G.m.d.s.:X:X:X:X",
"[.Q.^.].OXOX.X^.W.U.U.H.H.G.G.D.N.v.s.:X:X:X:X",
"XXU.^..X$X@X.X/.W.W.U.U.I.I.Y.I.C.v.f.:X:X:X:X",
"[.~.~.[.#X#X.X{.W.T.E.U.U.I.W.I.N.v.d.:X:X:X:X",
"[.^.(.XXOXoXXX{.~.W.Q.U.Y.W.U.G.C.v.d.:X:X:X:X",
"XXW.`.OX$X$X.X).~.U.U.U.U.W.W.U.C.B.d.:X:X:X:X",
"[.^./.XX$X$XXX'.^.^.Q.Q.W.W.Q.U.G.v.d.:X:X:X:X",
"[.^.'.XXoXoXXX].(.~.Q.Q.Q.Q.U.G.H.B.d.:X:X:X:X",
"XX/.].oX$X$X+X[.`.U.U.U.Q.Q._.U.H.B.d.:X:X:X:X",
"].`.`.XX$X%XOX].`.`._.!.Q.!._.U.C.B.x.:X:X:X:X",
"XX`..XXXoX#X+X].`._.`.!.!.!.U.I.I.B.v.:X:X:X:X",
"XX{.XX#X$X$X+X[.`.U.U.U.!._.`.U.I.B.j.:X:X:X:X",
".X].`.#X%X%X+XXX]._.`._.!._._.Q.I.B.v.:X:X:X:X",
"[.].[.XX@X%X$X[.]._.`.!.!.`.U.U.I.B.v.:X:X:X:X",
"[.'.[.oX%X&X+X[.`._.U._._.!.`.Q.I.B.d.:X:X:X:X",
"[.'.].#X%X&X+X[.`.`._.`.`.!.`.Q.I.B.v.:X:X:X:X",
"`.].[.+X@X%X#XXX].`.`.`.`.`._.I.I.V.B.:X:X:X:X",
"`.'.[.#X%X&X#X[.`._.Q.U._.`.`.Q.I.B.d.:X:X:X:X",
"!.].'.#X%X&X#XXX].`._.`.`.`.!.Q.I.B.v.:X:X:X:X",
"(.].[.[.+X&X#X+X].`.`.`.`.`._.I.I.B.v.:X:X:X:X",
"{.].[.#X&X%X#X.X`._.T._._.`.`.Q.I.B.d.:X:X:X:X",
"{.].{.#X%X&X#XXX].`.`.`.`.!.`.Q.I.B.v.:X:X:X:X",
"^.'.XXXXoX&X#XXX[.`.`.`.`.!.!.U.I.C.v.:X:X:X:X",
"`.'.].#X&X&X#X].]._.U._.U.`.`.Q.I.C.d.:X:X:X:X",
"`.].'.#X%X&X#XXX].{.(.(.`.`.(.Q.I.B.d.:X:X:X:X",
"!.'.[.XX+X&X#XXX].'.(.`.(.(.`.U.I.C.v.:X:X:X:X",
"!.].[.+X&X%X#X.X{.^.~.~.Q.`.`.Q.I.B.v.:X:X:X:X",
"`.'.[.#X%X&X#XXX[.`.`.(.`.`.`.Q.I.B.v.:X:X:X:X",
"^.'.XXXX@X&X#XXX[.`.`.`.!.`.`.I.C.C.v.:X:X:X:X",
"!.].[.#X%X%XXX].`._.U.Q._.!.`.Q.I.B.d.:X:X:X:X",
"].].[.+X%X&X#XXX].`.`._.`.!.`.Q.I.B.B.:X:X:X:X",
"[.].[.XX$X&X#XXX].`.`.`._.`.`.U.G.V.v.:X:X:X:X",
"[.#X[.+X%X&X[..X`._.Q._._.U.`.Q.I.C.B.:X:X:X:X",
"[.+X$X+X%X&X+XXX].`._.`.`.`.`.Q.I.I.C.:X:X:X:X",
"[.+X%X=X-X-X@XXX].`.`.`.`.].[.`.Q.I.C.:X:X:X:X",
"[.+X+X=X-X-X=X%X+X+X[.[.[.[.[.`.Q.I.B.:X:X:X:X",
"[.+X#X=X=X-X=X%X+X[.[.[.[.[.].`.Q.I.B.:X:X:X:X",
"[.+X#X&X-X-X=X%X+X[.[.[.[.[.[.`.Q.H.V.:X:X:X:X",
"[.+X%X=X-X-X=X%X#X+X[.].[.[.[.`.Q.I.C.:X:X:X:X",
"[.+X%X%X-X-X=X%X#X[.[.[.[.[.[.`._.I.B.:X:X:X:X",
"[.+X%X%X=X-X=X%X#X[.[.[.[.[.].`.Q.I.C.:X:X:X:X",
"[.+X%X%X=X-X=X%X+X+X[.[.[.[.[.`.U.I.C.:X:X:X:X",
"[.+X#X=X-X-X=X%X#X[.[.[.[.[.[.`.Q.I.C.:X:X:X:X",
"[.+X%X%X-X-X=X%X+X[.[.[.[.[.[.`.Q.I.B.:X:X:X:X",
"[.+X+X=X-X-X=X%X#X[.[.[.[.[.[.`.U.I.C.:X:X:X:X",
"y +X%X%X-X-X*X%X#XXX[.[.[.[.[.`.Q.I.C.:X:X:X:X",
"y +X%X=X-X-X*X$X+XXX[.[.[.[.[.`.Q.I.1 :X:X:X:X",
"y l.I.&X-X-X=X%X#XXX[.[.[.].[.!.U.2.1 :X:X:X:X",
"[.f.E.%X=X=X=X&X#X#X[.[.[.].l.c.l.2.1 :X:X:X:X",
"[.l.E.%X&X!.c.2.l.Z.E.c.l.2.l.c.c.y C.:X:X:X:X",
"`.+XE.%X=X!.c.2.l.Z.Z.c.l.9.l.c.x.I.B.:X:X:X:X",
"J #X#X=X=X!.c.5.l.Z.E.c.9.5.l.`.Q.I.C.:X:X:X:X",
"c K $X&X-X-X*X%X#X+X[.[.[.[.[.`.Q.I.a :X:X:X:X",
"c K U =X-X-X*X%X#X+X[.[.[.].].`.k f s :X:X:X:X",
"c U U O.;.&.&X%X#X+X].[.[.' R n k f s :X:X:X:X",
"c K ( =.;.;.o.+.Y Y ~ E ( ) W H k f s :X:X:X:X",
"J I ( -.&.$.+.X.T m T R ' ) W H k f a :X:X:X:X",
"c I ( -.*.O.X.X.T H E ! ^ ' W Y k f u :X:X:X:X",
"c J ( -.>.%.o.X.Y B W ! ` ' W m x f u :X:X:X:X",
"c K @.&.>.&.o.~ Q B T ! ^ ) V m j g s :X:X:X:X",
"c K ^ @.,.&.O.o.Q Y T E ' ' N b k h s :X:X:X:X",
"c K ` @.,.;.O.o.~ E E ^ ` ' N b j f a :X:X:X:X",
"c J ^ @.*.%.X.~ T E E W ( ' W m z f a :X:X:X:X",
"c K W -.*.&.O.X.T Y T W ` ` L m z h a :X:X:X:X",
"c I ` @.:.$.O.Q Y Y E W W ` L m j f p :X:X:X:X",
"v J ` -.&.#.X.X.Q E Y ! W ) W n k f s :X:X:X:X",
"v K ' #.*.$.X.X.Q Q T ( R ) W n k f s :X:X:X:X",
"v I ] #.>.%.X.o./ E E ( W ` W n k f s :X:X:X:X",
"c I ( -.*.&.%.o.Q Y Y ( ' ' W m j f s :X:X:X:X",
"J I ( #.*.;.o.Q Q E T ( ^ ' P H l h u :X:X:X:X",
"c K ) =.&.&.o.X.Q Y T ^ R ) W m l h d :X:X:X:X",
"c J ! @.&.&.O.o.Q Y ! R W ) W m k h i :X:X:X:X",
"c K W #.&.$.O.o.+.E T W W ) ! H j f a :X:X:X:X",
"c K ^ @.&.$.o.o./ Y T W W ) W m j f a :X:X:X:X",
"c K ` #.>.&.o.o.+.Y Y E W _ L m M h s :X:X:X:X",
"c J ] =.*.;.%.Q Q Y / / ^ ) P M z h s :X:X:X:X",
"c U ^ =.,.%.o.X.~ Y Q ^ I ) R M k f i :X:X:X:X",
"c J W =.>.%.o.X.T H T R R ) W b k h i :X:X:X:X",
"c J W =.*.%.X.o.Q E T ^ R ) W M k h p :X:X:X:X",
"c J W @.:.%.o.o./ E R R R ) R m k h i :X:X:X:X",
"c J W #.>.;.O.X.~ E E W W ` W b k g s :X:X:X:X",
"c J ^ #.&.;.%.X.~ Y Q Q ` ' N b k g s :X:X:X:X",
"c J W #.&.%.o.X.~ Y E W R ) N n k h s :X:X:X:X",
"c J ^ @.>.$.o.o./ Y Y E W ) P H l f s :X:X:X:X",
"c P ' #.1.$.X.o.Q B ~ W ` ` W M k f i :X:X:X:X",
"c I ` #.*.$.X.o.Q m T ^ ' ) L b l g i :X:X:X:X",
"c U W #.*.;.o.X.Q Y E ( ( ) P m k g a :X:X:X:X",
"c J ] #.&.&.o.+.Y E / ( ' ' L m k g s :X:X:X:X",
"c J ] #.:.%.o.Q Y B Q ( W ` W b k g p :X:X:X:X",
"c J ] #.:.%.X.Q T m T R W ) P b l h p :X:X:X:X",
"c J ' #.;.$.o.X.Q Y T R ^ ' R b M f s :X:X:X:X",
"c I ( #.1.;.O.o./ E E W ^ ' W m z f s :X:X:X:X",
"c U ' @.>.;.o.o.Q E ! E W ' W H z f s :X:X:X:X",
"c U ' =.,.&.o.+.Q H T ( ) ) T n z f p :X:X:X:X",
"c K ( #.;.%.o.o.~ Y R ! ( ` P n z h s :X:X:X:X",
"c I ' $.*.;.X.X.~ H E ( ^ ) W m z h s :X:X:X:X",
"J I ^ @.*.$.$.X.B B T ! R ) P b z g s :X:X:X:X",
"c J ^ =.>.$.o.X.B B Q ! W _ N b k f p :X:X:X:X",
"c J ^ @.*.&.o.Q / E E ^ ^ ` P b k g p :X:X:X:X",
"c K ^ @.*.%.X.Q Y Q ! W W ' W b z g s :X:X:X:X",
"c J ^ =.,.&.o.Q Y Q T R W ) W m z g d :X:X:X:X",
"v J ) =.>.;.%.+.Y Y T R W ) W n z g p :X:X:X:X",
"c U W @.>.%.O.+.Q Y T ( P ` R n z h p :X:X:X:X",
"v I ^ #.>.%.o.o.Q Y E ^ W ` P n j f p :X:X:X:X",
"v I ` @.*.%.o.Q Q m E ! ) ` R n j f a :X:X:X:X",
"J I ' @.*.$.o.X.Y E ( ( W ) P m j g a :X:X:X:X",
"c J ' $.*.%.O.o.~ E Q R ) ' P m j h s :X:X:X:X",
"c J ) @.*.%.O.X.E Y ! R W ' N b z g a :X:X:X:X",
"c J ( @.>.$.o.Q Q Y Y E ) ` W m z g d :X:X:X:X",
"c J ( -.*.%.o.X.~ Q ! R ) ' P n j f i :X:X:X:X",
"c J ^ #.&.$.o.o.E E ( ( R ' P n z s a :X:X:X:X",
"c J ` @.&.%.O.o.Y Q E ( ) ' R n z f s :X:X:X:X",
"c K ' ;.,.%.O.o./ E E R W ) R m k h a :X:X:X:X",
"c J ' -.1.%.O.+./ E T R W ) W M k f s :X:X:X:X",
"c I W #.;.%.o.o.~ Y E ( R ` N m z f p :X:X:X:X",
"c I W #.:.%.o./ ~ H Y R W ) W M j f p :X:X:X:X",
"v U ' #.:.%.o.Q ~ Y T ( ' ` W b j f i :X:X:X:X",
"v K ^ -.:.%.o.X.Y Y Q R R _ W b k f a :X:X:X:X",
"c I ] ;.1.;.O.X.Y Y ~ ^ ' ) N M j g i :X:X:X:X",
"c J ] =.>.;.o.o./ Y R W R ) R b j g i :X:X:X:X",
"c J ! -.*.;.O.o./ Y T ^ R ) R H k h s :X:X:X:X",
"c K ^ #.&.&.O.o.Q Y ~ R ) ' P M l h p :X:X:X:X",
"c J ' #.*.%.o.X.Y E Q ^ ^ ' W H j g p :X:X:X:X",
"c I W =.*.$.o.+.~ Y E E ` ` W b z h s :X:X:X:X",
"v I ^ #.>.;.o.o.Y E ! T W _ P n k h u :X:X:X:X",
"v I ( #.>.;.=.o.~ E Q W P ' P b j h a :X:X:X:X",
"v I ' ;.>.;.O.o.~ E Q R W _ N b k h a :X:X:X:X",
"v U ' -.>.%.X.+.~ H R R R _ N m l h p :X:X:X:X",
"c U ^ @.*.$.X.o.Q E E ^ W ` N M l f i :X:X:X:X",
"c U ^ @.:.%.o.o./ Y Q ( W ) P m l f p :X:X:X:X",
"v I ) @.,.&.O.o.Q Y Y R ) ) T m k h i :X:X:X:X",
"v I W $.,.$.O.X./ E Y ( W ) W m k f i :X:X:X:X",
"c I W -.,.;.o.Q ~ E Q ( W ) W n k g i :X:X:X:X",
"v U ^ -.*.;.o.o.Q E E W ` ' R n k f i :X:X:X:X",
"c I ` @.;.%.O.o.Y Y H T ` ' W b j f p :X:X:X:X",
"c J ^ #.,.%.O.Q ~ Y L W W W W m j f s :X:X:X:X",
"c U ] -.;.%.%.+.Y Y Q ( W ) W m j f a :X:X:X:X",
"c U ] #.&.:.&.Q Y Q / ( ' ) W m z f p :X:X:X:X",
":XJ ( -.>.;.O.+.Y Y T R ( ' R m z h p :X:X:X:X",
":XK W #.>.&.o.X.Y H Y R W ' P m z f s :X:X:X:X",
":X:XW #.&.O.X.o.Q H T P ` ` L n k k :X:X:X:X:X",
":X:X:X:X&.$.o.X.~ B T W R _ L T :X:X:X:X:X:X:X",
":X:X:X:X:X:X:X;XG B R N.:X:X:X:X:X:X:X:X:X:X:X",
":X:X:X:X:X:X:X:X:X:X:X:X:X:X:X:X:X:X:X:X:X:X:X"
};
