/* XPM */
static char *result[] = {
/* columns rows colors chars-per-pixel */
"23 248 211 2 ",
"   c #1A1714",
".  c #16110F",
"X  c #221D19",
"o  c #25201C",
"O  c #28231F",
"+  c #2E2923",
"@  c #2D2623",
"#  c #322B25",
"$  c #362F29",
"%  c #3B342D",
"&  c #37302A",
"*  c #3F3830",
"=  c #463D35",
"-  c #423932",
";  c #622311",
":  c #4D433A",
">  c #494037",
",  c #54473E",
"<  c #4B4B4B",
"1  c #5A4D44",
"2  c #554A41",
"3  c #5D5047",
"4  c #5E5148",
"5  c #64544A",
"6  c #66584F",
"7  c #6A5C53",
"8  c #665A52",
"9  c #715F53",
"0  c #604F47",
"q  c #6B635E",
"w  c #6F6055",
"e  c #73655B",
"r  c #776659",
"t  c #6F6661",
"y  c #6A6A6A",
"u  c #746B66",
"i  c #7C6D62",
"p  c #766D68",
"a  c #756B65",
"s  c #7B716B",
"d  c #7E7E7E",
"f  c #CC3F0D",
"g  c #864913",
"h  c #8A4C14",
"j  c #834512",
"k  c #8E5115",
"l  c #935216",
"z  c #975219",
"x  c #995419",
"c  c #9E5B1B",
"v  c #985417",
"b  c #A35D1C",
"n  c #A85E1E",
"m  c #AB621E",
"M  c #AD6621",
"N  c #AE6822",
"B  c #B76623",
"V  c #B96A24",
"C  c #B66924",
"Z  c #BE7126",
"A  c #BF7428",
"S  c #E4460E",
"D  c #E4480F",
"F  c #FF4E11",
"G  c #D27C17",
"H  c #D47D19",
"J  c #C67329",
"K  c #C8762A",
"L  c #CB7D2D",
"P  c #C67427",
"I  c #D67E2E",
"U  c #D87F2E",
"Y  c #CC7F31",
"T  c #816F63",
"R  c #877668",
"E  c #877B74",
"W  c #907E72",
"Q  c #A37362",
"!  c #FF7F52",
"~  c #F57A51",
"^  c #F67749",
"/  c #D17452",
"(  c #D5831A",
")  c #D48317",
"_  c #CC812E",
"`  c #D98625",
"'  c #D98825",
"]  c #D7812E",
"[  c #DB8E29",
"{  c #D78428",
"}  c #DC9129",
"|  c #CE8131",
" . c #CF8B36",
".. c #D38433",
"X. c #DA8533",
"o. c #D38B36",
"O. c #DC8B34",
"+. c #D3873A",
"@. c #D58C3C",
"#. c #DA8E38",
"$. c #DE9134",
"%. c #D6903A",
"&. c #DC9139",
"*. c #E38732",
"=. c #E38B34",
"-. c #E18E38",
";. c #E29337",
":. c #E3933A",
">. c #E2983A",
",. c #E8943B",
"<. c #E1872F",
"1. c #958375",
"2. c #9C8A7C",
"3. c #95867B",
"4. c #8D847C",
"5. c #A98F7E",
"6. c #DA8E42",
"7. c #DA9244",
"8. c #DE9649",
"9. c #DE994B",
"0. c #D79141",
"q. c #E29641",
"w. c #E59C45",
"e. c #E1964A",
"r. c #E59C4E",
"t. c #E89C4E",
"y. c #E49D51",
"u. c #E89F50",
"i. c #E5A148",
"p. c #E6A153",
"a. c #E9A556",
"s. c #E7A459",
"d. c #E9A559",
"f. c #EAA85A",
"g. c #FF8E65",
"h. c #FF8E69",
"j. c #FF9269",
"k. c #E18264",
"l. c #D2917B",
"z. c #888887",
"x. c #968C83",
"c. c #998C86",
"v. c #9B8F89",
"b. c #918680",
"n. c #9D918A",
"m. c #9B928A",
"M. c #939393",
"N. c #9D9C9C",
"B. c #A39284",
"V. c #A4968A",
"C. c #AC9A8D",
"Z. c #A7978A",
"A. c #AC9E93",
"S. c #A69C93",
"D. c #B09F94",
"F. c #A18F82",
"G. c #ABA195",
"H. c #AAA49C",
"J. c #B3A295",
"K. c #B3A59A",
"L. c #B6AA9E",
"P. c #A4A4A4",
"I. c #ACACAC",
"U. c #AAA8A3",
"Y. c #B5ABA2",
"T. c #BAAEA4",
"R. c #B7AFAC",
"E. c #B5B2AA",
"W. c #BCB3AA",
"Q. c #BBB6AC",
"!. c #BEBBB2",
"~. c #BBBBBB",
"^. c #B5B5B5",
"/. c #FFAF93",
"(. c #FEB093",
"). c #F5AA8D",
"_. c #C5B8AC",
"`. c #C4BCB3",
"'. c #C9BCB4",
"]. c #C2AFA1",
"[. c #C4C4BC",
"{. c #CBC1BA",
"}. c #D9C7B9",
"|. c #C4C4C4",
" X c #CBC7C1",
".X c #CDCCC5",
"XX c #D3CBC3",
"oX c #D1CECA",
"OX c #D7CCC3",
"+X c #D3D1CD",
"@X c #DBD3CD",
"#X c #DED0C3",
"$X c #D6D5D0",
"%X c #DEDDD8",
"&X c #DBD9D5",
"*X c #E4D5C9",
"=X c #E3DED9",
"-X c #E7DCD3",
";X c #E0CFC5",
":X c #E2E1DD",
">X c #EBE3DD",
",X c #E5E4E1",
"<X c #EAE6E4",
"1X c #EAE9E5",
"2X c #EDECEB",
"3X c #F3EFEE",
"4X c #F5F1F2",
"5X c #F8F4F3",
"6X c #FCFCFC",
"7X c #F2F1EF",
"8X c #000000",
/* pixels */
"8X8X8X8X8X8X8X8X8X8X8X8X8X8X8X8X8X8X8X8X8X8X8X",
"8X8X8X8X8X8X8X8Xn.4 4 8X8X8X8X8X8X8X8X8X8X8X8X",
"8X8X8X8X8X8X8X8 4 n.v.4 8 8X8X8X8X8X8X8X8X8X8X",
"8X8X8X8X8X8X8X4 4 4 v.4 b.8X8X8X8X8X8X8X8X8X8X",
"8X8X8X8X8X8X4 4 4 3 3 4 b.4 8X8X8X8X8X8X8X8X8X",
"8X8X8X8X8X8X4 4 4 4 4 4 4 4 8X8X8X8X8X8X8X8X8X",
"8X8X8X8X8X4 4 u 4 4 4 3 4 c.4 8X8X8X8X8X8X8X8X",
"8X8X8X8X8X4 u u 3 4 v.3 3 x.4 8X8X8X8X8X8X8X8X",
"8X8X8X8X8X4 p u 4 4 x.x.8 x.w 8X8X8X8X8X8X8X8X",
"8X8X8X8X4 4 u p 4 4 x.a x.c.x.3 8X8X8X8X8X8X8X",
"8X8X8X8X4 4 p u a 4 4 1 t s x.4 8X8X8X8X8X8X8X",
"8X8X8X8X4 7 u c.u c.4 a u u u 4 8X8X8X8X8X8X8X",
"8X8X8X4.u u u c.c.c.4 p c.u u 3 8X8X8X8X8X8X8X",
"8X8X8Xu x.u p c.c.c.4 p v.u u 4 8X8X8X8X8X8X8X",
"8X8X8X4 x.u u c.c.x.4 p p u u 4 s 8X8X8X8X8X8X",
"8X8X8X4 x.p p x.3 3 4 4 1 u u 1 5 8X8X8X8X8X8X",
"8X8X8X3 x.p 4 4 4 4 3 3 p p u 3 u 8X8X8X8X8X8X",
"8X8X8X3 x.p 3 3 4 4 3 8 c.p t u u 8X8X8X8X8X8X",
"8X8X3 x.x.u 3 3 4 4 3 c.c.p m.u u 8X8X8X8X8X8X",
"8X8X3 x.p p x.3 4 x.c.x.b.u c.u u 8X8X8X8X8X8X",
"8X8X4 x.x.p x.E 4 c.x.x.u p p u u 8X8X8X8X8X8X",
"8X8X4 x.x.x.4 3 4 4 4 v.t p x.t u 8X8X8X8X8X8X",
"8X8X5 x.x.3 4 4 x.4 4 x.p p u u u 8X8X8X8X8X8X",
"8X8X4 x.x.3 b.4 x.x.x.c.u p p u u 8X8X8X8X8X8X",
"8X4 4 x.x.4 x.x.4 p x.x.s u p u v.8X8X8X8X8X8X",
"8X4 x.x.x.e x.x.4 u x.p p u p u c.H.8X8X8X8X8X",
"8X4 x.x.x.x.x.4 x.s p p p p p u x.S.8X8X8X8X8X",
"8X4 x.x.3 4 4 4 x.p x.p p p p m.v.S.8X8X8X8X8X",
"8Xx.x.4 4 4 4 4 x.x.s p c.p p c.c.S.8X8X8X8X8X",
"8Xx.x.4 4 4 p u x.x.x.x.x.u p c.c.x.8X8X8X8X8X",
"8Xq x.p p p p p x.x.x.p x.p p v.3 q 8X8X8X8X8X",
"8Xq x.p p p p p x.x.p p p p c.c.3 t t 8X8X8X8X",
"8Xx.p p p p p p p p p p p p p v.4 4 x.8X8X8X8X",
"8Xx.p p p p p p p p p u u p u c.4 c.n.8X8X8X8X",
"8Xx.u p p p p p p p p x.p c.c.v.3 4 n.8X8X8X8X",
"8X4.x.E p p p p p p x.c.x.E v.x.1 V.n.8X8X8X8X",
"8Xq x.x.V.p p p p n.x.p x.p s v.3 3 4 8X8X8X8X",
"8Xq x.x.p p p p p u x.p x.p p x.v.c.4 4 8X8X8X",
"8Xu v.p p p p p p p E u x.p c.p v.c.4 4 8X8X8X",
"M.q u p p p p p x.E p u x.p c.v.c.v.n.4 8X8X8X",
"8Xq p p p p p u c.c.4 p p p v.c.c.c.v.3 8X8X8X",
"8Xq p p p p p c.c.4 4 4 p p c.v.c.v.c.3 8X8X8X",
"8Xq p p p p p p c.3 3 p p p c.c.c.c.4 3 8X8X8X",
"8Xt p p x.p p p c.3 4 p p p c.3 c.v.4 3 8X8X8X",
"8XE.p p b.p p p x.c.4 p p c.c.4 v.3 3 3 8X8X8X",
"oXE.p p x.x.x.p x.x.p p p c.v.4 c.3 c.3 8X8X8X",
"+Xp p p p p x.p c.p p p E x.c.4 8 c.v.4 8X8X8X",
"+Xp p p p p p p p p p u x.x.4 4 3 v.4 4 8X8X8X",
"+XR.p b.p p p p p p p p p b.4 4 4 4 4 4 8X8X8X",
"+XR.P.b.p p p p p p p p p b.4 4 x.4 4 4 8X8X8X",
"+XR.t p p v.v.u s p p p p b.4 c.x.4 4 4 8X8X8X",
"+XR.3 u p p v.p p p x.p s x.4 x.x.4 4 4 8X8X8X",
"+X^./ 3 p p n.p p p x.p b.b.4 t p 4 4 4 8X8X8X",
"oXI.j.3 t p F.p p p x.p b.b.4 t p t x.4 8X8X8X",
"oX^.h.3 t p p p p p x.m.x.x.4 t t t t 4.8X8X8X",
"oXh.g.Q u 5 p p p p (.s s b.4 4 4 t x.c.8X8X8X",
"(.j./.3 4 4 p p c.p /.s s 4 c.4 v.c.x.x.8X8X8X",
"/././.4 4 4 4 p c.p (.s s x.v.4 c.x.c.! 8X8X8X",
"/.f h.h.4 4 4 p c.c.(.(././.x.x.v./.! ! 8X8X8X",
"/.f h.h.h.4 4 h.c.c.(.(././.x.x.x./.! ! ! 8X8X",
"/.(./ 1 g.0 4 h.h.c.c./.x././././.j.! ! ! 8X8X",
"/././.3 g.k.g.j.h.c.c.c.c./././././.! ! ! 8X8X",
"/././.h.0 4 g.h.h.c.c.c.c./././././.Q ! ! 8X8X",
"g./.h.h.1 g.h.h.h.h.h.x.c././.F /./.8 ! ! ! 8X",
"  h.h.h.4 1 h.h.g.F h.c.x./.(.F /.4 1 ^ ^ g.8X",
"# + g.h.3 3 h.h.h.j.h.x.g././.(./.(.1 S .   8X",
"* %   D j.3 h.h.h.h.h.h.h./.(.(./.6 S S o + 8X",
": = @ S g.h.h.F F g.h.h.h./.(.(./.4 ^ S + - 8X",
"1 , % h.S g.g.F F h.h.h.  . (.(./.)./.X & : 8X",
"7 1 = 5.@ ; F F F g.h.l.o o . (.  O @ # = 6 8X",
"T 5 2 & & @ F F   F h.X O + o o @ & & * , r 8X",
"W w 5 2 2 * F   + +   # $ % O O % = : 2 5 R 8X",
"c.r r 9 r 5 # & * % # % % * & % : 1 0 5 9 1.8X",
"C.R T T R i : > : > - = = = * = 5 7 9 9 r 2.8X",
"D.1.W 3.c.2.e 6 3 , , 2 , , : 1 w r r T R 2.8X",
"J.2.F.C.K.J.3.i w 5 6 7 5 5 4 7 T R R R W Z.8X",
"K.5.5.]._.'.J.2.i r r r r w w i 1.1.1.1.R Z.8X",
"].C.C.].}.*X_.C.1.R 1.1.R i i 1.2.5.3.1.1.Z.8X",
"L.J.J._.}.*X#X].B.1.5.5.2.1.3.5.Z.V.5.2.3.Z.8X",
"_.K.]._.#X*X}.].Z.2.B.C.Z.2.2.5.C.A.V.B.c.G.8X",
"`.K.T.{.;X-X;X_.D.Z.D.D.D.B.B.S.G.J.C.V.2.G.8X",
"`.E.].{.;X-X;X'.J.C.D.K.D.Z.Z.A.L.K.G.V.m.H.8X",
"`.`.'.{.;X>X*X'.T.D.K.Y.J.A.A.K.Y.L.G.G.G.G.8X",
".X`.{.}.*X-X;X'.T.J.T.T.Y.A.A.K.L.T.L.H.G.H.8X",
"oX'. XOX-X=X-XXX_.Y.T.T.T.Y.Y.Y.Q.W.T.L.G.H.8X",
"+X.XXX@X-X<X=XXX`.R._.!.W.T.R.W.!._.Q.Y.L.U.8X",
"&X+X@X@X=X>X-X@X'.`.`.`._.R._.!.[.`.Q.E.E.E.8X",
"=X$X$X=X-X>X-X-X.X`.'.'.`.!.`.`._._.[.Q.E.E.8X",
"%X=X=X=X<X<X>X@X X'.'.'.`.`.`. X X X[.[.!.E.8X",
"%X,X<X,X<X<X<X=X$XoX X X X|. X X.X.X|.[.!.E.8X",
"%X,X<X1X3X3X1X:X&X$XoXoXoX.XoXoX+X$X.X[.!.E.8X",
"%X:X,X2X3X4X4X3X=X&X$X+XoX+X%X%X:X$X.X[.!.E.8X",
"%X:X,X2X3X5X4X2X1X:X:X%X%X%X%X%X%X$X.X[.!.E.8X",
"%X:X,X2X3X5X4X2X1X,X:X%X%X%X%X%X%X$X.X[.!.E.8X",
"%X:X,X2X3X5X4X2X1X,X%X%X%X%X%X%X%X$X.X[.!.E.8X",
"%X:X1X2X3X5X4X2X1X,X:X%X%X%X%X%X%X$X.X[.!.E.8X",
"%X:X,X2X7X5X4X2X1X,X:X%X%X%X%X%X%X$X.X[.!.E.8X",
"%X,X,X2X7X5X4X2X1X,X:X%X%X%X%X%X%X$X.X[.!.E.8X",
"%X:X,X2X4X5X4X2X1X:X:X%X%X%X%X%X%X$X.X[.!.E.8X",
"%X:X1X2X3X5X4X2X1X:X:X%X%X%X%X%X%X$X.X[.!.Q.8X",
":X:X,X2X3X5X4X2X1X,X:X%X&X%X%X%X%X$X.X[.!.E.8X",
"%X:X,X2X3X5X4X2X1X>X:X%X%X%X%X%X%X$X.X[.!.E.8X",
"%X:X<X2X7X5X4X2X1X:X:X%X%X%X%X%X%X$X.X[.!.E.8X",
"%X:X,X2X3X5X4X2X1X:X:X%X%X%X%X%X%X$X.X[.!.E.8X",
"%X:X1X2X7X4X4X2X1X,X:X%X%X%X%X%X%X$X.X[.!.Q.8X",
"%X:X,X2X4X5X4X2X1X,X:X%X%X%X%X%X%X$X.X[.!.E.8X",
"z.:X,X2X4X4X4X2X1X,X:X%X%X%X%X%X%X$X.X[.!.4.8X",
"d :X,X2X4X5X4X2X1X,X%X%X%X%X%X%X%X$X.X[.!.< 8X",
"d :X,X2X4X5X4X2X1X,X:X%X%X%X%X%X%X$X.X[.!.< 8X",
"d N.,X2X7X5X4X2X1X,X:X%X%X%X%X%X%X$X.X[.y < 8X",
"d N.[.%X7X4X4X2X1X,X:X%X%X%X%X%X%X$XI.z.y < 8X",
"%XN.~.:X6X:X4X2X1X,X%X%X%X%X%X%XP.I.I.z.y Q.8X",
":XN.~.%X6X:X|.P.M.P.~.|.^.I.M.M.P.I.I.z.y E.8X",
"%X,X~.:X6X:X|.I.M.P.~.|.^.P.M.M.P.I.I.z.!.E.8X",
"$X:X,X:X6X:X|.P.M.N.~.|.^.P.M.N.P.I.I.[.!.E.8X",
"K ,X,X2X4X%X|.U.M.P.~.|.^.P.M.M.P.$X.X[.!.k 8X",
"( :X,X2X3X5X3X2XP.P.~.|.^.^.&X%X&X$X.X[.!.g 8X",
"( ` ,X2X3X5X3X2X1X:X:X&X%X%X%X%X%X$X.X[.v g 8X",
"( ' $.2X3X5X4X2X1X,X:X%X%X%X%X%X%X$X.Xm c g 8X",
"G } $.&.t.>X4X2X1X:X:X%X%X%X%X%X.XP N m c j 8X",
"G } >.q.f.y.e.7.+.@. .+.#.O.-.=...J C M m j 8X",
"( } >.q.r.s.y.7.6.Y Y ..+.O.>.=.O.J B M c j 8X",
"( } $.q.d.y.e.8.+...| ..X.&.:.-.O.L C m v k 8X",
"( [ O.:.a.y.8.7.@...Y ..O.&.&.,.O._ C M c g 8X",
"( ` >.w.a.r.8.6.+.| Y o.#.&.;.,.O._ C n c g 8X",
"H ` >.w.a.a.6.6.6.| Y +.#.O.;.:.O.L C n c g 8X",
"H [ >.w.d.s.e.6.+...L ....O.;.:.I _ A m c g 8X",
"H [ -.q.d.u.e.6.0.o.....#.&.O.*.I K V m b h 8X",
"( ' ;.>.a.f.8.8.0.@.....o.&.;.;.I J C M b k 8X",
"( ' ;.q.f.s.y.8.0. .o.X.#.&.;.,.I J B M c h 8X",
"H ` O.q.r.y.p.8.0.o.+.o.#.O.-.,.I J A n x h 8X",
"H ( ;.q.r.t.8.6.+.+. .+.#.&.;.;.O.L A n x h 8X",
"H ` O.q.i.y.y.8.@.| _ ..X.#.:.:.U L V N x h 8X",
"( ` O.:.u.y.y.8.6.| | o.o.O.:.=.I L P b c j 8X",
") ' O.:.y.y.8.6.+.| | ..X.O.X.:.] L V m x h 8X",
") ' =.w.u.t.8.6.6.@. ...X.&.*.,.O.J B n c k 8X",
"H ' &.w.a.u.e.6.+.@. .o.#.X.*.:...J B n b k 8X",
"H [ >.,.t.y.e.6.7.@.o.o.#.X.O.,.O.J B n z k 8X",
"H ' >.i.u.y.8.6.7.@. .@.+.X.-.;.O.J V n c h 8X",
"H ' >.w.a.y.y.6.7.%. .o.X.O.;.,.O.J C m z j 8X",
"H ' ;.w.y.y.y.7.7.@. .| &.&.&.,.O.L B b c g 8X",
"( ' &.q.r.y.y.7.0.o.o.] &.&.&.;.] _ V N x g 8X",
"H ' $.i.r.9.y.8.@.@.o...&.&.*.;.O.K Z M x g 8X",
"H ' $.q.r.p.y.7.7...| ..#.O.*.;.+.K Z N c g 8X",
"( ' $.q.r.r.p.9.7.%. .@...O.=.=.O.K V M c g 8X",
"H ' O.q.r.r.8.9.7.%. . .+.O.*.=.O.J B m x j 8X",
") ' =.q.t.y.e.7.7.%.| o.X.X.O.:.O.L B n x g 8X",
") ' $.:.t.f.e.6.7.@.| ..] O.O.*...L Z N x k 8X",
"( ` $.,.t.s.e.7.7.%.| o...O.:.*.] _ P m x k 8X",
"H [ >.w.r.y.p.6.7.@.|  ...X.:.=.] K Z N x l 8X",
"H [ >.i.f.y.y.9.@.| | %.#.O.:.=.] P Z n x k 8X",
"G [ O.i.f.y.e.7.@.+.| ..&.X.*.=.X.P B n c k 8X",
"H [ $.i.f.t.e.6.6.+.L | %.X.X.=.O.K C M b g 8X",
"H ` O.q.d.u.e.7.6.@.o...&.X.O.;.O.J C M b g 8X",
"H ` O.:.u.u.e.6.7.@. .] #.X.*.;.O.P C N c g 8X",
"H ` $.:.a.y.e.6.7.@.o.| X.O.X.=.] _ V m c g 8X",
"H ` O.w.a.r.8.9.7.%.o.@.&.o.;.-...J B M z g 8X",
"G ' ;.q.r.f.y.7.0. . .%...O.;.,.O.P B n z h 8X",
"G ` O.q.r.y.y.8.0.| | @.#.O.:.;.U J B m z h 8X",
"G ` O.q.t.t.y.7.+.+.| ..o.X.-.=.I J B M x g 8X",
"H ' O.q.t.s.r.7.6.o._ | ..X.;.=.U L V b c h 8X",
"H ` O.q.u.d.e.6.0.%.| ..X.O.O.=.U _ V n x k 8X",
"H ` O.q.f.d.7.6.7.@.| ..+.;.:.,.O.J V n x k 8X",
"G ` >.q.f.d.e.6.7.o._ ..X.&.:.=.O.J B m c j 8X",
"H [ ;.q.u.y.e.6.7. .| | +.&.O.*.I J V n b j 8X",
"H ' O.q.p.y.y.6.0.@.| ..X.&.>.=.I Y C M x k 8X",
"H ` >.q.y.s.y.6.6.%.| @.&.&.:.=.U Y C M x h 8X",
"H ` >.q.y.y.9.6.0.| o.o.#.&.:.;.U K B M v h 8X",
"H ` >.q.i.y.e.7.6.Y Y +.&.&.:.:.X.J B M b g 8X",
"G ` >.q.a.y.e.6.6.| Y ..&.X.$.,.+.J C M x h 8X",
"( ` &.q.u.t.e.6.+.| | | ..X.-.=.] J J M x h 8X",
"H { >.q.y.y.e.6.0.o.| ] ..#.;.,.U J V M x k 8X",
"G ` $.q.f.u.8.8.7.@. .%.X.#.:.=.I J A M b l 8X",
"G } O.q.f.y.y.8.0.@.o.%.#.O.*.=.O.L Z n c k 8X",
"G } $.i.s.s.y.0.7. .o.@...O.X.=.O.L A n b g 8X",
"H } $.w.a.s.y.7.@.o.o...X.#.O.*...K A n x h 8X",
"H ' >.w.a.y.y.7.@.+.| ..&.O.$.;...J V N c k 8X",
"G [ ;.q.a.y.y.6.+...| ..#.&.;.;.] J Z N v h 8X",
"G } $.q.p.y.r.6.+.+.Y +.#.#.:.=.X.L Z M b k 8X",
") } $.w.y.y.9.6.6.Y Y | #.O.*.=.I J Z C b j 8X",
") [ O.w.a.y.e.6.6.| Y | O.&.X.=.U J V N b g 8X",
"H ` ;.w.p.a.e.6.+.| | ] @.O.*.=.U J V m x h 8X",
"H ` $.q.p.a.e.6.@.+._ ..#.X.X.*.U J V N x g 8X",
"H ` O.>.t.t.e.6.0.o.o.#.#.X.;.:...J V N x g 8X",
"H ' $.q.y.y.8.6.+.Y o.@.&.X.=.:.] J A C c k 8X",
"( ` $.w.t.y.8.6.6.+.o.....O.=.;.O.J V N c k 8X",
"( ` O.w.a.s.y.7.Y 6.+...X.X.X.=.X.L P M v g 8X",
"( ` O.q.a.t.y.8.7.Y Y Y +.X.*.,.O.P V N v j 8X",
"( } $.,.d.t.y.6.7.@.L ] X...*.;.O.K V N x k 8X",
"H } $.q.y.d.9.6.0.o.o...#.X.*.=.] K Z M c l 8X",
"( ' O.q.t.s.9.7.7.o.o.o.&.&.O.,.] P B n b k 8X",
"H [ O.q.t.y.9.6.6.@._ o.#.&.-.=...J B n c l 8X",
"H [ $.8.t.y.e.7.@.+...o.&.&.;.=.] L C b c h 8X",
"H } $.r.w.r.e.8.@. .o.%.o.X.O.,.I L B M c g 8X",
"H ` ;.q.t.t.e.8.7...o.%.X.#.-.,.X.K C m b g 8X",
"( ` $.:.y.u.7.8.7.|  .&...X.:.,.I J Z m c g 8X",
") ` O.q.t.y.e.6.@.| | @.] X.O.,.X.P V N b k 8X",
"G ' O.q.r.y.e.6.0. .| +.X.X.X.,.I J Z M x k 8X",
"G ' O.q.t.y.8.6.@.+.| %.&.X.-.:...J B m x k 8X",
"H ' O.q.a.y.e.6.0.+.o.%.&.O.:.>.U K V M z k 8X",
"H ` O.q.f.y.8.6.0.| o.%.&.X.:.,.] K V n z k 8X",
"H ` O.,.r.y.8.7.6.+.o.@.&.X.;.,.X.K Z M c k 8X",
"H ` >.:.t.y.8.9.7.%.| o.#.X.O.=.] _ Z n c h 8X",
"H [ &.i.f.f.y.8.7.%.| #...X.=.-.[ L C m c g 8X",
"H ' &.i.f.f.y.7.7.%.o.] ..X.;.*.O.P C n c g 8X",
"H ' $.q.f.f.y.7.7.%.| ....&.$.,.I K Z m x k 8X",
"H [ O.q.p.y.e.7.7.+.| o.o.&.O.*.X.K Z n x k 8X",
"H [ =.:.r.t.e.7.@.+._ | X.O.*.*.O.J B b c k 8X",
"H [ >.:.t.y.8.7.@.+._ ..&.&.X.>.O.J B b c g 8X",
"( } $.w.a.y.e.7.@...| @.#.O.=.,.O.J B n x g 8X",
"H ` O.w.a.y.y.7.6.| | @.&.O.*.*.I J B n z h 8X",
"H ' ,.w.f.d.y.9.+.+.| ..#.#.:.*.U J B m x k 8X",
"H ` >.i.a.s.p.9.6.@.| ..X.$.>.=.U J C m b k 8X",
"( ' >.w.f.s.9.9.0.o.| ..+.&.X.=.U J B m b l 8X",
"( ' >.w.s.a.p.9.7.%.| | X.$.*.=.X.L B C v g 8X",
"H } O.w.p.9.p.9.7.o._ o.+.&.*.=.I L V N v g 8X",
"H [ O.w.p.u.e.8.0.o. .....O.-.;.O.J Z N x g 8X",
"H ` >.w.r.y.e.7.6. .+.o.#.O.;.,.O.L B N x g 8X",
"H ` :.w.u.y.e.6.6.| _ #.#.O.-.;.O.J C N c g 8X",
"( [ -.q.r.u.e.6.@...| #...X.#.,.o.J Z M b g 8X",
") [ $.q.t.d.y.6.0. .Y o.+.X.O.;.U J B m x g 8X",
"H [ $.q.t.d.y.9.7.+...o.] O.*.*.X.P B m x k 8X",
"H [ $.i.a.s.p.9.7...o.o.&.$.*.*...J B b b k 8X",
"H [ >.q.s.y.y.9.7.o._ @...X.X.*.I P Z C c l 8X",
"H } O.q.f.y.8.8.7...| @...X.*.*.U K Z N x l 8X",
"H } >.q.u.u.8.6.7.+._ #.X.] :.<.U P V N x l 8X",
") } O.q.r.y.8.6.7.@.o.o.#.X.;.:.U L Z m x j 8X",
"( } =.q.t.y.e.6.7.+. .o.#.X.O.=.] L Z n v h 8X",
"( ` ;.q.a.y.e.8.7.@.o.o.#.X.X.=.] L B m x h 8X",
"( ` O.>.f.a.8.9.0.@.L ..I X.O.=.#.P B m z l 8X",
") } O.7.y.d.e.8.0.@.o.o.&.&.=.-.O.L B n z k 8X",
"G } O.:.a.f.e.6.7.%.o.@.&.&.=.-.O.K B n z k 8X",
"G [ #.:.a.f.9.6.7.%. .o.&.X.O.,.U J B n c k 8X",
"( } $.q.a.y.e.7.8.@.o.@...$.&.=.U P V n x k 8X",
"( ` O.,.p.t.e.9.0.+.| | ..X.>.,.O.J B n z h 8X",
"G ' O.q.d.y.e.9.0. .Y ..X.#.:.:.O.L B M x j 8X",
"G [ O.q.f.s.9.9.6...| ..X.O.O.-.X.L B m c g 8X",
"G } >.w.t.s.9.8.@.| | @.&.&.=.=.O.L B b x h 8X",
"H } >.w.s.p.7.y.@.Y | %.&.:.O.=.O.L B n x h 8X",
"H ' >.i.s.s.y.9.+.+. ...&.&.:.,...L A n x g 8X",
"} ' >.w.a.s.y.9.+.Y Y ....X.>.*.] L Z m x c 8X",
"8X' $.q.f.a.y.7.6.Y Y ..X.O.,.,.O.L Z n x 8X8X",
"8X' $.q.a.d.9.6.@. .o.....X.:.=.I J Z m m 8X8X",
"8X8X$.q.t.t.e.7.7.%.| | X.O.#.:.I J V N 8X8X8X",
"8X8X8X8Xt.y.8.6.+.+.Y ..X.X.X.*.U K 8X8X8X8X8X",
"8X8X8X8X8X8Xe.6.0...Y ....X.-.*.8X8X8X8X8X8X8X",
"8X8X8X8X8X8X8X8X8X8X8X8X8X8X8X8X8X8X8X8X8X8X8X",
"8X8X8X8X8X8X8X8X8X8X8X8X8X8X8X8X8X8X8X8X8X8X8X"
};
