/* XPM */
static char *Texture_44[] = {
/* columns rows colors chars-per-pixel */
"64 64 203 2 ",
"   c #2D2927",
".  c #2F2A28",
"X  c #322E2C",
"o  c #393B24",
"O  c #35312E",
"+  c #39362D",
"@  c #3C3C2C",
"#  c #342F30",
"$  c #353233",
"%  c #393533",
"&  c #3D3B34",
"*  c #36353C",
"=  c #393639",
"-  c #37393F",
";  c #3D3B3C",
":  c #403F2C",
">  c #403C37",
",  c #423D3C",
"<  c #3F5209",
"1  c #3F5306",
"2  c #3F4B16",
"3  c #3E481A",
"4  c #3A411D",
"5  c #3E4322",
"6  c #3F4A20",
"7  c #3E432A",
"8  c #3F482B",
"9  c #3E4232",
"0  c #3E413D",
"q  c #425607",
"w  c #465F06",
"e  c #42540B",
"r  c #495E0C",
"t  c #455A0A",
"y  c #40461F",
"u  c #424D1D",
"i  c #445414",
"p  c #485715",
"a  c #475914",
"s  c #4B5C14",
"d  c #46521C",
"f  c #49561D",
"g  c #4C5B1B",
"h  c #505E1D",
"j  c #466005",
"k  c #4A6306",
"l  c #4C630B",
"z  c #51660E",
"x  c #53690E",
"c  c #4E6114",
"v  c #4E6019",
"b  c #526513",
"n  c #556913",
"m  c #53641B",
"M  c #596B1B",
"N  c #586B15",
"B  c #414625",
"V  c #444C23",
"C  c #42442C",
"Z  c #444B2B",
"A  c #494E2C",
"S  c #465124",
"D  c #4A5523",
"F  c #4D5B23",
"G  c #46502B",
"H  c #4A532B",
"J  c #4E5A2B",
"K  c #505727",
"L  c #515C24",
"P  c #525C2E",
"I  c #434433",
"U  c #484735",
"Y  c #454B34",
"T  c #4A4B34",
"R  c #44433D",
"E  c #48423E",
"W  c #464B3B",
"Q  c #4B4D3C",
"!  c #4B5433",
"~  c #4E5932",
"^  c #475139",
"/  c #4D543C",
"(  c #4F593B",
")  c #525634",
"_  c #525D33",
"`  c #52563C",
"'  c #525B3B",
"]  c #595B3E",
"[  c #4F6122",
"{  c #536323",
"}  c #586627",
"|  c #55632B",
" . c #5A642E",
".. c #58692B",
"X. c #596B23",
"o. c #556332",
"O. c #586537",
"+. c #55633A",
"@. c #5A663B",
"#. c #5D6A37",
"$. c #63702C",
"%. c #3C3C43",
"&. c #3D3E49",
"*. c #403F42",
"=. c #3F4143",
"-. c #3F414C",
";. c #3F4252",
":. c #434244",
">. c #4B4544",
",. c #464B43",
"<. c #4B4B44",
"1. c #43444B",
"2. c #49464B",
"3. c #464B4B",
"4. c #4B4A4C",
"5. c #514B47",
"6. c #544D4C",
"7. c #4C5344",
"8. c #4E5844",
"9. c #4C534B",
"0. c #4F584A",
"q. c #535445",
"w. c #535B43",
"e. c #585943",
"r. c #54544D",
"t. c #59524E",
"y. c #525B4D",
"u. c #5E5C4B",
"i. c #434653",
"p. c #464954",
"a. c #4A4C54",
"s. c #444658",
"d. c #464959",
"f. c #4A4D5B",
"g. c #4D5255",
"h. c #4E515D",
"j. c #525454",
"k. c #5B5452",
"l. c #545B54",
"z. c #5E5955",
"x. c #51545C",
"c. c #55595E",
"v. c #595D5D",
"b. c #605B57",
"n. c #635D59",
"m. c #576243",
"M. c #586245",
"N. c #5D6A41",
"B. c #556049",
"V. c #5B634D",
"C. c #5B6254",
"Z. c #5D655D",
"A. c #5F685E",
"S. c #616849",
"D. c #637145",
"F. c #66615B",
"G. c #69645E",
"H. c #636C5C",
"J. c #626655",
"K. c #6F7450",
"L. c #4E5261",
"P. c #4F5669",
"I. c #525562",
"U. c #565965",
"Y. c #595C66",
"T. c #525769",
"R. c #555A6A",
"E. c #5A5D6A",
"W. c #595E71",
"Q. c #5D6264",
"!. c #5E616D",
"~. c #5D6273",
"^. c #5F6178",
"/. c #616663",
"(. c #6B6760",
"). c #626861",
"_. c #6E6A62",
"`. c #61636E",
"'. c #666C6C",
"]. c #6A6F6F",
"[. c #706C64",
"{. c #716D69",
"}. c #6C726F",
"|. c #717064",
" X c #78756F",
".X c #78776C",
"XX c #636572",
"oX c #666974",
"OX c #696B76",
"+X c #646A7A",
"@X c #6B6E7A",
"#X c #616679",
"$X c #6B7175",
"%X c #6D717B",
"&X c #707575",
"*X c #71747E",
"=X c #71787D",
"-X c #676C80",
";X c #6A6C82",
":X c #6E7482",
">X c #727581",
",X c #757984",
"<X c #797C86",
/* pixels */
"@X@X@X@XXXr.f a Y :.f.!.!.!.!.XX!.!.!.!.Y.U.U.I.L.d.1.5.I.`.oXXX`.`.!.E.I.1., 2.x.XX*X%X%X%XOX@XOXoXU.*.E U.+X%X~.O.< [ C.$XoXOX",
"oXoXoXE.j.~ e < V =.g.U.U.U.U.Q.Y.U.U.I.I.h.h.d.p.&.; R I.E.E.!.E.E.E.I.*.= = f.U.XXoXoXoXoXoXXXXXXXE.*.0 L.^.XXB.N a F P.XXXX+X",
"XXXXU.7.! H f p 9 %.d.I.U.I.U.I.U.U.P.h.h.h.f.s.-.= O % I.E.E.E.E.Y.I.i.$ X 2.x.E.XXXXXXXXXXXXXX!.R.x.E J f.R.Q...l j J Y.`.!.`.",
"I.a./ g l g S e 6 ; -.h.L.I.L.L.L.h.h.h.h.f.;.=.G o O & f.R.E.U.v.j.*.*.& ; f.U.E.!.`.XXE.!.XXY.f.>.` h c ~ y.g.{ c l D x.!.E.E.",
",.P F x k m g q i S 8 :.a.f.h.f.h.f.f.d.i.W 8 8 a 3 > V U h.x.+.X.J A h K E h.E.E.!.!.!.E.U.f.7.K S L n j l G d a V p s W p.3.3.",
"g l b  .$.S.' K F l s F f 0 =.-.1.3.3.9.R u < u o % > U d V Z h k x n l x A Q l.U.Y.U.g.:.G I T l r _ F s p F 1 1 m z l F G G g ",
"g L #..X.X.X{.b.' { m v r S G a F J d p S f e 2 + > 6.n.u.g d f l m g l z h b m ` R S 2 o d 9 7.P | j.j.m.7.8.F S H b x { m l j ",
" .|.|.{.[._.[._.F.e.m p i 1 a l g m l j d 8 B i y E k.G.G.F.q.A g S U ) ) g k z F S 1 e s i :.g.Y.].:X>X%X!.Y.g.j.g.! N f m z t ",
"K._.[.(.[.[.G.F.(.F._ D p q u L ) K n a D & 6 1 q T 6.k.b.b.q.m j g z.'.oXC.X.m b n s i T 8.h.!.>X>X@XOXOXOXoX`.E.Y.' x j s { _ ",
"[._._.[.G.G.G.G.F.n.6.E A D U 4.j.z.N.0.V.Y.M.g d U >.5.6.5.E L m m.@XOXXX'.H.P k k f 7.f.x.XX%XOXXXXXXXXX`.!.!.E.E.@.z r s u._.",
"[._._.(.G.G.G.F.F.n.6.Q h H g.`.@X>X@X@X%X@X%XQ._ g C > > > H s w.'.~.!.!.!.!.q.g b ' g.I.XX@XXXXXXXXXXXXX`.!.!.E.Y.' d h ] _.[.",
"_._.[.G.F.G.G.F.F.n.6.! l F /.@X@X@X@XOXOXOX@XXXy.g C % & , T H c.U.!.!.Y.Y.U.f.U R f.h.!.OXoXXXXX`.!.!.XX!.!.!.Y.x.S 1 g J.G.G.",
"G.G._.G.F.F.F.n.n.n.' p S r.oXoXOXOXOXOXOXoXXXXXj.f I f.h.:., p.U.U.E.R.U.I.I.p.; *.h.U.`.`.!.XXXXXX!.!.!.E.E.E.c.' g e ) F.(.G.",
"G.G.G.F.F.F.F.n.n.b.q.p S x.oXXXOXoXoXOXOXoXXXXXh.I p.XXW.=.%.f.U.U.U.U.I.I.L.1.; ; h.E.`.!.`.XX!.`.!.E.E.E.E.Y. .r K ] u.F.G.G.",
"G.F.F.F.n.n.n.n.n.z.<.C f l.XXoXXXXXXXoXoXoXXX!.h.; I.E.P.=.%.h.L.I.h.L.h.L.d.%.% ; h.E.E.`.`.E.!.E.E.E.E.R.E.V.n w h u.b.F.n.n.",
"F.F.n.n.n.b.n.n.b.k.>.O & I.XXXXXXXXXXXX`.XX!.h.a.9 g.T.g.Z Y 3.f.h.h.h.h.d.i.0 o ; f.R.E.E.E.E.E.E.E.U.Y.I.I.` s n } t.b.n.n.n.",
"n.n.b.b.b.b.b.b.b.5., X = I.XXXXXX~.`.E.E.E.I.d.=.c F 7.{ a t 8 =.=.i.3.1.-.&.I u & p.I.E.E.R.E.E.E.U.R.U.I.9.i i _ r.k.n.n.n.z.",
"n.n.b.b.b.k.z.k.b.5., + : x.E.XX`.XXXX`.E.h.a.%.X f l d b k l f f f I | G Y 9 F a + 2.h.I.R.I.R.E.U.U.U.I.g.J e e ) t.k.n.z.b.n.",
"b.b.b.b.b.z.k.b.b.*.> D g j.E.`.E.!.!.U.f.p.*.$ X F l v | n f M z k v m l a a i f @ = p.f.I.I.I.I.T.I.I.<.S D F D 5.6.k.z.z.z.z.",
"b.b.t.b.k.k.k.t.6., > V g / I.E.E.I.I.a.,.& $ , 1.y.m.C.Q.V.y.@.z n m n j l p S F F 4 % >.a.r.q.6.6.6.T D q A D f <.6.k.z.z.z.z.",
"k.b.k.k.z.b.t.t.>.> C s k L 4.j.f.a.,.g f @ :.j.Q.^.%X+X~.!.R.Y.B.X.c c g J 9.c.c.l.,.:.*.>.) g s S ) m ' q.r.) g U <.6.k.k.k.z.",
"k.k.k.k.t.t.k.5.R V d n k b { L ^ J p i C 1.j.E.~.~.~.~.!.!.R.R.c.{ l l +.).%X,X=X*XoXE.x.4.D r w L r.E.`.!.Y.l.m V >.6.t.k.k.t.",
"t.k.b.t.t.t.t.E C i t c m  .m r m g V > :.h.E.E.!.!.~.!.U.T.R.T.c.| x m H.*X>X*X*X*X%X*XoXj.@.n z ! c.E.Y.!.`.v.w.D : >.<.k.t.t.",
"t.t.t.t.6.6.5.> S a 1 ~ ].$XJ.L l p > , p.h.R.E.T.!.P.Q.P.P.U.L.a.~ m M.oX@X@X@X@X*X@XoX@XI.x.O.M w.I.I.U.!.`.`.c.T o > *.<.t.t.",
"t.6.t.6.t.6., : g K O.{.,X>X<X@X@.H Z C 3.a.L.R.U.U.U.P.I.L.L.d.4.m c 0.XXoX@XoX@X@XOXOXXX!.x._ l ! x.I.U.E.Y.!.!.a.$ X & , 5.t.",
"6.t.6.6.6.*.: K l L ].@X@X@X>X>X*X!./ c F / h.h.L.P.L.h.I.f.f.p.1.! S l.~.`.oXoXXXXXXXXX!.!.I.t.f W f.I.U.Y.Y.E.XXj.;   X , *.5.",
"> > , , > : d g p N.@X@X@X@X@X@X%X@XC.m l S W a.g.h.h.h.f.d.i.1.3.H Y x.`.XXXXXXXX!.XX!.!.E.f.L.R ; 3.f.h.I.U.E.E.U.:.X   % > > ",
"> > O > O B l d 9.oXoXoXOX@X@XOX@X%X!.( c l v G Y ,.d.i.1.1.1.1.W s D h.E.E.E.E.!.E.E.E.E.I.f.*.O % 1.f.h.x.I.U.U.Y.p.& . X O # ",
"X : B i B f F g r.oXoXoXoXoXOXOXoX@XXXr.n k m ..a Z Y :.1.=.%., u V V ,.I.Y.E.Y.R.E.Y.U.Y.h.f.%.. X ; i.f.I.I.I.I.Y.f.; O X # O ",
"T s p a s s f c 8.XXXXXXoXoXoXoXoXoXoXc.{ N D.].A.m.s V & ; >.>.7.3.T u p.U.I.Y.Y.I.U.I.L.f.i., I.p.% *.d.L.I.I.I.U.p.%.# , 6.>.",
"{.F.5.F p d e p y.!.~.oXXXXXoXoXoXoXoXI.` c Z.+X+XQ.D V R g.j.x.j.f.4.>.*.f.f.L.x.I.I.f.f.f.>.I.;X;X*.%.1.f.f.h.x.f.1.$ & Y.>X*X",
"*X*X$XF.` f t s ( Q.`.XXXXXXXXXXXXoXXXY.7.F U.~.R.d.6 / j.c.E.oX@XoXf.2., *.*.*.i.p.d.p.p.>.2.^.;X@XR.*.%.i.f.f.f.i.; $ 1.`.%X%X",
"=X&X%X$XoXC.~ n s y.E.XXXXXXXXXXXXXXXXU.9.S I.T.f.*.2.j.Y.`.`.!.E.!.E.U.*.$ # X X # = *., , f.#XXX`.`.a.; %.1.s.i.%.Z V g.`.oX$X",
"+X+X$XoXXXXX!.~ p 9.E.E.E.E.E.`.!.XX!.U.4.S 3.1., 2.j.U.!.E.!.E.E.Y.Y.Y.1.X . X & ; , , , *.T.W.!.E.W.I.:.; %.%.- Y s c r.!.'.oX",
"'.~.oX~.!.Q.E.F.v ~ I.E.E.E.E.`.!.E.E.U.9.S O X %.f.c.E.Y.U.E.Y.Y.E.x.U.i.% $ E.OXoXY.f., >.L.R.E.E.R.I.Q D 9 ; Z s b P g.!.~.'.",
"~.oX!.!.!.E.Y.c.~ S j.E.E.W.E.E.E.E.E.U.g.% X = p.j.I.U.U.U.U.U.I.I.I.f.p.*., `.oXoXOXE.6.*.L.T.R.I.h.` ! g Z S m k l ! h.U.Q.!.",
"!.!.Q.!.E.U.U.p.:.S 9.I.E.Y.E.E.E.E.E.I.a.# $ 1.f.x.c.I.L.I.I.L.h.L.L.h.i.; *.U.!.XXXXXXx.*.*.1.1.T H v ! >.A l n b m / a.U.Y.Q.",
"Q.!.U.P.I.U.p.:.E U <.U.R.U.R.I.E.E.R.I.d.X % 2.f.f.f.f.h.L.f.h.h.h.L.f.i.%.*.j.E.E.!.!.U.>.% @ Z ! 0.j.c.R.Z.O._ m n W p.U.U.Y.",
"U.P.U.I.I.d.*., > E T <.L.I.U.L.I.R.I.L.p.X * p.f.f.f.f.f.f.f.f.f.f.f.f.p.; > a.E.R.E.E.I.2.= :.g.I.I.~.@X@X@X@XE.J p W 1.h.L.I.",
"x.h.I.I.d.*., *.>.<.D ~ h.h.h.L.I.I.I.f.i.X % *.p.d.f.f.d.d.f.f.f.d.d.d./ Z g H j.E.I.U.I.d.:.h.h.U.!.XX`.oXXXXXOX| f :.1.d.h.h.",
"g.f.f.s.=.= :.XX%XQ.[ v 9.g.g.f.f.f.h.f.*.X X ; *.*.*.*.s.d.d.s.d.i.i.1.H z w s 7.h.x.h.d.1.p.h.I.E.E.!.~.XXXXXXoXC.F I =.1.d.f.",
"f.d.;.=.= ; !.:X=XD.c l f J [ 0.f.f.f.1.% % *.E , * %.%.&.&.-.;.;.-.=.G F n r s L / 3.i.*.; 4.f.I.R.E.E.E.!.`.`.`.!.7.I %.%.i.d.",
"d.;.&.* % i.+X%X~.@.z w x l l [ _ ,.Q f : 2.6.k.t.5., % B B Y Z 8 d g l z m S ) g g d o O B T f.h.I.Y.R.Y.E.E.!.`.!.j.; * %.%.;.",
"-.%.* $ O f.~.~.h.T n i m z x N l p D a B >.5.6.6.t.t.>.E Z p v ( m...z z P t.b.z.z.e.! > C f ) q.a.h.U.I.I.Y.E.E.E.I.; $ %.%.%.",
"- - O O O ;.L.;.%.X A U 7.w.S.m.F F r s d I >.5.6.6.t.t.6.<.I 9.!.^.Q.o.| y.b.z.t.z.b.k.k.6.) b p D ~ 9.g.L.U.T.Y.R.T.:.X * * * ",
"# X . X O $ - * % *.f.I.E.!.!.XX'.S.{ | g g A *.>.5.6.6.6.>.; :.f.P.P./ ` k.k.t.t.k.t.t.t.6.t.) m l l L J / 8.g.f.I.h.; X $ # $ ",
"# $ ; = $ O 6 S *.j.U.I.U.U.Y.E.E.oXY.j.q.L A C , >.5.>.>., > ; =.1.R V T 6.t.t.t.t.6.6.6.6.>.T { x z } F L s Q 1.p.1.% X O $ $ ",
"!.!.XX!.l.8 r S p.L.h.x.I.U.U.E.E.E.`.!.Y.Y.Q d > , , > , , 1.g.x.g.9.G T 5.5.6.5.5.6.6.5.*.E s s _ #.Y./.).y.<.>., , % O ; p.h.",
"%XOXXXoX).v a Y a.h.L.L.I.I.I.U.Y.E.E.E.!.XXQ./ @ $ & % % 1.I.!.!.!.U.' s U >.5.5.5.5.>.>.! g m _ v.'.XXE.Y.E.U.4., & # %.c.@X@X",
"oXoXXXXXF.{ c S i.d.f.L.L.I.I.I.U.I.U.U.U.U.U.I.1.$ $ O :.U.!.`.XXXX!.r.D U , >.*.>., V V g J y.v.E.E.R.U.U.U.U.f.:.% O f.OXOXoX",
"XXXXXXE.`.j.S V 1.d.f.h.L.L.h.I.I.I.I.U.U.I.U.U.x.*.% % p.E.E.E.!.!.E.U.<.I > > > , > u S / g.x.Y.I.Y.I.U.U.I.U.f.:.% $ I.XXoXXX",
"XX!.~.E.Y.f.u u :.s.d.f.f.f.h.L.I.I.T.I.U.L.I.x.I.f.*.% *.E.E.E.E.R.Y.U.2.= % + > > C U a.f.L.U.I.I.I.U.T.I.x.I.d.:.& % h.!.!.!.",
"E.!.E.E.I.f.V d ; s.d.s.f.f.L.f.L.L.f.f.h.L.L.L.f.f.i.; ; x.E.E.U.I.I.x., *.:.= % % *.i.f.f.L.L.U.x.I.h.I.h.L.f.1.:.& Z f.E.E.`.",
"E.E.E.U.I.a.> d 8 &.s.s.d.d.f.f.f.f.f.L.h.h.f.f.L.f.d.-.9 4.I.U.T.I.f.1.; R.^.p.% , *.a.L.f.f.h.f.L.f.h.L.f.h.f.1.%., Z <.E.E.E.",
"E.E.R.I.f.a.*.I 9 %.&.;.s.s.d.f.f.d.f.f.d.f.d.f.f.f.d.1.F S a.x.f.a.:.= i.E.~.f.> *.i.f.f.d.f.h.d.d.f.f.f.f.f.f.1.%.; S T I.E.E.",
"R.I.f.a.*.*.2.2.R %.%.&.-.;.s.s.d.s.d.d.d.d.d.d.p.*.&.R s a & ; , :.*.> 1.L.L.9.g :.*.s.d.d.d.f.d.d.d.f.d.d.d.d.1.%.& V S d.Y.R.",
"p.1.1.:., 1.P.~.E.Q 8 ; %.%.%.%.%.&.-.%.-.-.-.=.W R ; Z f d o 0 a.x.h.g.R Z W G s 9 -.;.s.s.;.s.s.d.s.s.p.p.s.s.%.C u a d 1.i.p.",
"%.; ; , , 3.P.~.#XZ.[ a 5 8 7 O $ & d 8 J G ~ S p V V s l b H g.`.@XE.h.g.S d l a R %.%.-.;.;.;.s.;.s.;.i.;.i.%.%.W g l h , ; ; ",
":.4.3.:.R R d.R.R.~._ s D c 2 8 ,./ f J c s { n l r V s l m j.!.%X%XOXx.h.9.F l a I - %.%.%.%.&.-.=.%.-.-.%.%.; & T n l b 7 X $ ",
"oX%XXXL.g.Q W a.L.x./ v d G 3.Y.~.].!.!.M.' _ b r s H g m ' x.oX@X@XoX!.h.h.( N v d Z $ = 9 ; 0 Y Y 0 0 ; - & g c F g n m @ :.x.",
"<X<X<XoXx.x.~ i ~ m g g / g.`.%X$X+X$X].!.!.!.#./ H s l f y.!.@X@XoXXXXXT.L.y.m k l 5 O O u f F c l S < F S d l k n m l r H !.<X",
">X>X%X>XOXU.7.S { l g 3.d.`.$XOX$X'.~.XX!.!.U.I.h.' l j g v.oXoXoXoXXXXXU.g.y.b r t 8 ; 3.4.( F _ S Z S s r ! ..n f h k w _ $X*X",
"%X%X%X%X@XE.h.! c f Y 3.Y.].XXoXoX~.!.!.Q.U.U.I.h.w.{ n _ `.oX`.oXXXXXXXE.h.3.8 S J 9.c.h.g.c.c.x.g., 8 B ( ~.=XF.R S m d N.$X@X",
"@X%X@X@XXXU.7.F l G 1.g.!.~.~.!.!.!.!.!.U.U.I.L.h.d.7.) u.`.XXXXXXXX`.`.R.a.; O =.x.!.~.!.XX@X%XoXR.3.& I x.-X,X+Xg.d d ,.'.@X@X"
};
