/* XPM */
static char *Texture_11[] = {
/* columns rows colors chars-per-pixel */
"64 64 155 2 ",
"   c #383C1E",
".  c #2E2927",
"X  c #2E2929",
"o  c #322D2B",
"O  c #3B3D26",
"+  c #35322D",
"@  c #39352D",
"#  c #3C3C2C",
"$  c #353232",
"%  c #3A3533",
"&  c #3D3A35",
"*  c #35343A",
"=  c #39373B",
"-  c #3C3A3B",
";  c #413E33",
":  c #413D3C",
">  c #3F4F0E",
",  c #3F5209",
"<  c #3F4B15",
"1  c #3E451D",
"2  c #3E4324",
"3  c #3E412B",
"4  c #3E4135",
"5  c #3E4239",
"6  c #404E0F",
"7  c #465D07",
"8  c #42540C",
"9  c #465A0C",
"0  c #495D0D",
"q  c #414E15",
"w  c #434D1D",
"e  c #455413",
"r  c #495716",
"t  c #475912",
"y  c #4B5C14",
"u  c #46521B",
"i  c #49551C",
"p  c #4C5B1B",
"a  c #505E1C",
"s  c #476006",
"d  c #4B6306",
"f  c #4D630B",
"g  c #51660D",
"h  c #53690D",
"j  c #4E6113",
"k  c #4F6118",
"l  c #516413",
"z  c #556913",
"x  c #596F11",
"c  c #52621A",
"v  c #58661F",
"b  c #56681B",
"n  c #404624",
"m  c #444C23",
"M  c #42442C",
"N  c #454B2B",
"B  c #494E2C",
"V  c #465122",
"C  c #4A5423",
"Z  c #4E5A23",
"A  c #47502C",
"S  c #4B532B",
"D  c #4F5A2B",
"F  c #515E24",
"G  c #50572F",
"H  c #525C2A",
"J  c #434434",
"K  c #454A33",
"L  c #494D33",
"P  c #44433C",
"I  c #48463C",
"U  c #46493D",
"Y  c #4A4D3B",
"T  c #4C5333",
"R  c #4D533A",
"E  c #4F583A",
"W  c #515633",
"Q  c #525C33",
"!  c #50523A",
"~  c #535A3C",
"^  c #546223",
"/  c #586522",
"(  c #586822",
")  c #55622A",
"_  c #5A672D",
"`  c #576828",
"'  c #596829",
"]  c #556133",
"[  c #596533",
"{  c #5F6A36",
"}  c #5A643B",
"|  c #5E693B",
" . c #3C3C43",
".. c #413F41",
"X. c #3F4049",
"o. c #454343",
"O. c #484645",
"+. c #464944",
"@. c #4B4C44",
"#. c #44444C",
"$. c #49474A",
"%. c #46484C",
"&. c #4C4B4C",
"*. c #504F41",
"=. c #514F4E",
"-. c #4D5244",
";. c #4E524C",
":. c #515544",
">. c #555C43",
",. c #52544D",
"<. c #555A4C",
"1. c #595D4C",
"2. c #474751",
"3. c #484751",
"4. c #474852",
"5. c #4B4B54",
"6. c #4D4E59",
"7. c #504F52",
"8. c #504F5A",
"9. c #4F5153",
"0. c #4E515B",
"q. c #545353",
"w. c #585756",
"e. c #565A52",
"r. c #5A5C54",
"t. c #52535D",
"y. c #595758",
"u. c #56595B",
"i. c #5C5B5B",
"p. c #605E5E",
"a. c #5B6441",
"s. c #5B624B",
"d. c #5F684D",
"f. c #5D6252",
"g. c #5D625C",
"h. c #606644",
"j. c #60644D",
"k. c #63684F",
"l. c #616456",
"z. c #6A6E56",
"x. c #61605D",
"c. c #545661",
"v. c #575863",
"b. c #5A5B65",
"n. c #5C5E69",
"m. c #615F60",
"M. c #605F6A",
"N. c #5E6164",
"B. c #5E616B",
"V. c #636263",
"C. c #696866",
"Z. c #61636D",
"A. c #646571",
"S. c #666873",
"D. c #686974",
/* pixels */
"w.w.&.B z ) i.B.B.B.n.n.n.n.n.v.6.4.o.o.5.4.6.6.c.t.b.n.b.n.n.b.v.v.9. .$ $ o.=.&.7.7.q.q.q.y.m.m.m.m.m.m.m.m.p.w.% + % O.w.q.q.",
"q.q.@.Z d y e.B.B.N.n.B.n.v.v.n.c.5. .- 2.4.4.5.4.4.4.5.3.3.#.....n u # O # : =.&.&.7.q.q.q.w.i.p.p.p.m.m.p.p.i.q.- + @ : w.q.w.",
"q.q.I F y p u.Z.n.b.B.B.n.n.n.v.v.0.P @ = = = = : $ X o o o % $ % i 9 k y i P $.&.&.=.7.7.7.q.w.y.p.p.p.m.p.p.p.w.: @ w J 7.=.q.",
"=.@.H t r Y v.Z.B.B.B.B.n.n.n.n.v.0.V w % % % - ..- ..#.$.3.8.8.u.r.s.H d r J &.$.&.&.7.&.7.q.7.q.i.p.i.i.p.i.i.i.: w 8 w *.,.=.",
"$.@.F d 0 I c.n.B.B.B.n.n.n.n.v.b.t.A V I 5.6.t.c.v.b.b.M.Z.A.D.A.S.Z.a.p i J $.&.=.&.=.=.7.7.7.7.7.y.i.i.i.i.i.w.! u y M o.=.O.",
"@.O.B p r B q.B.B.n.B.n.n.n.n.n.n.v.+.Z T t.v.v.v.v.v.b.b.M.A.A.Z.Z.B.r.Z r S O.O.$.$.&.&.&.=.=.7.7.q.y.y.i.y.y.y.[ f 7 ; I &.O.",
"O.O.% N 8 u q.Z.B.B.B.n.n.n.n.n.b.u.Z l W 8.c.c.v.c.v.b.b.M.M.M.Z.B.A.r.z 7 p o.$.$.$.=.&.&.&.&.7.7.=.q.w.w.w.w.y.~ l e M : O.$.",
"..o.n m m L 8.n.B.B.B.n.n.n.n.n.n.r.k g G 5.t.v.v.c.v.v.b.M.M.M.B.B.n.<.v y D I ..O.O.$.$.$.&.&.=.&.&.=.w.w.w.q.w.,.M w O - O.O.",
"$ # e 8 m U q.B.B.B.B.B.B.n.B.n.v.v.R Z L 4.0.c.v.v.v.c.n.B.B.B.B.n.N.] 8 h G ......O.$...$.&.&.$.&.&.$.O.P : : J L n 8 q ; # % ",
"% & m r f r e.Z.B.B.B.n.n.n.n.n.n.v.U > m 5.0.c.v.v.v.v.B.B.n.n.n.B.g.] 7 0 u ; % % $ % = : ....o.o.o.& @ w n 2 r l p i u 0 n @ ",
"o.o.I H f p r.Z.B.B.B.n.B.n.n.n.n.v.T 0 w #.c.v.v.n.b.n.B.n.n.B.B.B.B.:.a v J % + o o o X . . X + 2 O n u s z p g d z I ! H L O.",
"m.b.8.Y F F b.Z.B.B.n.B.B.B.b.c.b.v.H z w o.6.0.0.0.t.t.t.c.v.c.t.9.0.2.I W : : ..: - + = : : : P C i f Z c Z p 0 h a i.Z.M.M.b.",
"Z.A.v.5.W i -.,.e.a.-.;.;.~ ^ T ;.-.t f l p Z Z T - N 4 J 4 5 - N Z S J P #.t.v.v.v.$.; 8.c.c.c.v.:.t p O.&.u.w./ z Q n.A.Z.Z.Z.",
"n.M.M.8.@.V i y k f r k f j f s r t e r l g 0 d k 3 u i j y i i y d z C +.t.M.b.y.t.5.: 8.M.M.t.0.;.u K 3.c.v.u.' d ^ u.Z.Z.M.Z.",
"B.n.Z.b.:.k p b ^ 0 y k g b i p k s 0 0 l p B F S : 5 L g j T +.R ) Y %.t.v.v.t.c.c.$.O.8.M.M.c.t.5.& - %.t.t.u.T a ~ v.Z.M.n.n.",
"B.Z.n.n.9.V T u.u.>.:.<.s.u.e.<.a.] ) z ^ w.v.u.v.u.v.>.p p X.4.4.9.6.0.v.v.u.v.t.8.#...7.b.b.8.t.3.%  .#.8.8.5. .# &.v.V.M.n.b.",
"Z.B.B.b.&.u P b.Z.B.Z.Z.Z.A.A.A.Z.B.Z.l.g.N.b.v.c.c.v._ s y X.%.3.5.5.t.0.u.u.u.t.t.o.- 2.b.n.t.t.2.& = X.0.9.5.- o %.v.Z.n.N.n.",
"B.B.B.b.@.1 ..b.B.B.Z.Z.B.Z.Z.Z.Z.A.B.v.v.v.c.c.t.t.9.] j u +.X.2.#.8.t.0.0.0.0.t.0.X.- %.c.b.t.t.2.:  .X.6.0.0. .o #.v.n.n.N.Z.",
"n.B.n.b....  .b.B.B.B.B.Z.Z.Z.Z.B.B.b.v.c.c.0.c.t.0.6.+.V u +.2.#.2.0.0.0.0.0.9.0.5.+.3 +.v.n.t.t.3.o...X.X.4.4.* + o.t.B.B.B.B.",
"B.n.B.v.= o : v.B.B.B.Z.B.B.B.B.B.n.v.v.v.c.t.c.0.9.0.Q k A - X.#.5.9.0.0.9.0.0.0.5.D f T c.n.t.t.#.P : X.X.X.X.* $ 2.t.B.B.n.n.",
"n.n.n.c.= 1 I v.B.B.B.B.B.B.B.B.B.v.c.c.t.v.t.c.0.0.9.f f L  . .X.5.5.5.6.6.5.t.9.4.U i R 0.b.u.6.@.p V - X.X.X.* % 2.t.b.b.B.B.",
"n.n.n.0.; V U v.B.B.B.B.B.B.B.n.c.c.c.v.t.0.0.0.0.0.4.C p P  ...#.4.0.4.4.;.X.X.X. .4 i S %.5.4.5.~ f j 4  . .X.* - 2.c.c.v.n.b.",
"v.n.B.c.B y Y c.b.v.b.b.v.v.u.u.0.0.0.0.5.6.0.6.5.6.4...V i :  . . .5 5 A C 2 $ + + 1 < 4 S C 4 5 S z k 3 * * * $ : #.t.c.c.t.t.",
"t.c.c.u.G t i K K 4 C k S 4 K ^ D < 3 5  . . . . .=  .- Z y ; $ $ 3 y V j s e N p F > , C s 7 p V p k c u * 5 * : : 2.0.0.t.t.t.",
"t.0.0.0.^ f f y k t f f k e p f l C p e & % + $ % % % % ; ; ; : 5 L Z W ) a Z p f t 2 K ;.] [ f.u.r.f.r.e.b.b.v.v.: ..6.6.6.c.c.",
"c.c.0.0.A j u :.:.>.a.] <.q.;.Z E 5.;.-.: & $.q.t.y.t.$.: ; : ..u.q.p.p.l.p.*.u f Z e.b.n.N.B.B.A.A.A.A.A.A.B.B.Z...= 5.6.6.0.6.",
"0.0.0.4.5 e > ;.0.t.c.v.v.i.t.5.4.4.4.X.J & b.D.A.A.Z.b...: I w.y.p.i.i.m.m.O.C F ;.c.v.t.c.B.B.Z.Z.B.b.n.n.n.B.n.$.% #.6.0.0.0.",
"0.0.0.5.4 u i <.9.0.u.q.Q _ @.#.X. . .4 q w i.D.A.A.A.b...; O.w.y.u.i.p.p.p.! l l :.0.0.t.t.c.n.B.N.N.b.B.B.B.N.b.8.: : 4.6.0.0.",
"6.6.4.-.k 7 p F S T K C d d v 3 3 2 2 u t 1 i.A.C.Z.Z.b.O.; ..w.w.w.w.p.i.i.Y r k ,.0.0.t.c.t.u.n.B.n.B.B.B.B.B.n.c. .& #.9.5.;.",
"K 5 - C z f l d 0 j 8 f d f y p l h j 9 A -.M.Z.M.Z.M.b.$.% : =.q.q.w.,.w.p.! p S 9.0.0.0.t.t.t.v.b.n.B.B.B.B.g.d.e.O.C r C U S ",
"g k k f z y j g f h s y l v / y s d b a.b.n.Z.Z.M.Z.M.v.$.: : =.q.w.w.p.w.p.F f f +.5.5.6.4.-.[ R ;.:.q.,.} E ) l ` T p f f Z , ",
"d i b f s j f k ^ p j ^ ~ *.*.S h g ] B.A.Z.Z.A.Z.Z.Z.M...% : &.w.w.w.w.w.w.H t t 4 5 4 2 4 C f 0 y f p C j f f s g k j p < V t ",
"/ ! W a H [ / Q w.1.h.h.w.q.i.:.B G 1.Z.A.B.A.Z.Z.n.n.n.#.% % O.=.w.w.w.p.&.; e i e O u 8 B W y p Z j ^ Q k 0 j f x f f B : J H ",
"z.C.M.p.p.p.p.p.p.w.q.<.7.=.=.@.% % 5.Z.A.A.B.Z.Z.Z.Z.n.3.I I O.=.w.,.w.w.O.; 0 V P O.! Q <.u.r.r.i.f.f.u.<._ k 9 f b ( s.m.m.p.",
"p.p.p.p.p.p.p.w.q.q.q.q.=.7.=.&.; % 5.n.B.B.Z.Z.Z.N.Z.n.7.F B O.=.=.=.,.q.L t r <.c.v.v.M.M.M.Z.Z.B.B.B.B.B.s.k s j { k.x.p.p.p.",
"p.p.p.p.w.p.w.p.w.q.q.7.q.=.=.O.: % #.N.A.B.Z.Z.Z.B.M.M.5.S u o.O.=.=.=.&.p g a u.u.b.B.Z.M.Z.Z.A.B.n.B.B.N.a.j h ' g.V.p.i.i.p.",
"p.p.p.p.p.i.w.w.w.q.q.=.q.=.&.$.: % ..b.B.B.Z.B.Z.B.B.B.5.D m P O.&.&.O.; C g Q u.v.v.B.A.Z.B.B.B.B.B.B.n.N.[ f 0 ! i.p.p.p.i.p.",
"p.p.p.p.w.p.p.q.q.w.w.q.q.=.&.&.o.; : c.n.n.B.B.n.B.n.b.<.j C - O.O.&...; y f >.v.v.v.n.B.B.B.B.B.B.B.n.n.n.s.k p ! i.p.p.p.i.p.",
"q.p.p.q.i.w.w.q.q.w.=.=.=.&.&.$.O.: % 6.c.c.v.v.v.v.b.v.4.T i M O.O.&.: ; y l 1.v.0.t.v.B.B.B.B.B.B.n.n.n.n.9.V 6 S i.i.i.p.i.i.",
"p.p.p.p.i.w.w.7.w.q.=.=.&.&.&.O.O.; B 5.t.t.t.t.t.0.c.t.4.L p M O.....: w t :.v.v.v.v.v.b.B.B.B.B.n.B.n.n.n.9.C 8 L i.p.p.i.i.i.",
"p.w.p.p.w.p.=.q.7.=.=.=.=.$.&.O.O.J p @.8.6.t.t.0.0.0.0.;.y g A ......; 3 T 9.c.c.c.c.c.c.n.B.B.n.n.n.n.n.g.^ 0 r I p.p.w.p.w.p.",
"=.O.O.I O.=.q.=.q.=.=.&.&.&.$.O.o.B a ! 6.t.0.0.0.0.0.0.5.a g N ....; ; < -.t.v.c.c.0.c.c.v.B.n.n.n.n.n.n.N.` f p ; =.p.p.=.=.=.",
"+ ; @ ; + ; &.&.O.$.$.O.o.O.o.P I p d a T +.2.;.2.;.E +. .4 F C M : ; q > -.t.v.0.c.c.c.0.c.n.n.b.n.n.n.v.t.-.S a u T D i ; @ + ",
"@ 6 6 6 w ; ; ; M M M M o @ % ; i g l t , 2 p k 3 i g p < N i f w S C m T 0.c.t.0.c.0.0.0.6.c.b.c.t.0.-.Q T ; L a y F g 7   o o ",
"- L C e p t e r p a e 8 @ o u u y g D S C N j f S C j C C C j s 8 a f t -.c.t.t.0.0.5.2.#.X.#.#.X.5 5 m d z p r y g / a i n $ % ",
"8.8.u.1.W g 7 W r.t.1.>.w.t.e.w.s.a.g.N.N.b.s.s.N.u.E C V U ) a C a 0 r ;.t.0.4.9.X.X.= $ $ m w > e p S ^ H @.Y a g S U o.#.2.4.",
"t.c.v.v.@.a a >.b.b.b.b.b.n.n.n.n.A.A.A.A.A.A.A.S.S.d.j 7 T 9.4.:.&.N B I L 5 K Z 3 & * % & T T C T <.u.b.N.M.~ l h ^ -.5.0.6.t.",
"u.t.u.t.T g t >.b.c.c.t.c.v.v.v.b.B.A.B.B.B.B.B.B.B.g.D y V ;.4.5.4.o.H j 0 u e D +.9.u.t.u.v.n.N.B.A.A.B.n.n.Q d 7 g -.0.6.8.8.",
"b.v.v.q.L r a e.v.u.c.c.v.v.v.v.B.B.Z.Z.B.B.B.B.B.n.n.;.e 8 Y 9.4.6.%.S f 0 A -.c.v.n.n.M.M.n.M.B.n.n.b.v.n.v.~ j h k X.0.0.u.u.",
"v.v.M.:.y w @.t.c.t.c.c.v.v.c.b.B.B.Z.B.B.B.B.B.n.n.n.4.m m o.0.0.9.#.4 Z L w.c.c.0.c.0.c.n.M.n.N.n.n.n.v.v.v.0.Q b ( -.9.0.0.c.",
"8.v.v.O.u 8 L t.t.c.c.c.v.v.c.M.A.B.B.B.B.B.B.B.n.n.n.;.u 2 K 0.9.0.o.u w &.t.0.6.c.c.6.c.b.M.n.B.b.n.b.v.n.v.c.5 f f E 4.4.5.0.",
"8.8.u.! u e -.t.c.t.c.c.c.v.v.M.B.A.B.B.Z.B.B.B.n.B.B.9.A e > 9.c.4.X.3 M 5.6.c.0.c.c.c.c.c.b.M.B.B.b.b.B.B.v.c.-.F Z X.4.4.4.5.",
"8.8.q.^ p B 5.v.0.t.c.c.v.v.M.A.B.B.B.B.B.B.n.n.n.n.n.0.X.2 2 9.6.2. .* % 3.8.8.0.0.c.c.c.c.c.M.B.B.b.v.B.n.v.0.T V 5 #.4.4.2.5.",
"5.8.! 0 7 Z -.c.c.t.t.c.v.v.n.n.B.B.B.B.n.n.n.n.n.n.B.b.X.& & X.4.4.#.* % 2.8.8.0.c.c.c.c.c.c.c.n.B.B.b.B.v.B.c.k r - X.%.4.5.4.",
"8.8.Q h 7 C ,.t.c.c.c.c.v.n.Z.n.B.B.n.n.n.n.n.n.n.b.n.b.%.4 3 +.4.4.#.$ % ..0.0.c.0.c.c.c.c.c.c.c.B.B.B.B.v.B.v.R N =  .2.4.5.4.",
"5.5.+.F p C @.6.6.6.c.6.c.M.n.n.n.n.B.n.n.n.n.n.b.b.b.c.~ j t 4 4.4.X.* = ..0.0.t.t.c.c.c.m.c.c.t.v.B.b.n.n.v.n.2.- &  .2.2.4.4.",
"$.U B a c f N .. . .......t.n.n.n.n.n.n.n.v.n.n.v.c.u.#.S f s M #.2. .* & ..6.t.8.v.c.c.c.c.c.c.t.v.b.n.n.n.n.n.6.- %  .#.2.2.2.",
"& Z d y z 0 V ; -  .: %  ...6...2.#.#.#.$.$.o.U X.4 u n m p V m $ $ * # w N 6.8.8.t.c.c.c.y.t.c.u.t.c.v.b.b.n.n.6.: : =  . . .= ",
"% J p / / C ! =.$.O.$...$ o $ $ $ $ % % u e n e w u e r , u Z 0 O X X w f r O.5.=.5.=.=.8.8.3.3.4.2.#.#.$.5.$.#.P J : * * o o $ ",
": +.! D g Z <.u.v.n.b.v.....*  .: % % : H F -.! Q Q ;.>.C T -.~ ;.6.5.M l c p V p m p j B = =  . . .: N m M B n u 1 & & % % ; - ",
"w.p.j.a s t | Z.B.n.B.B.M.c.c.c.t.&.- $.v.u.v.n.b.B.n.B.Z.V.Z.Z.S.Z.N.B i w V l 7 0 y g i q ; ; ; p Z a 7 0 j 7 q ; + % : o.=.=.",
"p.p.p.F g i r.Z.n.n.n.n.Z.M.b.c.c.t.: %.t.0.c.n.B.B.B.Z.B.Z.B.B.B.B.g.c 7 e J H a Z L W ; N ; : ; p H a 0 a a 0 i i 1 : =.i.p.y.",
"w.w.=.Z 0 H v.A.B.n.n.v.v.n.t.6.6.6.: #.0.6.0.c.v.n.B.B.B.b.B.b.B.B.i./ t w O.<.=.=.=.w.q.=.=.=.,.w.i.p.j.p.1.j.=.; @ ; ,.p.w.w.",
"w.p.=.F f F v.A.n.n.n.v.n.n.v.0.6.6...o.6.6.0.0.c.b.n.B.B.B.B.n.n.n.v.Y ; ; o.=.=.7.q.w.p.m.C.C.x.V.x.x.m.p.p.p.p.; o ; =.y.w.w."
};
