/* XPM */
static char *Texture_55[] = {
/* columns rows colors chars-per-pixel */
"64 64 177 2 ",
"   c #2F2B27",
".  c #332E2B",
"X  c #343327",
"o  c #3B3D26",
"O  c #35312D",
"+  c #3C352E",
"@  c #3D3C2C",
"#  c #373331",
"$  c #3A3532",
"%  c #3E3A34",
"&  c #3B363A",
"*  c #3D3A3C",
"=  c #41362E",
"-  c #433C2E",
";  c #423630",
":  c #443B33",
">  c #493E35",
",  c #433D3A",
"<  c #493F38",
"1  c #3D4E0C",
"2  c #3E5306",
"3  c #3F5209",
"4  c #3F4A17",
"5  c #3C431E",
"6  c #3C4022",
"7  c #405507",
"8  c #465F06",
"9  c #485F07",
"0  c #42540C",
"q  c #475B0C",
"w  c #495E0C",
"e  c #434E16",
"r  c #444E1C",
"t  c #455414",
"y  c #485716",
"u  c #4B5C14",
"i  c #46521A",
"p  c #4A551C",
"a  c #4D5A1B",
"s  c #515E1C",
"d  c #466005",
"f  c #4A6306",
"g  c #4C630B",
"h  c #50670D",
"j  c #52690E",
"k  c #4E6112",
"l  c #4E6019",
"z  c #526414",
"x  c #556913",
"c  c #586C15",
"v  c #53621B",
"b  c #58651E",
"n  c #576819",
"m  c #596A1B",
"M  c #5C7017",
"N  c #5D7019",
"B  c #424425",
"V  c #454C24",
"C  c #494E23",
"Z  c #45432C",
"A  c #49462C",
"S  c #464A2C",
"D  c #4A4B2C",
"F  c #475122",
"G  c #4B5323",
"H  c #4E5A22",
"J  c #475029",
"K  c #4D522B",
"L  c #4E5A29",
"P  c #515525",
"I  c #525D23",
"U  c #50552C",
"Y  c #535A2B",
"T  c #454334",
"R  c #4A4335",
"E  c #474B33",
"W  c #4C4B34",
"Q  c #45423C",
"!  c #4C443A",
"~  c #464938",
"^  c #4D4A3C",
"/  c #514D34",
"(  c #51463C",
")  c #524B3D",
"_  c #594A3F",
"`  c #4D5333",
"'  c #4D523C",
"]  c #4F583A",
"[  c #535334",
"{  c #585637",
"}  c #555932",
"|  c #5A5C35",
" . c #55523B",
".. c #58553B",
"X. c #515B38",
"o. c #5D5B3B",
"O. c #605B3C",
"+. c #556222",
"@. c #5A6623",
"#. c #5C6923",
"$. c #546328",
"%. c #586029",
"&. c #5C6434",
"*. c #5D6A32",
"=. c #5D673D",
"-. c #606F23",
";. c #606535",
":. c #676E34",
">. c #6A6D3E",
",. c #6B703A",
"<. c #3F3B42",
"1. c #413E44",
"2. c #433F48",
"3. c #454243",
"4. c #4A4642",
"5. c #4B4A43",
"6. c #45424A",
"7. c #49464D",
"8. c #4B4A4D",
"9. c #544D42",
"0. c #5A4E44",
"q. c #4E5343",
"w. c #4F514B",
"e. c #555244",
"r. c #5B5245",
"t. c #5D5A43",
"y. c #51534E",
"u. c #5D5549",
"i. c #5F584A",
"p. c #494750",
"a. c #4D4B53",
"s. c #4F4F59",
"d. c #504E56",
"f. c #514F59",
"g. c #525255",
"h. c #585954",
"j. c #54525C",
"k. c #58565F",
"l. c #5C5C5D",
"z. c #625446",
"x. c #615A45",
"c. c #63564A",
"v. c #64594C",
"b. c #6A5A4D",
"n. c #665C51",
"m. c #6C5E51",
"M. c #5C6054",
"N. c #5E605B",
"B. c #646344",
"V. c #6C6C46",
"C. c #676449",
"Z. c #69644B",
"A. c #6B684E",
"S. c #706E4C",
"D. c #6D6155",
"F. c #60615D",
"G. c #6E6459",
"H. c #706256",
"J. c #726B55",
"K. c #72665A",
"L. c #75695D",
"P. c #565661",
"I. c #585761",
"U. c #5E5C64",
"Y. c #5F5D68",
"T. c #605E67",
"R. c #615F69",
"E. c #646466",
"W. c #63616C",
"Q. c #68666B",
"!. c #776B60",
"~. c #796D62",
"^. c #7C7066",
"/. c #7E7268",
"(. c #676570",
"). c #696771",
"_. c #81746A",
/* pixels */
"~.~.~.~.~.~.~.r.R a 8 y  .r.K.~.L.L.!.!.L.L.!.L.L.L.L.m.( - S s w W n.!.~.^.^.G.! , , , 5.g.P.R.R.W.R.U.p.<.<., 5.v.!.!.!.!.!.!.",
"~.~.~.~.~.~.S.Y p n h H ) u.L.L.!.L.~.L.L.L.L.K.K.K.c.R : S w z s K u.!.!.~.^.~.n.! , R H 8.j.I.U.U.j.d.2.<.<.Q ^ c.!.G.!.!.!.~.",
"~.~.~.~.~.~.,.x w g v [ 9.r.D.L.!.~.~.K.L.L.K.K.v.( , > A b g v z u  .K.L.~.~.~.L.v.^ P p ~ a.s.a.7.6.3.6 6.Q F [ r.m.!.K.!.G.~.",
"L.L.~.~.L.L.O.z f f y W 9.9.e.D.K.L.L.K.L.L.m.9.R > > A v j v } } p  .D.~.~.~.~.!.L.v.I k y a ] ' Q E L a S , V t [ u.D.K.!.K.!.",
"L.~.~.~.L.D.[ v x t z t S ^ 9.e.n.K.K.K.D.9.R , : @ G u u 9 a ` ) G W v.L.L.L.~.!.L.K.x.D 9 f u l H g k a E T y 0 s U r.D.G.!.!.",
"L.L.L.L.L.r.A s a F y 2 y p D ) 9.i.n.9.R > : $ . $ K H ` ] L G ^ Q Q u.L.K.K.L.L.K.K.H.;.v z j d z k a ~ 4.5.X.v w g Y r.n.!.!.",
"L.L.L.L.G.W r 7 0 v u u t g a W 9.{ W C B : # . # 3.d.a.a.a.p.^ T , , 9.G.K.K.K.H.H.H.H.b.D s v a L ..t.u.u.r.r.@.f f n r.9.h.L.",
"K.L.L.L.u.K u 7 1 G { } b g z I K n y k G $ O & a.j.j.d.j.I.Y.j.6., , 9.v.K.K.H.H.m.H.H.c.> P 9 K i.G.D.D.G.G.K.:.z x n U  .9.u.",
"r.D.K.D.( D p y a ^ 0.9./ Y n 9 s g w D T * 7.f.P.P.Y.W.(.).(.(.k.6.Q 4.9.n.H.H.D.H.m.H.z.: A u H v.H.G.L.K.L.L.J.V.-.j w Y ) e.",
"9.9.v._ A P u s W r.v.b.c.z.| u k u A , Q s.P.P.Y.W.W.W.(.W.(.W.W.I.6.4.9.9.b.m.m.m.m.m.b.> = V s u.D.K.K.K.K.L.L.K.V.u w v K { ",
") 9._ R P j f u [ c.H.Z.b.b.b.O.s C : $ & s.P.Y.(.W.W.W.(.W.Y.(.W.W.j.3.4.) 9.c.m.b.b.b.9.: + X S i.D.G.K.L.L.K.K.L.K.V.@.g d Y ",
"L  ._ > P j f x o.b.v.c.b.b.b.b.z.! : O   * s.f.Y.W.W.(.W.(.(.(.W.Y.W.d.1.~ ^ 9.c.b.0.> : - = @ : u.D.D.K.K.L.!.K.L.L.~.A.s k a ",
"y y p A s s c | O.b.z.z.b.b.b.O.b.0.> C 6 6 3.s.j.Y.W.W.(.W.W.W.W.W.(.Y.p.` G  .) ! : = - P u v E u.D.H.K.K.L.L.K.K.!.!.^.J.} v ",
"y 3 0 a x g s _ b.b.b.b.O.b.b.b.b.b.z./ F g a ` a.j.P.Y.Y.W.W.W.W.W.R.(.Y.5.L a ^ R > - A n f h I ..n.G.K.K.L.K.!.!.!.!.~.^.D. .",
"s q y F c w D z.b.b.b.z.b.b.b.b.b.b.b.c.^ i u d L s.j.P.W.W.W.W.W.W.R.W.R.I.3.i G A C F n c f g B ^ r.m.H.K.K.K.K.!.!.!.!.!.L.m.",
"x.%.N y w y / c.b.z.b.b.b.b.b.b.b.b.b.b.z.[ z g p ~ s.P.P.Y.Y.W.W.W.(.R.W.j.1.Q B k u u g +.I p K S ) r.D.H.G.G.H.K.K.K.!.!.!.!.",
"n.R v g d w / c.b.z.b.b.b.b.b.b.b.b._ b._ > P M g u W s.g.P.R.W.W.R.W.R.f.1.1.* O y V ` &.t.) ^ Y k L ) i.G.G.D.H.K.!.L.!.K.!.!.",
"r./ a x q k { b.b.b.b.b.b.b.b.b.z._._.z.> ; > c f g a J q.j.P.R.W.R.U.7.1.1., , E L e.D.~.~.c.^ [ n u L  .u.H.K.K.L.L.K.L.L.L.!.",
"( : B c y P O.b.b.b.b.b.m.m.m.z.b.b.b.( = P k j h z z f a w.f.j.j.d.2.1.1., , 4.9.v.!.!.!.~.^.v.) v 9 u H  .v.H.K.L.L.K.L.L.!.!.",
"> = o k d P c.b.m.b.b.m.m.b.m._.b.b._ ; = P q C P @.z h p ` a.s.1.1., 3.4.< 4.i.G.G.G.K.!.!.L.^.v.D s d w Y ..v.n.m.D.G.G.K.L.!.",
"> + X r p  .b.b.b.b.m.m.m.m.m.m.b.( > - - 0 0 / 9.J.V.Y z a 4.6.3.3., , Q 9.n.K.L.K.K.L.L.L.L.!.K.t.@.z z k Y ) ! ( ( ( ) 0.v.n.",
": $ X y K r.b.b.m.m.m.m.b.m.H.m.( : D y C 0 y _ G._._.K.} G K Q < Q ! , ^ v.K.K.K.L.L.L.L.~.L.~.~.K.) / a g u C A W D R R A W R ",
"- + + B ( 9.z.c.m.m.m.b.b.H.b.( : > C S - ! { m./././._.K. .A , < 4.9.R , 9.D.K.K.K.K.L.L.L.L.~.~.~.m.^ S p 0 7 y L w s b z b D ",
"p B + O > > > ! < 9.0.z.z.z.< ; = A V % ! 0.m._.~./.~.~.~.~.4.; , 4.n.v.> Q u.G.K.K.L.L.L.L.L.L.L.L.!.c.R s 0 2 y j f h x f h m ",
"9 y i o $ % , R R : : > : : : : : & , Q e.D.!.^.~.^.^.~.~.~.0.% , ^ i.~.9., ! n.K.K.L.L.K.K.L.L.~.L.L.K.( C y k s x f x x g w k ",
"a a k k i 6 B % : , : : : ; : : : : R e.D.^.~.~.~.^.~.~.~.~.v., % ! r.!.G.^ : 4.b.H.K.K.K.G.L.L.L.L.L.D.} H y k G [ *.=.e.$.` L ",
"g.q.' Y H u a F % $ $ : : % : , , Q 9.n.!.^.!.~.~.^.~.~.~.!.m.> ; Q e.D.~.n.< , 9.D.K.K.K.G.K.K.L.L.K.u.C c g d y h.Q.E.R.U.I.I.",
"W.W.U.j.w.~ ' l i ! 4.< : % & % , 9.n.G.!.!.~.^.^.~.~.~.~.!.K.! T W 9.n.K.L.9.; , r.D.D.H.K.K.K.L.K.G._ D z g 8 H N.R.U.W.W.Q.(.",
"W.(.(.(.(.f.p.` a ^ r.e.9.% $ % 5.c.L.!.L.!.!.!.~.!.!.!.!.!.L.4.A a  .u.G.L.D.R + ! u.D.K.K.K.K.K.H.n.R C s n r *.N.R.R.W.W.Y.W.",
"W.W.W.(.(.W.7.7.E T 9.9.^ & Q 4.u.K.L.L.L.L.!.K.!.!.L.!.!.!.!.9.Z a J 9.n.L.!.9.A u Y c.v.c.z.9._ ! : V 1 w J 4.N.R.R.R.Y.W.W.W.",
"W.W.W.Q.(.W.s.6.6., Q 9.Q , 4.9.D.!.L.K.L.!.L.L.L.!.L.L.!.L.L.v.- s p  .u.G.c.< - y z Y > : : A i C P y 2 3 J h.R.Y.R.Y.W.W.W.W.",
"R.W.W.Q.W.Q.f.7.6.1.# % , ! 9.v.G.!.L.L.L.K.L.!.L.!.L.L.!.!.L.n.R y 9 I ) 9.< ; = - q 0 V R C s f w u p t k a g.U.U.U.Y.Y.Y.Y.W.",
"W.W.W.W.R.(.U.p.6.1.# & % 9.9.G.K.L.L.L.L.L.L.L.~.K.K.L.L.~.K.H./ z g G / A P B O 6 y 0 V U z n v I U / R s s 9.I.W.E.U.W.R.U.W.",
"W.W.W.W.(.(.Y.p.6.1.& # : ) 9.n.L.L.K.K.L.!.K.!.L.L.L.K.L.L.L.L._ P v a y p g t o B K U ) _ | o.x.b.m.r.> p s ^ P.U.U.R.U.R.R.Q.",
"W.W.(.W.R.R.R.d.2.2.<.. # ^ ( r.G.K.K.K.K.K.!.K.L.K.L.~.L.K.L.L.r.I x 9 f a y a ( 9.u.c.n.m.m.m.H.b.m.n.( p s Y g.U.U.R.U.R.Y.W.",
"W.W.R.W.R.(.W.P.6.2.1.& % ^ 9.9.n.K.K.K.L.K.K.!.L.K.K.L.K.L.L.L.z.P z f f a { x.m.m.m.H.D.b.b.m.m.b.b.m.0.A a k e.P.R.U.R.U.U.W.",
"W.W.Y.W.W.W.W.Y.6.1.3.` p W 9.) r.G.K.K.K.K.!.K.L.K.L.K.K.L.K.K.b.A s x y #.u.H.b.H.m.m.H.b.b.b.b.b.b.b.b.< A C J j.U.R.R.U.R.E.",
"Y.W.W.W.W.W.(.U.6.2.3.L g W 9.^ 9.v.K.K.H.K.K.K.K.K.K.K.K.K.H.n.z.; P n k m ..D.H.b.m.H.H.b.H.H.b.b.b.b.b.( < < Q a.k.U.R.R.R.R.",
"R.W.W.W.W.W.P.7.6.1.1.L D Q , ^ ) 9.m.H.H.K.K.K.H.m.m.c.9.( ! : = = r 9 f z ;.m.H.m.b.H.b.b.H.b.b.b.b.b.b.0.> > , 6.j.U.U.U.I.R.",
"Y.Y.W.W.I.p.6.1.6.Q V H Q , : ! ) 9.0.c.z.z.0.9.( R > , : = - + - - C v j c [ v.b.H.m.m.m.m.b.b.b.b.m.b.b.z.< ; , Q a.I.W.R.U.E.",
"R.Y.P.d.6.3.3.~ G V a Y 9.5.; : ^ ^ > : : : : > : - S T ; S V i s s g J s j a o.m.m.m.m.b.H.b.H.b.b.b.b.b.b.< > : , 4.f.T.T.T.T.",
"j.a.6.6.~ F F K u G  .D.L.D.> # , : : : - ; ; = : V z p T G y y g I G D I 9 u  .n.b.b.m.b.H.b.b.b.b.b.z.b.b._ > : , 1.p.I.U.U.T.",
"4.5.' ` V 3 2 a a I v.H.n.v.< O # O O O . . @ @ i p i J G R ! L Y  .4.^ ^ L p _ b.m.m.m.b.b.b.b.b.b.b.b.z.b._ > : : < , s.g.p.7.",
"H G l g l q 3 4 d k W > R ! % . . . . . . O G K L } e.e.t.u.i.C.n.n.n.! Q ~ G ) z.m.b.m.b.b.b.b.b.b.b.b.b.O.b._ ; - , $ 1.5.^ W ",
"9 w w 8 a ` } D u z i + . O O . & : 6 ^ 9.u.i.n.D.G.G.G.L.L.L.L.!.!.L.9.R W y W 9.b.b.b.m.b.b.b.b.b.b.b.z.c.b._ : ; > V S Y m x ",
"8 d C Y ..C.L.L. .s i X $ , ^ 9.u.n.E.L.~.^././._./.^.^.~.K.~.~.K.K.L.D.! K z G ) b.m.b.b.b.b.b.b.z.b.z.b.b._ < = = Z k k z j z ",
"y s =.G.L.!.L.!.r.p a B 9.n.L.!.~./././././././.^.~.~.~.!.L.L.L.L.K.G.K.r.R a 9 s O.c.b.c.z.c.c.z.b.z._ 0.< : ; ; ; - G z k l m ",
"x.Z.J.K.L.L.L.!.v.F u @ ^ G.~.^.^./././././.^./.~.~.~.~.!.L.L.L.!.L.L.K.D.W u g u A < ( ( ( < < ( > > > ; ; : ; ; = > s g k ` ;.",
"L.L.K.K.L.L.L.!.n.R p B ( n.~.~.^.^.^._.~.^.^.~.~.^.~.~.L.L.K.L.L.L.L.L.D._ P u k i R R < R > : ; ; > ; : - - > Z = Z p w a r.K.",
"L.K.K.K.L.L.L.L.b.< S p ! u.L.^.~.^.~.^.~.~.~.~.~.~.~.L.~.L.L.K.L.L.K.K.m.R A s q y a p G a p @ > P p P C G u y u p r r t D v.K.",
"H.H.H.K.K.K.K.L.n.> A p T 9.K.^.^.~.~.^.~.~.~.~.~.~.~.L.L.L.L.K.L.K.K.K.v.: C h u k l u 8 u u a k k p C - R D C p g g w 0 D v.H.",
"H.H.H.H.K.K.K.K.m.> : B $ ^ m.~.~.^.~.~._.~.~.~.~.~.~.L.L.L.L.L.L.K.H.K.r.= > y a H k +.+.` L l I / 9.2.8.8.8.8.r.$.a a a W c.D.",
"m.H.D.H.H.K.K.K.m.< - - p [ v.!.~.~.~.~.~.~.~.~.~.L.L.~.L.L.L.K.H.m.m.m.> = = y F w.M.N.l.k.l.N.T.T.I.T.T.R.T.T.E.g.~ u a ( z.D.",
"b.m.m.D.H.H.H.H.m.: = B w L 9.D.H.K.K.K.L.L.L.L.K.H.n.c.r.0.( ( ! R > : = = + V L g.E.W.E.U.U.T.T.T.T.T.T.T.T.T.T.j.* F y ^ r.b.",
"! ( _ _ 0._ _ _ ( : = V t r ^ T R > R ! ! ( ( ! ( R > > : = = : = = = + = + % % 6.g.I.T.U.U.R.R.n.T.T.T.T.T.I.k.j.8.<.T V ! R ! ",
": , : > : : T - = = - e 7 0 G A D A R A = > > : > = = = = = - : = = = = = + @ % 5.j.T.U.U.U.l.P.j.f.d.a.7.2.2.2.Q 1.& & . + : : ",
"% Q , , Q R I G A : A y 0 t u a z v z u p p G G B - - $ = + + + + + + - - @ J u ' s.d.d.a.7.7.6.2.2.2.2.<.3.Q E I V S 6 $ * 6 & ",
"% % , K p I g g +.s S L u a u v d a I H l Y v w C L V $ # O X . O ; S G a p y u ' 7.1.<.<.<.1.1.6 * Q 6 % S i y g g s a ~ Q & # ",
"5.4.5.+.u U a u x g u a f w Y r.C.A.G.D.D.D.B.=.i.i.e.5.R S % Q ) 9.) / [  .K u L <.<.& & # # 6 H H l t 6 4 2 3 y a ..e.u.9.9.5.",
"~.^.!.L.J.G.Z.C.| u u v g l  .v._._./._.^.^.^.~.L.L.!.G.m.[ F ^ 9.) 9.9.9.9. .a 6 % $ $ 6 6 i i H H k f l u 7 1 K t.D.G.!.~.~./.",
"_._._._._._._._.L.Y J v l Y r.D.^.~.^.^.~.~.L.~.L.L.L.L.L. .H S ! ^ ^ ^ ^ 9.W B # . # # E ~ ] ' w.w.] L q.` y p 4.!./.^.~.^.^./.",
"_._./._._.^.~.^.Z.m z f g U e.K.^.~.^.~.~.~.~.^.~.L.L.L.K.r.G i D G a S % O # . . O 6.j.U.I.I.U.Y.Y.W.F.7.3.* E 5.G.!.!.~.~.~./.",
"~./.~./.^.^.^.~.r.I g d w L i.!.^.~.^.L.L.L.!.L.L.K.K.L.L.v.y 3 p K  .[ ! , $ O $ % 3.P.R.R.R.R.R.W.Q.Y.7.<., , 9.D.!.!.~.~.^.^.",
"/././.~.~.~.^.H.) +.k y s $.n.~.L.^.L.^.L.~.L.~.L.K.L.L.K.v.C a K 9.G.~.K.K.n.< & <.6 8.j.T.W.R.Y.R.W.Y.7.<.<.* 9.D.!.~.!.~.~.~."
};
