/* XPM */
static char *Texture_33[] = {
/* columns rows colors chars-per-pixel */
"64 64 48 1 ",
"  c #67594A",
". c #6B5C4D",
"X c #6C5E51",
"o c #705F51",
"O c #6D6155",
"+ c #6E6857",
"@ c #6E6459",
"# c #6F6959",
"$ c #716255",
"% c #71665B",
"& c #726B5D",
"* c #796A5E",
"= c #756D61",
"- c #796E63",
"; c #777063",
": c #7A7165",
"> c #7D746A",
", c #7F7670",
"< c #81766D",
"1 c #82786E",
"2 c #817770",
"3 c #847B73",
"4 c #887E75",
"5 c #867E79",
"6 c #897F78",
"7 c #8A8077",
"8 c #87807B",
"9 c #8C837B",
"0 c #8F887F",
"q c #91867E",
"w c #8D8681",
"e c #8F8983",
"r c #918780",
"t c #938B84",
"y c #988E87",
"u c #958E89",
"i c #998F88",
"p c #96918C",
"a c #9A938D",
"s c #9C9691",
"d c #9E9994",
"f c #A0958F",
"g c #A09791",
"h c #A19B95",
"j c #A49E99",
"k c #A6A19C",
"l c #A9A39E",
"z c #ABA5A1",
/* pixels */
"XX........*qh1#&@@@@@XX@@XXX.*yj5XXXXXXXXXXOXO@XOOXO@O@O,e3$XX.X",
".X......  -0h>%%@@@@X@@XXXXXX%uk8OX. XX@XXXXXXXXXOOOOOXO,e2%XXXX",
"........  <fs2%+@@@XXXXXXXXX.%ul6XXXXXXX XXXXXXXXOXOOO@X2e2%.X X",
".....    .<qu<%@@X@@@XXXXXXX.<ykr%.XXXXXX XX  XXXXXXXOX@2e5@..  ",
".....   X>9du<@@@@XXXXXXXXXX<rjlp5%XXXXXXXXX XXX XXXX@@X2e2@X  X",
".    o%-2wdzd9>@@@@XXXXXX @2rhllls5%X  X.XX.XXX XX XX  @5e2X.XX ",
".O%*->30sjjjzdw>*%@XXXXXX%,ilhgsjzs5-XXX...XX .XXXXXX XX6r,.X...",
";><3qasatwtdkzju22@XX X*,5sjfw5yfjzs5-X    .X ..XX XXXX@5u5X .X@",
"8epiyq71223aliqgp8,%X$<2ejs8,,@,ushld8,@X  X. .... .X.X%6u2@@*22",
"sy71;;;;==:wh<*3ep82<26pke,,@===-8ygjj8,-X   .    ..XXO<8u52258e",
">;;&&;&;=&=9h3$$,8de6pjp8,@@@,@=-%,28dde2,%X .. .. .O-338s58tpu9",
"&;;;&&&;===3h9$oX-8jjhr,=@,==@,@%@-%@,esp,,-X  . .%-238pdgpur5-*",
";;;&;&&&==&>aq$.X@,js,,@@===,@=@%%=%%=,5phe,%XO%:,,8usjkpw5,-===",
"&&==&;;;&;&:yq%o@@5de,@@,@=@@=@,=-===%@=2uju22,5wesssjjt53;=**%=",
"&&&=;&;&;==;0t*o @ej8=@,@,@,@===%%=%%%=@@-ejspsdae5>:0s6>=&&&&%%",
"==&&&&&;;&==4i-oX,se,@==@@@@=@@@===%=@%=@@-edks5>=#@&3u2=@@&&=%@",
";&&##&;&;#;;70:oo7d7+;;#%====%=====@%%@=%&#8sjd,&#&&&9p>##&&&#&&",
"&&&&;##;&##;707o+0g7&&&&=%%%==@=@@==%@@@%%=8,sje:&#&;0p7&&&&&#&&",
"&&&&;#;##;;#;00+&ai;&%&&=@@=@@=@@@=@@@@@%%,:#,dd7#&#;e0>&&&+##&&",
"&&&;###;;#;;;00&>g0&&=%==@%@@=@@@@@=@@%@&%>@@&ej7;##;007&&&&;#&&",
";++;;#;;#;##;70;8d5%&=%==@==@@@@@=@@%%%%@==@@@;se>&&;0e7;+;####;",
"+;##;##+;#;;;7h7sp,=&@%%@=@@@%%%@@@@%%%@&=@@@@@8d8=&;001+++;;+#+",
"+;#;;#;#&&;#>7hhje;%@=%%@@=@@@%@@@=@%%@@=@@@@@@=au:&>u9;+++#####",
";+;#+++;#;+;;70zd8;%%%@==@@=@@%@@@@@@@@%%@@@@O@@7s8;1p7&++##++;#",
"++;+##;;;+#;77qzsw5-%%%=%%%@@@@@@@@@@@@%@@@@OO@@;tp:7a7+++++++#;",
";+;+#####;+;7q0zdew8>=%%%%@@@@@@@@@@@@@=XO@@OXO@+8d37p1+##+;++++",
"+;++#;+;+;;7qzqqahe592-%%%%@@@@@@@@@@@-@OO@O@OOO&7aueu>+++++;###",
"+++;+;#+;;70qlq<<rsp592-%%%%@X@@@@@@@=@@OOOOOOOX>ttsku7>;;+++###",
"+;;##;+;17000q7oo-<ra953,%@@@XX@@XX@@-@@XOOXOOO+7y0pzlf0711>;+++",
";;#+++10000777*oooo-2yt2,,=%@%XXXX@@==O@XOOOOO%1y0ehh0llha00771;",
"777;7170z077oo+*o*oXo<9fu522,>==%--@O@OO.OO.O%108rsq770s07000007",
"00777000k0;+o+oooooXXo*2ps8,,,,2552>-,,@&%%%*380sy1-&#707&+1sklj",
"jklkjj3<f6<*%$$$ooooooo$<rghdauww85533332338889dr:$$ooo<q1<9jjgh",
"2258ijr2i6o$ooooooo.oooo$4kjsgkkjsaassppptuewtjt-.oo oo$1qrhha4>",
"====-5hug6$o$$ooo.....oo$7kg77qq9522599ettpaghkt*o.....o*qjhw>&@",
"%=o===5hjr<$$$o.o...oo.o*9ka1;;;---=->=>>>,59thh1$ ....oo1jf>@@=",
"%%%====whh4*$o$X.o..oooo*qlt>;;&=;;=====#;;;;>qka-.   .oX2dp=%&&",
"%=%%X=%>tgs2*$oooo.o.ooo*tg9;;&;=;;===%=#;;;:;>tjq*  ...X,se=%&@",
"%==%@==%<tgu:$X..oooo.oo<uh4&&;&;=:=====;;;;;;;,fj3@.  .X2se%=@@",
"%%%==@%$=4tg9-$Xoooo.ooo<ag1&;;;;=======#;;;;;;:qgh2$.. X2se%%@@",
"%%%=%@=@%%,us3-Xoooo..o*1ga1&-;&;&&;;;&&&;&;;;;;26ia>%..o2sw=%%%",
"%@%%%@==&@%>is2*oooooo.*4ht1&&;&=&;;&&;;;&;;;;;;=46at-oXo2arXX@%",
"%@%@@@@@%@=@6aa2*$$oooo<7hq>;&;&&&;&;;&;&;;&;&;;=<>5u5-%o3ft=@@@",
"%%@@@@%@@@@#39aa1:**<$o<0k01;&&;;;;;#;&;&;&;&;;;;>=-2u5><4gt,@@@",
"@@X@@@@@@%O*>%6hu2<<<<<<tkt1:&&;&;;&;;;&&;;&;;;;:>;=;5s228sp=@X@",
"@@@@@@@@@$@-%O&rjsat4qtykkk7;#&;&&&&&;&&;;;;;&&;;;;=;>9u,wsp=@@@",
"o@@@@@@@OO%-@O$0zdyqq641qkli1&&&&&&;&&;&&;&;&&&;=;;==:,rupde=@XX",
"@X@XXX@@%+*%OO%ukr1%*ooo:sdk0;&%&;&&&&&;&&&;;&;&;;;;;==,ukde%X@X",
"%@X@%X%$%$=o$$=sj3$$XXXX$9sra7&&&;=;#&&&=&=;;;&;;;=;;;;;,ade;OOO",
"@oXo@oX%X%%@@X<ji-XXXXXXX<htqa1&&&&&&=&&&;&##;;;:;;;;&&;;8dp0%oO",
"@X@Xo@XXX%o$OX4hw-XXXXXX.*iu1qq>=#===&&;==&&&;;&;;=;;;&;;>0hp9#X",
"XXXXX@o@%%XXX$ts5-XX@XXX %rs<:09;&#&&#&;&;;;&&;&;;&=;:;;;;,uhr4&",
"52%ooooo&XXXO-si4%XXXX...$9h3%<q7;+&&+&&&&;&;&&;;:&&;;;;=:34sdew",
"9wtr6>o->XXXX<hp3oXXX....$4gq*o101==&&&&&&&;&&&;;:;&;;;;:340hlkp",
"daeeuyua6X.XX0dt2oXX .X...1ta:O&00>=;&;&&;;&&;&;&;=;;*;:375shaas",
"8ussuewaa9*.%us6-XXX.Xoo*-4tj7%.;p0:;&&&&&&;;&;&&:&;;;1733ti0<:>",
"*:379iuwtup94su6,%=--256tushjs>X+7s7>>>;&=;;;=;;;>>><2433aa3=%@@",
"O$%%%>6tuuttedt58wwruuaaiitttu5$ +ts1:<1>><1<<>1,>><2>,9aat-@@@@",
"@O@O$$%>3qissksuueuur62>--==-6w>+:7hs8312332238wpaw9wess170*@@OO",
"O+$O$XXX%:3rjd92,:=====X@@@@%4a917qkkhautuwrqqttaaahhahd899&O@OO",
"O$OO@XX@XX$4ju-=&@%=%%@@@@@@@>ahasaat9<**&@O%%%%&=>4669tas9%OOOO",
"X$XOXXXXXXX4dw==&@%%%@%$@X@@@<akaq3:;&OOOOOOOOXOOXX@@&-20s9@@OOO",
"XXXXXXXXXXX5d6=@%&%%@@@@OXX@@>as9-%OOOOOOOOOOOOXO@@OOO@%3s9OOOOX",
"XOXX.XXXXXo5d3@=%%%@O@@@@@X@$>sj4$OO.OO.XOOOXOOOXOOOOOO$4s3OOOXX"
};
