/* XPM */
static char *Texture_22[] = {
/* columns rows colors chars-per-pixel */
"64 64 43 1 ",
"  c #3F434E",
". c #40444F",
"X c #434751",
"o c #464A54",
"O c #4A4C56",
"+ c #4A4E59",
"@ c #504F56",
"# c #4F5057",
"$ c #4E515B",
"% c #525156",
"& c #5A5555",
"* c #53545C",
"= c #59575C",
"- c #57585E",
"; c #5B595E",
": c #615A5B",
"> c #545760",
", c #565961",
"< c #5B5C63",
"1 c #5D5F68",
"2 c #615E63",
"3 c #5E6066",
"4 c #5F6169",
"5 c #636265",
"6 c #6A6466",
"7 c #63656B",
"8 c #69666A",
"9 c #66696E",
"0 c #6A6A6E",
"q c #706B6B",
"w c #676970",
"e c #6B6D72",
"r c #716F72",
"t c #6E7176",
"y c #6F7278",
"u c #727275",
"i c #787677",
"p c #72757A",
"a c #787578",
"s c #75797D",
"d c #7A7A7E",
"f c #7A7D81",
"g c #7E8084",
/* pixels */
"+++++O77>$>>4sf7>++++o+++++$++$$$$$$3y4-<=<><==><f8,$+ooooo>e<++",
"+++oO47*>$$>$,ts3$$+++++++$+$$$$>$>$3e3;>>=======2p<$++oXo@>w,$$",
"+++o44$$$$$$$$>ep3$++$+++$$$$$$$>$$-e8;-%===@*==*<y2++++oo$<w*++",
"++O34$$$+$$$$$$>ep3+$$$+$$$$$$>$$>>4p5--=$=%@@*@*=8w$++++o$we*+o",
"+#7e*$$$++++$$+$,pf,$>$$$$$>$>>>*>>eu;-==*%=%%%%@28f*++++o*te$++",
"*7t7$$+++++++$+++4pf3$$$$>$$>>>>><<s8;%-***@%%%%2rffw$++++=ee$++",
"ts<7*$+++++o+++++$7fs-#->$>>>>>>,,es52<=@@@@+@*5pf71e<+o++,ew$*>",
"eppp>+oo+ ooo+++$$eggs<#$>>>>>>>,<ffa72&@@O@*%5se<=+1e=++12f2,<w",
"114fs<+  +oooo++o-ps7ys7###o+##$%tt1yfs5-%%*;9t4$$+o+w9-,<7s<<00",
",,,4wp>++ oXXoo++4g4$>7spwtew90ets,X+<pft8;2yw*++ooo+3spe<es9t7<",
",,<,,4t<+ooXXooo$ys>oo$4ssy9444wpw+X X+4etup4$+oo+ooo4pfdfsssy<,",
",<<,,,,yw$oXXoXo,s4++++$tt$+$$$4t#XoXo oo#7y*+++oooo+9e3<7esg7>,",
",,1>,,,,wt,oooXOww$+++++9t$+$$$w4+oooX oXX$t,oooo+oo$w4-$$-4s7,,",
",>>>,,1,,3tw***-y3+$$++$3y-+$$<e>ooooooXXo+e3++ooooo-e3$-$$,y4>>",
">>>>,>,<<<<wy4*0t>$$>$+$3y3$$$4t$oooooooXoo79*+ooo o40-$$$$,e3$$",
">>>>>>,,,><<7pys4$+$+$$$-y4,$-t7>++oooooooo<9<$oooX$e7$$$$$,7-$$",
">>>$$>>>>>,,<7fe1$$$$$>$>p9<;yge,o+oooooooo#t7<O+o$<t<*$+$$37$$*",
">$>$>>>>>*,,<7fe<>>*$>$>>y9<t97y>++ooooo+oo+ee<<<37tt>>*$$$4<$$$",
"+>$>$>$>>>>>4wy4<,,***#$*wpe<+*w>+++oXooooo+wfeadffgd3*$+$$7<$$>",
"$$>$>$>>>>><7yf47weeppuurpe*$$+<<+o++o+o+ooo7sar0656ra7*$+>e,$$$",
"$$$$>$>>>,<77dgdaarq68532aw*+++*7-oo+++++oo+4p5=%%%**:a9*$,t>++$",
">>>$>>>>,<27pa822<2<;;-;<pw**+>+77%+o+o+o+++4t5=-*%&%%:r0*3y>$$$",
">,,3344ww7wed0<<<<;<=<<-=re>*$>*<e<$++++++o+1p5=-*%*-*$&8tt0-->-",
"eewww7,>*+O$ee<<=<<;,=*=,ee,$>>$*77>++++++++<p6<&***%%*@%5sp4eyy",
">$+oo +o+oo+7t<;=<====>==8f*$>>>,<t7>+$+++$+<e5;>*=*$=%$%=07$073",
"+++o+ooo +oo3t2<==,====>=8y,>>>><4ss<*++o+++,t5<<=====%%-%69-<$+",
"++oo+ooooo o-t5;===*=*==22f7<,<2eyew0<$$+++$<e6;<==%%%%=%%59<>+o",
" o+oo$ oo oo#t2;*,=@%**=2w77w7yw<+X+<3,*>>>=3p5<<===>>==*-5e7$+o",
"+++ + oo  oo+t5;=,=*%%%=2r<ep7$X. .X$43-=,7yffu<2==>=<,=*;5t4+oo",
" ++oooo  o   95-=*=%%%*%2pyw>o... X. $70epe2,<pw:2<22<<<;<6t,O+O",
"+ooooo ooo oo94-*=%%%*27ew>oXXXXXXXoo-yp7>oo+o<f8<==;;<2250e$+oo",
"+ oo oo    oo4t3*===2881$oooXoXoooXO,ye,O++++o+efffau00875t4o+oo",
"oooXooXXo    >t3;37yp3$oooXooooXoo$4y4$$o++++o+epw4w4wtyygf<+ooo",
"ooooXXX      +e9ty94p7$$++oo#ooo#<0t3$$$$+$$$+$ee->>>>>$,,ww$++o",
"oooXX X     +*yge*+o>w7-$oo++o$$7s4*$$$$$$+$$+,t4>>>>>>>>$,w9$oo",
"oooXXo X   +-yp,+oo++$et,$$++$,ys4$$$$+$$+$$$$4y4>>3,>>,>>><e4#$",
"$XoXo oX+#*4y4$+o+oooo$7t<**#3sfp3-$$$$$$$$$$34t44,3>>,>>>*<ed9*",
"*$oXo o$$3t4>ooo+++ooooo<t3-eswwp4,$$$*$$$*-34ye43,,,>,,>,,3psge",
"0--oo$$-43$++++oooooooooX,spe,>>y43-,-$$$$$34sfpw3,>3,,,<<3e740s",
"ft<,--74-++$++oooo$ooXoXXOye>>>>9pw73-,,$34yge3>4te3>,,,,<e7>->7",
"3py44w<$+++++oooooooXXXXX#y3>>$-tgpe47w79yse3$>>$,epe,--,0w,$-$$",
"$>ygf<$$$++++o+ooooXXooXX$t<#*4te4ypw>$eggt,>$>$,$$3ee39yt<>$$$$",
"$$,efw>$++++o+ooooooXoXoO-y7eww,$+$34t7wst<>$-->$$$$-4,9t4$$$$$$",
"$$$,ege$$+$$o++oo+oo+$##*<st3$+$$$$o+$3tt4$,>>>$$--$$444<-$$$$$$",
"$+++>yge*$+oooOOooO%,979udf<++++o$o$+oo$e4,,,>>,,,>$$4y4,$>$$$$$",
"++++$4fge-#o#O#%;5tddduq00f<+O++oo+oo+++e7,,,>,,>$$->4y3$$$$$$+$",
"+++++$4f<3434tuiuuq:;%%##;s<+ooooo+o+ o+4w,,>$>$>>,->,t,>$$$++++",
"++++++,s7wsgi02&%O@O@%O#%:p4+ooooo o ++ ,w,3,,,,>>>>>,w3$$$$$+++",
"$+++$+>ffpq6&@.@@X@X@@@@@:r2+oooooooXXXX+w<44,,,>>>>>>e<#$+$++++",
"++++o+$pe;&@@.XXX@@@@@@@@:r2+oooooXXXXXX$y4>><,<3>3>>,97$$$$++++",
" + ++o+yq@X@@.@@OOO@@@@@$:r<OooXXXXXXXXo,t4>,,,,3>>,<3tt$$$$++++",
"+++  ++te@@X@@@XO@@@@@@@%:e<ooooX  ..  o4,w4,4<<,,>3<udu<$+o+o+ ",
"++oo+o+eq.@..@@@O@@@@*@@=:8<+oOXX     X-4$e33,<<3,-3tu;57$+++++ ",
"o  o++o4q&@@@@@.@@O@@@%@%:0<=oXXXXoO#-4tewt73,<<,43tr-%;t>$++ ++",
"+o++ o+4q&@..@@@@@@$@@@*&:8<=+oOO*<7e4<$+oo$<79534t7=%#%03$++ o ",
" o o oo3q&&.&@@@@@@%@@@$=:0,%><7097,$ooo ooXXo>77y3$%%#%54$+++++",
"oO+$$$3wi:%O@@O@@$@@%**&;&ttypsgy<$oooooooooooXo*e&%@@@@-9-$oooo",
"*-<7tsyyd:&OO@@@$%%$@==&&9se7,,4yp7*$o+oooooooXO46$%@O@@#0<*$$**",
"9yfy9<>4s5&%+%@@%%%*%@&5e7*+o+o$-4te3$$oooooooo,p5%%@@@OO9<3<---",
"s0<$$$+,ue&*@%%%%%&%&27>ooooo+++$$-7t9-$O+O+%<9sd;@@@@O#%6e%;7td",
",>$$$$+$7p&=*@*&@@&<<*ooXooo++++$$$>,7e8257udgggp;%%$%=5tggsffy4",
"$$$$$$$$4s0&&@@@-<<%+oo+ooo+++++$$$$*,tggdar866us3;;39psye43pt-*",
"$$$$$+$<espt<-:5,++ooo+ooo++++$$$$$*>7su82<<<;;2pptte43$oo +t9-$",
"$$$+o$>7y<,9dfe<+++oo+o++o+$$+$$$$*>-er<<;<=<<;;0p9-+o +ooo+t4$$"
};
